<?xml version="1.0" encoding="UTF-8" standalone="no"?>
<!-- Created with Inkscape (http://www.inkscape.org/) -->

<svg
   xmlns:dc="http://purl.org/dc/elements/1.1/"
   xmlns:cc="http://creativecommons.org/ns#"
   xmlns:rdf="http://www.w3.org/1999/02/22-rdf-syntax-ns#"
   xmlns:svg="http://www.w3.org/2000/svg"
   xmlns="http://www.w3.org/2000/svg"
   xmlns:sodipodi="http://sodipodi.sourceforge.net/DTD/sodipodi-0.dtd"
   xmlns:inkscape="http://www.inkscape.org/namespaces/inkscape"
   id="svg20788"
   version="1.1"
   inkscape:version="0.91 r13725"
   xml:space="preserve"
   width="1250"
   height="1250"
   viewBox="0 0 1250 1250"
   sodipodi:docname="adafruit_logo2012_text.svg"><metadata
     id="metadata20794"><rdf:RDF><cc:Work
         rdf:about=""><dc:format>image/svg+xml</dc:format><dc:type
           rdf:resource="http://purl.org/dc/dcmitype/StillImage" /><dc:title></dc:title></cc:Work></rdf:RDF></metadata><defs
     id="defs20792"><clipPath
       clipPathUnits="userSpaceOnUse"
       id="clipPath20802"><path
         d="m 0,1000 1000,0 L 1000,0 0,0 0,1000 Z"
         id="path20804"
         inkscape:connector-curvature="0" /></clipPath></defs><sodipodi:namedview
     pagecolor="#ffffff"
     bordercolor="#666666"
     borderopacity="1"
     objecttolerance="10"
     gridtolerance="10"
     guidetolerance="10"
     inkscape:pageopacity="0"
     inkscape:pageshadow="2"
     inkscape:window-width="804"
     inkscape:window-height="480"
     id="namedview20790"
     showgrid="false"
     inkscape:zoom="0.1888"
     inkscape:cx="625"
     inkscape:cy="625"
     inkscape:window-x="0"
     inkscape:window-y="0"
     inkscape:window-maximized="0"
     inkscape:current-layer="g20796" /><g
     id="g20796"
     inkscape:groupmode="layer"
     inkscape:label="adafruit_logo2012_text"
     transform="matrix(1.25,0,0,-1.25,0,1250)"><g
       id="g20806"
       transform="translate(507.4063,45.9717)"><path
         d="m 0,0 -4.537,0 0,-11.972 4.998,0 c 0.684,0.032 1.164,0.122 1.548,0.485 0.637,0.593 0.92,1.723 0.92,5.462 0,3.801 -0.283,4.914 -0.92,5.506 C 1.489,-0.048 1.014,0 0,0"
         style="fill:#7d7e7f;fill-opacity:1;fill-rule:nonzero;stroke:none"
         id="path20808"
         inkscape:connector-curvature="0" /></g><g
       id="g20810"
       transform="translate(483.8569,44.6484)"><path
         d="m 0,0 0,-10.648 5.876,0 L 0.355,0 0,0 Z"
         style="fill:#7d7e7f;fill-opacity:1;fill-rule:nonzero;stroke:none"
         id="path20812"
         inkscape:connector-curvature="0" /></g><g
       id="g20814"
       transform="translate(310.2793,50.3955)"><path
         d="m 0,0 0,-16.396 162.441,0 0,14.241 2.644,0 0,-14.241 5.916,0 0,14.241 2.932,0 c 0.686,0 0.92,-0.143 1.205,-0.782 l 6.095,-11.6 0.357,0 0,12.382 2.576,0 0,-14.241 5.775,0 0,14.241 7.186,0 c 2.009,0 3.095,-0.33 4.017,-1.157 1.086,-0.994 1.609,-3.049 1.609,-7.116 0,-2.918 -0.281,-4.769 -0.836,-5.968 l 6.897,0 c -0.264,0.833 -0.383,2.124 -0.383,4.573 l 0,9.668 2.648,0 0,-10.233 c 0,-3.004 0.234,-3.261 0.566,-3.595 0.26,-0.259 0.71,-0.378 2.531,-0.378 l 1.487,0 c 1.775,0 2.199,0.092 2.483,0.378 0.354,0.358 0.518,0.545 0.518,3.595 l 0,10.233 2.649,0 0,-9.668 c 0,-2.449 -0.128,-3.737 -0.408,-4.573 l 6.354,0 c -0.114,0.652 -0.171,1.544 -0.192,2.897 l 2.621,0 c 0.048,-2.058 0.12,-2.484 0.311,-2.672 0.107,-0.111 0.32,-0.187 0.707,-0.225 l 5.421,0 c 0.309,0.032 0.519,0.09 0.654,0.225 0.212,0.215 0.258,0.854 0.258,2.245 0,1.207 -0.02,1.584 -0.282,1.846 -0.189,0.187 -0.426,0.257 -1.087,0.307 l -5.201,0.473 c -1.205,0.114 -1.913,0.353 -2.412,0.851 -0.66,0.661 -0.777,1.44 -0.777,3.612 0,2.128 0.213,3.17 0.969,3.928 0.495,0.492 1.251,0.754 2.506,0.754 l 5.102,0 c 1.3,0 2.056,-0.167 2.577,-0.686 0.685,-0.682 0.853,-1.44 0.947,-4.395 l -2.624,0 c -0.05,1.938 -0.118,2.362 -0.308,2.549 -0.142,0.144 -0.331,0.263 -1.041,0.263 l -4.181,0 c -0.664,0 -0.875,-0.069 -1.065,-0.263 -0.212,-0.211 -0.261,-0.873 -0.261,-2.126 0,-1.155 0.024,-1.56 0.286,-1.818 0.188,-0.187 0.425,-0.212 1.086,-0.286 l 5.202,-0.471 c 1.132,-0.093 1.865,-0.331 2.363,-0.828 0.638,-0.638 0.825,-1.44 0.825,-3.685 0,-1.094 -0.055,-1.877 -0.187,-2.495 l 9.602,0 0,11.972 -5.2,0 0,2.269 13.046,0 0,-2.269 -5.2,0 0,-11.972 10.076,0 0,14.241 8.912,0 c 1.087,0 1.864,-0.188 2.363,-0.686 0.638,-0.638 1.063,-1.539 1.063,-4.018 0,-2.908 -0.805,-3.734 -2.696,-3.995 l 0,-0.046 c 1.751,-0.329 2.434,-0.756 2.528,-3.168 0.039,-0.918 0.074,-1.666 0.108,-2.328 l 6.616,0 0,14.241 2.645,0 0,-14.241 6.859,0 0,14.241 11.297,0 0,-2.269 -8.647,0 0,-4.561 7.158,0 0,-2.269 -7.158,0 0,-5.142 13.812,0 c -0.115,0.652 -0.171,1.544 -0.192,2.897 l 2.622,0 c 0.049,-2.058 0.118,-2.484 0.31,-2.672 0.108,-0.111 0.321,-0.187 0.706,-0.225 l 5.42,0 c 0.315,0.032 0.524,0.09 0.656,0.225 0.213,0.215 0.257,0.854 0.257,2.245 0,1.207 -0.019,1.584 -0.282,1.846 -0.187,0.187 -0.424,0.257 -1.088,0.307 l -5.199,0.473 c -1.206,0.114 -1.914,0.353 -2.411,0.851 -0.66,0.661 -0.777,1.44 -0.777,3.612 0,2.128 0.212,3.17 0.968,3.928 0.496,0.492 1.251,0.754 2.506,0.754 l 5.103,0 c 1.301,0 2.055,-0.167 2.576,-0.686 0.686,-0.682 0.853,-1.44 0.948,-4.395 l -2.626,0 c -0.049,1.938 -0.118,2.362 -0.306,2.549 -0.144,0.144 -0.331,0.263 -1.042,0.263 l -4.183,0 c -0.662,0 -0.875,-0.069 -1.063,-0.263 -0.212,-0.211 -0.261,-0.873 -0.261,-2.126 0,-1.155 0.024,-1.56 0.287,-1.818 0.187,-0.187 0.424,-0.212 1.086,-0.286 l 5.201,-0.471 c 1.132,-0.093 1.863,-0.331 2.362,-0.828 0.639,-0.638 0.826,-1.44 0.826,-3.685 0,-1.094 -0.052,-1.877 -0.184,-2.495 l 13.705,0 0,16.396 L 0,0 Z"
         style="fill:#7d7e7f;fill-opacity:1;fill-rule:nonzero;stroke:none"
         id="path20816"
         inkscape:connector-curvature="0" /></g><g
       id="g20818"
       transform="translate(581.2246,40.9355)"><path
         d="m 0,0 c 0.213,0.212 0.523,0.736 0.523,2.436 0,1.701 -0.287,2.201 -0.499,2.412 -0.118,0.119 -0.355,0.188 -1.038,0.188 l -5.483,0 0,-5.268 5.483,0 c 0.683,0 0.899,0.116 1.014,0.232"
         style="fill:#7d7e7f;fill-opacity:1;fill-rule:nonzero;stroke:none"
         id="path20820"
         inkscape:connector-curvature="0" /></g><g
       id="g20822"
       transform="translate(574.7275,34)"><path
         d="M 0,0 6.926,0 C 6.884,0.693 6.849,1.429 6.828,2.258 6.807,3.582 6.64,3.91 6.31,4.195 6.002,4.453 5.528,4.527 4.583,4.527 L 0,4.527 0,0 Z"
         style="fill:#7d7e7f;fill-opacity:1;fill-rule:nonzero;stroke:none"
         id="path20824"
         inkscape:connector-curvature="0" /></g><g
       id="g20826"
       transform="translate(343.5898,71.4775)"><path
         d="m 0,0 0,8.935 -9.805,0 c -5.64,0 -6.995,-0.387 -7.967,-1.357 -0.969,-0.976 -1.165,-2.143 -1.165,-4.568 0,-2.725 0.196,-4.176 0.969,-4.954 0.781,-0.774 1.848,-0.871 3.788,-0.871 l 4.179,0 C -6.896,-2.815 -4.855,-2.529 0,0 m -27.974,37.095 c 2.147,2.136 4.666,3.009 9.517,3.009 l 19.522,0 c 5.438,0 8.642,-0.96 10.589,-3.009 2.43,-2.417 3.207,-5.244 3.207,-14.276 l 0,-36.125 -14.861,0 0,6.113 c -6.411,-5.243 -8.739,-6.214 -13.499,-6.214 l -7.289,0 c -4.754,0 -7.281,0.588 -9.418,2.713 -1.843,1.855 -3.105,4.96 -3.105,11.948 0,6.606 0.969,10.688 3.304,13.019 2.422,2.426 5.532,3.597 15.145,3.597 5.151,0 10.491,-0.592 14.862,-1.56 l 0,4.76 c 0,5.249 -0.294,6.314 -0.973,7.089 -0.683,0.594 -1.652,0.787 -3.882,0.787 l -7.476,0 c -2.043,0 -3.114,-0.193 -3.695,-0.787 -0.774,-0.775 -0.875,-1.84 -1.071,-5.049 l -14.074,0 c 0.09,8.931 0.965,11.854 3.197,13.985"
         style="fill:#7d7e7f;fill-opacity:1;fill-rule:nonzero;stroke:none"
         id="path20828"
         inkscape:connector-curvature="0" /></g><g
       id="g20830"
       transform="translate(398.5396,72.252)"><path
         d="m 0,0 0,25.44 c -3.116,1.456 -5.346,2.139 -7.771,2.139 l -5.34,0 c -2.722,0 -3.991,-0.39 -4.862,-1.26 -1.357,-1.262 -1.746,-3.501 -1.746,-13.688 0,-10.197 0.389,-12.345 1.746,-13.705 0.871,-0.866 2.14,-1.162 4.862,-1.162 l 4.852,0 c 2.526,0 4.952,0.682 8.259,2.236 m 0,-14.08 0,6.892 c -6.702,-5.826 -9.033,-6.994 -13.412,-6.994 l -5.628,0 c -5.633,0 -8.64,0.972 -10.973,3.302 -3.199,3.205 -4.467,7.876 -4.467,23.511 0,15.728 1.548,20.191 4.858,23.502 2.332,2.324 5.434,3.293 10.777,3.293 l 5.824,0 c 4.469,0 6.901,-0.969 13.021,-6.115 l 0,24.279 14.863,0 0,-71.67 -14.863,0 z"
         style="fill:#7d7e7f;fill-opacity:1;fill-rule:nonzero;stroke:none"
         id="path20832"
         inkscape:connector-curvature="0" /></g><g
       id="g20834"
       transform="translate(452.3208,71.4775)"><path
         d="m 0,0 0,8.935 -9.805,0 c -5.636,0 -6.996,-0.387 -7.967,-1.357 -0.97,-0.976 -1.165,-2.143 -1.165,-4.568 0,-2.725 0.195,-4.176 0.973,-4.954 0.776,-0.774 1.839,-0.871 3.782,-0.871 l 4.174,0 C -6.896,-2.815 -4.855,-2.529 0,0 m -27.972,37.095 c 2.137,2.136 4.664,3.009 9.517,3.009 l 19.524,0 c 5.434,0 8.64,-0.96 10.586,-3.009 2.425,-2.417 3.206,-5.244 3.206,-14.276 l 0,-36.125 -14.861,0 0,6.113 c -6.411,-5.243 -8.742,-6.214 -13.499,-6.214 l -7.278,0 c -4.764,0 -7.295,0.588 -9.425,2.713 -1.847,1.855 -3.112,4.96 -3.112,11.948 0,6.606 0.972,10.688 3.304,13.019 2.429,2.426 5.535,3.597 15.147,3.597 5.153,0 10.494,-0.592 14.863,-1.56 l 0,4.76 c 0,5.249 -0.294,6.314 -0.969,7.089 -0.677,0.594 -1.656,0.787 -3.886,0.787 l -7.477,0 c -2.043,0 -3.109,-0.193 -3.692,-0.787 -0.777,-0.775 -0.873,-1.84 -1.073,-5.049 l -14.081,0 c 0.101,8.931 0.976,11.854 3.206,13.985"
         style="fill:#7d7e7f;fill-opacity:1;fill-rule:nonzero;stroke:none"
         id="path20836"
         inkscape:connector-curvature="0" /></g><g
       id="g20838"
       transform="translate(472.7861,58.1719)"><path
         d="M 0,0 0,55.936 C 0,62.64 0.879,66.139 3.113,68.368 5.347,70.601 7.87,71.67 13.6,71.67 l 12.237,0 0,-11.263 -7.193,0 c -1.938,0 -2.523,-0.196 -3.102,-0.682 -0.491,-0.583 -0.684,-1.642 -0.684,-4.273 l 0,-2.139 10.979,0 0,-11.556 -10.882,0 L 14.955,0 0,0 Z"
         style="fill:#7d7e7f;fill-opacity:1;fill-rule:nonzero;stroke:none"
         id="path20840"
         inkscape:connector-curvature="0" /></g><g
       id="g20842"
       transform="translate(504.2324,58.1719)"><path
         d="m 0,0 0,53.41 14.851,0 0,-8.154 c 5.539,5.731 8.353,8.25 12.628,8.25 l 5.729,0 0,-14.661 -6.894,0 c -4.082,0 -7.187,-0.384 -11.463,-2.134 L 14.851,0 0,0 Z"
         style="fill:#7d7e7f;fill-opacity:1;fill-rule:nonzero;stroke:none"
         id="path20844"
         inkscape:connector-curvature="0" /></g><g
       id="g20846"
       transform="translate(591.1162,111.582)"><path
         d="m 0,0 0,-53.41 -14.952,0 0,7.08 c -6.797,-6.112 -9.031,-7.182 -13.89,-7.182 l -6.503,0 c -4.664,0 -7.581,0.972 -9.613,3.015 -2.141,2.229 -3.109,5.046 -3.109,12.819 l 0,37.678 14.955,0 0,-36.028 c 0,-2.23 0.286,-3.498 1.161,-4.376 0.875,-0.867 1.75,-1.162 4.375,-1.162 l 4.275,0 c 2.521,0 4.759,0.584 8.349,2.138 L -14.952,0 0,0 Z"
         style="fill:#7d7e7f;fill-opacity:1;fill-rule:nonzero;stroke:none"
         id="path20848"
         inkscape:connector-curvature="0" /></g><path
       d="m 611.32,58.172 -14.663,0 0,53.41 14.663,0 0,-53.41 z m 0,60.8 -14.663,0 0,10.87 14.663,0 0,-10.87 z"
       style="fill:#7d7e7f;fill-opacity:1;fill-rule:nonzero;stroke:none"
       id="path20850"
       inkscape:connector-curvature="0" /><g
       id="g20852"
       transform="translate(642.8643,69.9199)"><path
         d="m 0,0 -6.413,0 c -2.433,0 -3.399,0.198 -3.88,0.582 -0.491,0.586 -0.686,1.356 -0.686,3.694 l 0,25.733 10.979,0 0,11.653 -10.979,0 0,7.39 -14.957,0 0,-7.39 0,-11.653 0,-29.72 c 0,-5.435 0.679,-7.863 2.433,-9.613 1.845,-1.849 4.56,-2.909 9.613,-2.909 3.981,0 7.965,0.582 10.292,1.165 L 0,-10.139 0,0 Z"
         style="fill:#7d7e7f;fill-opacity:1;fill-rule:nonzero;stroke:none"
         id="path20854"
         inkscape:connector-curvature="0" /></g><g
       id="g20856"
       transform="translate(460.918,618.4922)"><path
         d="m 0,0 -6.524,0 0,-17.217 7.188,0 c 0.981,0.048 1.672,0.174 2.226,0.695 0.917,0.852 1.321,2.483 1.321,7.857 0,5.472 -0.404,7.068 -1.321,7.92 C 2.141,-0.071 1.462,0 0,0"
         style="fill:#7d7e7f;fill-opacity:1;fill-rule:nonzero;stroke:none"
         id="path20858"
         inkscape:connector-curvature="0" /></g><g
       id="g20860"
       transform="translate(427.0474,616.5884)"><path
         d="m 0,0 0,-15.313 8.452,0 L 0.512,0 0,0 Z"
         style="fill:#7d7e7f;fill-opacity:1;fill-rule:nonzero;stroke:none"
         id="path20862"
         inkscape:connector-curvature="0" /></g><g
       id="g20864"
       transform="translate(177.4092,624.8564)"><path
         d="m 0,0 0,-23.582 233.626,0 0,20.482 3.803,0 0,-20.482 8.508,0 0,20.482 4.213,0 c 0.986,0 1.325,-0.204 1.733,-1.121 l 8.769,-16.684 0.513,0 0,17.805 3.705,0 0,-20.482 8.305,0 0,20.482 10.334,0 c 2.89,0 4.454,-0.477 5.776,-1.662 1.565,-1.427 2.317,-4.384 2.317,-10.24 0,-4.196 -0.408,-6.852 -1.206,-8.58 l 9.92,0 c -0.376,1.198 -0.551,3.052 -0.551,6.58 l 0,13.902 3.814,0 0,-14.717 c 0,-4.323 0.334,-4.691 0.807,-5.166 0.378,-0.376 1.026,-0.55 3.639,-0.55 l 2.144,0 c 2.551,0 3.162,0.139 3.569,0.55 0.513,0.509 0.745,0.781 0.745,5.166 l 0,14.717 3.81,0 0,-13.902 c 0,-3.528 -0.184,-5.373 -0.585,-6.58 l 9.139,0 c -0.167,0.942 -0.243,2.225 -0.28,4.168 l 3.772,0 c 0.07,-2.956 0.171,-3.569 0.446,-3.84 0.157,-0.161 0.461,-0.272 1.018,-0.328 l 7.794,0 c 0.446,0.049 0.75,0.133 0.944,0.328 0.303,0.307 0.373,1.22 0.373,3.226 0,1.737 -0.032,2.279 -0.408,2.657 -0.272,0.265 -0.61,0.369 -1.565,0.44 l -7.479,0.682 c -1.735,0.161 -2.75,0.502 -3.469,1.22 -0.943,0.956 -1.118,2.071 -1.118,5.2 0,3.053 0.307,4.556 1.394,5.643 0.71,0.711 1.798,1.086 3.604,1.086 l 7.34,0 c 1.868,0 2.956,-0.238 3.701,-0.985 0.99,-0.982 1.232,-2.07 1.367,-6.321 l -3.775,0 c -0.07,2.786 -0.17,3.401 -0.442,3.665 -0.203,0.209 -0.475,0.377 -1.5,0.377 l -6.014,0 c -0.952,0 -1.255,-0.098 -1.529,-0.377 -0.305,-0.3 -0.375,-1.254 -0.375,-3.052 0,-1.667 0.035,-2.246 0.412,-2.623 0.271,-0.264 0.613,-0.298 1.56,-0.41 l 7.481,-0.676 c 1.63,-0.132 2.683,-0.475 3.402,-1.193 0.913,-0.912 1.185,-2.07 1.185,-5.298 0,-1.573 -0.078,-2.697 -0.272,-3.589 l 13.812,0 0,17.218 -7.48,0 0,3.264 18.763,0 0,-3.264 -7.481,0 0,-17.218 14.493,0 0,20.482 12.82,0 c 1.56,0 2.682,-0.267 3.397,-0.985 0.918,-0.92 1.531,-2.209 1.531,-5.78 0,-4.181 -1.158,-5.366 -3.876,-5.742 l 0,-0.072 c 2.516,-0.473 3.5,-1.086 3.632,-4.55 0.055,-1.325 0.108,-2.398 0.16,-3.353 l 9.511,0 0,20.482 3.803,0 0,-20.482 9.867,0 0,20.482 16.247,0 0,-3.264 -12.434,0 0,-6.559 10.295,0 0,-3.264 -10.295,0 0,-7.395 19.866,0 c -0.167,0.942 -0.252,2.225 -0.28,4.168 l 3.771,0 c 0.071,-2.956 0.168,-3.569 0.446,-3.84 0.154,-0.161 0.461,-0.272 1.018,-0.328 l 7.794,0 c 0.453,0.049 0.754,0.133 0.941,0.328 0.306,0.307 0.376,1.22 0.376,3.226 0,1.737 -0.034,2.279 -0.411,2.657 -0.271,0.265 -0.606,0.369 -1.56,0.44 l -7.481,0.682 c -1.735,0.161 -2.754,0.502 -3.471,1.22 -0.949,0.956 -1.116,2.071 -1.116,5.2 0,3.053 0.308,4.556 1.395,5.643 0.711,0.711 1.798,1.086 3.604,1.086 l 7.339,0 c 1.868,0 2.956,-0.238 3.701,-0.985 0.991,-0.982 1.228,-2.07 1.368,-6.321 l -3.779,0 c -0.069,2.786 -0.167,3.401 -0.438,3.665 -0.202,0.209 -0.474,0.377 -1.5,0.377 l -6.015,0 c -0.956,0 -1.255,-0.098 -1.527,-0.377 -0.307,-0.3 -0.376,-1.254 -0.376,-3.052 0,-1.667 0.034,-2.246 0.411,-2.623 0.272,-0.264 0.613,-0.298 1.56,-0.41 l 7.481,-0.676 c 1.631,-0.132 2.683,-0.475 3.402,-1.193 0.913,-0.912 1.185,-2.07 1.185,-5.298 0,-1.573 -0.076,-2.697 -0.265,-3.589 l 19.705,0 0,23.582 L 0,0 Z"
         style="fill:#7d7e7f;fill-opacity:1;fill-rule:nonzero;stroke:none"
         id="path20866"
         inkscape:connector-curvature="0" /></g><g
       id="g20868"
       transform="translate(567.085,611.2495)"><path
         d="m 0,0 c 0.306,0.307 0.751,1.059 0.751,3.506 0,2.447 -0.41,3.165 -0.717,3.473 -0.167,0.166 -0.509,0.264 -1.492,0.264 l -7.884,0 0,-7.577 7.884,0 c 0.983,0 1.294,0.173 1.458,0.334"
         style="fill:#7d7e7f;fill-opacity:1;fill-rule:nonzero;stroke:none"
         id="path20870"
         inkscape:connector-curvature="0" /></g><g
       id="g20872"
       transform="translate(557.7432,601.2749)"><path
         d="M 0,0 9.958,0 C 9.899,0.997 9.85,2.055 9.818,3.248 9.787,5.15 9.551,5.624 9.068,6.036 8.629,6.406 7.946,6.509 6.591,6.509 L 0,6.509 0,0 Z"
         style="fill:#7d7e7f;fill-opacity:1;fill-rule:nonzero;stroke:none"
         id="path20874"
         inkscape:connector-curvature="0" /></g><g
       id="g20876"
       transform="translate(225.3154,655.1792)"><path
         d="m 0,0 0,12.848 -14.102,0 c -8.11,0 -10.061,-0.557 -11.458,-1.952 -1.395,-1.402 -1.675,-3.082 -1.675,-6.571 0,-3.914 0.28,-6.004 1.395,-7.123 1.121,-1.112 2.655,-1.251 5.447,-1.251 l 6.011,0 c 4.466,0 7.4,0.41 14.382,4.049 m -40.231,53.347 c 3.085,3.075 6.711,4.33 13.688,4.33 l 28.077,0 c 7.82,0 12.427,-1.381 15.23,-4.33 3.491,-3.477 4.61,-7.542 4.61,-20.528 l 0,-51.96 -21.374,0 0,8.793 c -9.218,-7.539 -12.566,-8.937 -19.415,-8.937 l -10.481,0 c -6.838,0 -10.472,0.848 -13.544,3.905 -2.653,2.666 -4.466,7.128 -4.466,17.186 0,9.498 1.392,15.367 4.752,18.72 3.484,3.489 7.953,5.176 21.78,5.176 7.408,0 15.088,-0.854 21.374,-2.248 l 0,6.849 c 0,7.55 -0.422,9.082 -1.399,10.195 -0.984,0.853 -2.375,1.131 -5.583,1.131 l -10.753,0 c -2.938,0 -4.477,-0.278 -5.314,-1.131 -1.114,-1.113 -1.258,-2.645 -1.539,-7.261 l -20.241,0 c 0.13,12.843 1.389,17.043 4.598,20.11"
         style="fill:#7d7e7f;fill-opacity:1;fill-rule:nonzero;stroke:none"
         id="path20878"
         inkscape:connector-curvature="0" /></g><g
       id="g20880"
       transform="translate(304.3472,656.291)"><path
         d="m 0,0 0,36.587 c -4.482,2.098 -7.691,3.081 -11.18,3.081 l -7.68,0 c -3.914,0 -5.738,-0.565 -6.992,-1.815 -1.95,-1.817 -2.511,-5.034 -2.511,-19.687 0,-14.669 0.561,-17.755 2.511,-19.71 1.254,-1.247 3.078,-1.674 6.992,-1.674 l 6.979,0 C -8.247,-3.218 -4.758,-2.234 0,0 m 0,-20.253 0,9.919 c -9.64,-8.386 -12.993,-10.062 -19.291,-10.062 l -8.093,0 c -8.103,0 -12.428,1.397 -15.781,4.747 -4.603,4.611 -6.427,11.328 -6.427,33.815 0,22.623 2.225,29.037 6.989,33.802 3.353,3.343 7.813,4.737 15.499,4.737 l 8.375,0 c 6.427,0 9.926,-1.394 18.729,-8.798 l 0,34.917 21.374,0 0,-103.077 -21.374,0 z"
         style="fill:#7d7e7f;fill-opacity:1;fill-rule:nonzero;stroke:none"
         id="path20882"
         inkscape:connector-curvature="0" /></g><g
       id="g20884"
       transform="translate(381.6958,655.1792)"><path
         d="m 0,0 0,12.848 -14.103,0 c -8.106,0 -10.062,-0.557 -11.46,-1.952 -1.394,-1.402 -1.672,-3.082 -1.672,-6.571 0,-3.914 0.278,-6.004 1.398,-7.123 1.118,-1.112 2.644,-1.251 5.44,-1.251 l 6.001,0 C -9.92,-4.049 -6.985,-3.639 0,0 m -40.229,53.347 c 3.073,3.075 6.706,4.33 13.684,4.33 l 28.082,0 c 7.814,0 12.425,-1.381 15.224,-4.33 3.489,-3.477 4.612,-7.542 4.612,-20.528 l 0,-51.96 -21.373,0 0,8.793 c -9.222,-7.539 -12.576,-8.937 -19.418,-8.937 l -10.466,0 c -6.853,0 -10.492,0.848 -13.551,3.905 -2.66,2.666 -4.48,7.128 -4.48,17.186 0,9.498 1.399,15.367 4.751,18.72 3.496,3.489 7.961,5.176 21.787,5.176 7.408,0 15.096,-0.854 21.377,-2.248 l 0,6.849 c 0,7.55 -0.425,9.082 -1.395,10.195 -0.976,0.853 -2.383,1.131 -5.59,1.131 l -10.753,0 c -2.937,0 -4.471,-0.278 -5.308,-1.131 -1.119,-1.113 -1.259,-2.645 -1.543,-7.261 l -20.255,0 c 0.146,12.843 1.409,17.043 4.615,20.11"
         style="fill:#7d7e7f;fill-opacity:1;fill-rule:nonzero;stroke:none"
         id="path20886"
         inkscape:connector-curvature="0" /></g><g
       id="g20888"
       transform="translate(411.125,636.0381)"><path
         d="m 0,0 0,80.45 c 0,9.64 1.266,14.673 4.48,17.88 3.214,3.21 6.842,4.747 15.081,4.747 l 17.601,0 0,-16.193 -10.345,0 c -2.787,0 -3.63,-0.282 -4.46,-0.984 -0.708,-0.835 -0.984,-2.363 -0.984,-6.147 l 0,-3.075 15.789,0 0,-16.617 -15.648,0 L 21.514,0 0,0 Z"
         style="fill:#7d7e7f;fill-opacity:1;fill-rule:nonzero;stroke:none"
         id="path20890"
         inkscape:connector-curvature="0" /></g><g
       id="g20892"
       transform="translate(456.3525,636.0381)"><path
         d="m 0,0 0,76.818 21.359,0 0,-11.725 c 7.968,8.24 12.017,11.865 18.162,11.865 l 8.244,0 0,-21.087 -9.92,0 c -5.869,0 -10.334,-0.555 -16.486,-3.072 L 21.359,0 0,0 Z"
         style="fill:#7d7e7f;fill-opacity:1;fill-rule:nonzero;stroke:none"
         id="path20894"
         inkscape:connector-curvature="0" /></g><g
       id="g20896"
       transform="translate(581.3115,712.8564)"><path
         d="m 0,0 0,-76.818 -21.505,0 0,10.186 c -9.772,-8.793 -12.987,-10.33 -19.974,-10.33 l -9.356,0 c -6.709,0 -10.902,1.398 -13.826,4.335 -3.074,3.212 -4.468,7.26 -4.468,18.436 l 0,54.191 21.508,0 0,-51.818 c 0,-3.203 0.411,-5.03 1.669,-6.291 1.259,-1.247 2.515,-1.674 6.292,-1.674 l 6.15,0 c 3.626,0 6.841,0.84 12.005,3.075 L -21.505,0 0,0 Z"
         style="fill:#7d7e7f;fill-opacity:1;fill-rule:nonzero;stroke:none"
         id="path20898"
         inkscape:connector-curvature="0" /></g><path
       d="m 610.375,636.038 -21.092,0 0,76.818 21.092,0 0,-76.818 z m 0,87.441 -21.092,0 0,15.636 21.092,0 0,-15.636 z"
       style="fill:#7d7e7f;fill-opacity:1;fill-rule:nonzero;stroke:none"
       id="path20900"
       inkscape:connector-curvature="0" /><g
       id="g20902"
       transform="translate(655.7324,652.9355)"><path
         d="m 0,0 -9.221,0 c -3.499,0 -4.886,0.286 -5.578,0.84 -0.703,0.839 -0.989,1.947 -0.989,5.315 l 0,37.008 15.788,0 0,16.758 -15.788,0 0,10.622 -21.505,0 0,-10.622 0,-16.758 0,-42.745 c 0,-7.822 0.977,-11.308 3.5,-13.823 2.648,-2.657 6.552,-4.191 13.823,-4.191 5.723,0 11.452,0.841 14.799,1.678 L 0,-14.58 0,0 Z"
         style="fill:#7d7e7f;fill-opacity:1;fill-rule:nonzero;stroke:none"
         id="path20904"
         inkscape:connector-curvature="0" /></g><g
       id="g20906"
       transform="translate(473.6982,842.2402)"><path
         d="m 0,0 c -8.505,-1.355 -15.846,0.344 -16.398,3.792 -0.545,3.451 5.904,7.346 14.408,8.698 C 6.518,13.848 13.858,12.149 14.406,8.698 14.957,5.25 8.508,1.353 0,0 m -8.078,-35.528 c -3.112,-1.591 -8.809,3.341 -12.725,11.014 -3.919,7.668 -4.572,15.177 -1.462,16.766 3.111,1.587 8.809,-3.344 12.725,-11.013 3.919,-7.669 4.572,-15.177 1.462,-16.767 m -33.515,14.286 c -6.085,-6.097 -13.024,-9.037 -15.498,-6.569 -2.471,2.467 0.461,9.41 6.546,15.508 6.083,6.097 13.021,9.038 15.493,6.57 2.47,-2.47 -0.457,-9.414 -6.541,-15.509 m -23.301,42.43 c 1.584,3.115 9.089,2.474 16.769,-1.431 7.677,-3.903 12.618,-9.592 11.036,-12.702 -1.585,-3.116 -9.091,-2.474 -16.771,1.424 -7.678,3.905 -12.618,9.594 -11.034,12.709 m 44.187,22.562 c 3.45,-0.542 5.161,-7.88 3.82,-16.39 -1.338,-8.507 -5.22,-14.963 -8.672,-14.42 -3.452,0.545 -5.164,7.881 -3.823,16.389 1.34,8.51 5.222,14.968 8.675,14.421 M 88.238,20.458 c -0.721,4.531 -3.174,5.82 -9.094,7.719 -4.499,1.439 -34.643,11.044 -34.643,11.044 0,0 -21.002,7.93 -36.576,-3.292 -2.098,-1.509 -4.266,-3.23 -6.453,-5.07 1.838,2.187 3.556,4.36 5.065,6.459 11.189,15.593 3.22,36.584 3.22,36.584 0,0 -9.653,30.122 -11.107,34.621 -1.909,5.92 -3.2,8.369 -7.729,9.08 -4.529,0.714 -6.511,-1.221 -10.145,-6.267 -2.764,-3.833 -21.212,-29.53 -21.212,-29.53 0,0 -14.03,-17.528 -8.171,-35.805 0.787,-2.462 1.753,-5.057 2.831,-7.704 -1.516,2.425 -3.051,4.728 -4.582,6.812 -11.374,15.458 -33.795,14.37 -33.795,14.37 0,0 -31.632,0.125 -36.362,0.136 -6.216,0.014 -8.946,-0.46 -11.024,-4.544 -2.079,-4.087 -0.847,-6.572 2.826,-11.587 2.792,-3.813 21.531,-29.3 21.531,-29.3 0,0 12.336,-18.758 31.524,-18.837 2.579,-0.011 5.343,0.104 8.184,0.308 -2.766,-0.688 -5.426,-1.439 -7.871,-2.248 -18.219,-6.04 -24.112,-27.7 -24.112,-27.7 0,0 -9.893,-30.048 -11.366,-34.542 -1.933,-5.908 -2.327,-8.65 0.914,-11.888 3.246,-3.237 5.988,-2.84 11.892,-0.895 4.494,1.476 34.52,11.424 34.52,11.424 0,0 21.653,5.935 27.658,24.165 0.806,2.445 1.549,5.098 2.233,7.862 -0.196,-2.838 -0.307,-5.593 -0.292,-8.171 0.113,-19.192 18.896,-31.492 18.896,-31.492 0,0 25.516,-18.691 29.331,-21.48 5.025,-3.662 7.511,-4.885 11.593,-2.801 4.084,2.084 4.55,4.815 4.523,11.034 -0.015,4.725 -0.197,36.358 -0.197,36.358 0,0 1.05,22.425 -14.43,33.77 -2.081,1.523 -4.381,3.054 -6.802,4.561 2.643,-1.069 5.234,-2.027 7.692,-2.806 18.285,-5.827 35.786,8.235 35.786,8.235 0,0 25.669,18.49 29.499,21.264 5.034,3.642 6.966,5.632 6.245,10.153"
         style="fill:#7d7e7f;fill-opacity:1;fill-rule:nonzero;stroke:none"
         id="path20908"
         inkscape:connector-curvature="0" /></g><g
       id="g20910"
       transform="translate(275.9468,131.2734)"><path
         d="m 0,0 c -6.065,-0.965 -11.302,0.246 -11.695,2.706 -0.387,2.463 4.211,5.239 10.276,6.2 C 4.649,9.875 9.885,8.668 10.274,6.207 10.668,3.747 6.069,0.967 0,0 m -5.761,-25.337 c -2.219,-1.134 -6.281,2.381 -9.074,7.851 -2.795,5.473 -3.262,10.831 -1.043,11.961 2.217,1.13 6.281,-2.384 9.075,-7.855 2.795,-5.467 3.261,-10.825 1.042,-11.957 m -23.903,10.186 c -4.34,-4.344 -9.289,-6.444 -11.053,-4.681 -1.762,1.759 0.33,6.71 4.669,11.06 4.339,4.346 9.286,6.443 11.05,4.681 1.761,-1.76 -0.327,-6.711 -4.666,-11.06 m -16.617,30.262 c 1.129,2.222 6.482,1.764 11.957,-1.021 5.477,-2.781 9.001,-6.838 7.872,-9.059 -1.131,-2.221 -6.484,-1.763 -11.96,1.016 -5.476,2.786 -8.999,6.844 -7.869,9.064 m 31.513,16.095 c 2.46,-0.39 3.681,-5.624 2.726,-11.69 -0.955,-6.069 -3.724,-10.673 -6.186,-10.287 -2.463,0.387 -3.683,5.624 -2.727,11.688 0.955,6.068 3.725,10.676 6.187,10.289 m 77.7,-16.613 c -0.515,3.23 -2.263,4.149 -6.488,5.504 -3.208,1.028 -24.707,7.876 -24.707,7.876 0,0 -14.977,5.656 -26.084,-2.345 -1.496,-1.081 -3.044,-2.307 -4.603,-3.62 1.31,1.559 2.536,3.111 3.613,4.606 7.98,11.119 2.296,26.093 2.296,26.093 0,0 -6.884,21.481 -7.921,24.693 -1.362,4.221 -2.283,5.969 -5.513,6.473 -3.23,0.512 -4.644,-0.867 -7.236,-4.469 -1.971,-2.731 -15.127,-21.059 -15.127,-21.059 0,0 -10.007,-12.499 -5.829,-25.538 0.563,-1.754 1.252,-3.606 2.02,-5.493 -1.081,1.729 -2.176,3.373 -3.268,4.857 -8.111,11.025 -24.103,10.249 -24.103,10.249 0,0 -22.559,0.09 -25.933,0.096 -4.432,0.012 -6.38,-0.329 -7.861,-3.239 -1.484,-2.914 -0.605,-4.689 2.015,-8.261 1.99,-2.722 15.356,-20.899 15.356,-20.899 0,0 8.799,-13.382 22.482,-13.437 1.84,-0.007 3.811,0.074 5.838,0.223 -1.973,-0.493 -3.87,-1.028 -5.614,-1.605 -12.994,-4.307 -17.197,-19.757 -17.197,-19.757 0,0 -7.055,-21.429 -8.106,-24.635 -1.378,-4.212 -1.66,-6.168 0.652,-8.477 2.315,-2.311 4.269,-2.028 8.483,-0.637 3.203,1.051 24.618,8.148 24.618,8.148 0,0 15.442,4.231 19.724,17.232 0.575,1.745 1.104,3.638 1.593,5.608 -0.139,-2.023 -0.219,-3.987 -0.208,-5.827 0.081,-13.687 13.477,-22.461 13.477,-22.461 0,0 18.198,-13.327 20.919,-15.317 3.584,-2.613 5.357,-3.486 8.269,-1.999 2.911,1.485 3.244,3.433 3.224,7.871 -0.01,3.367 -0.14,25.928 -0.14,25.928 0,0 0.749,15.993 -10.29,24.086 -1.485,1.085 -3.126,2.176 -4.853,3.251 1.886,-0.763 3.734,-1.446 5.487,-2.001 13.041,-4.157 25.523,5.872 25.523,5.872 0,0 18.306,13.189 21.038,15.167 3.591,2.596 4.966,4.018 4.454,7.243"
         style="fill:#7d7e7f;fill-opacity:1;fill-rule:nonzero;stroke:none"
         id="path20912"
         inkscape:connector-curvature="0" /></g></g></svg>