<?xml version="1.0" encoding="utf-8"?>
<!-- Generator: Adobe Illustrator 19.2.1, SVG Export Plug-In . SVG Version: 6.00 Build 0)  -->
<svg version="1.2" baseProfile="tiny" id="Layer_1" xmlns="http://www.w3.org/2000/svg" xmlns:xlink="http://www.w3.org/1999/xlink"
	 x="0px" y="0px" width="146.881px" height="67.68px" viewBox="0 0 146.881 67.68" xml:space="preserve">
<path fill="#1A234D" d="M139.681,64.8h-129.6c-3.976,0-7.2-3.224-7.2-7.2V7.2c0-3.976,3.224-7.2,7.2-7.2h129.6
	c3.976,0,7.2,3.224,7.2,7.2v50.4C146.881,61.576,143.657,64.8,139.681,64.8z M2.881,0 M18.912,61.2c0,1.087,0.881,1.969,1.969,1.969
	s1.969-0.881,1.969-1.969s-0.881-1.969-1.969-1.969S18.912,60.113,18.912,61.2z M26.112,61.2c0,1.087,0.881,1.969,1.969,1.969
	s1.969-0.881,1.969-1.969s-0.881-1.969-1.969-1.969S26.112,60.113,26.112,61.2z M33.312,61.2c0,1.087,0.881,1.969,1.969,1.969
	s1.969-0.881,1.969-1.969s-0.881-1.969-1.969-1.969S33.312,60.113,33.312,61.2z M40.512,61.2c0,1.087,0.881,1.969,1.969,1.969
	s1.969-0.881,1.969-1.969s-0.881-1.969-1.969-1.969S40.512,60.113,40.512,61.2z M47.712,61.2c0,1.087,0.881,1.969,1.969,1.969
	s1.969-0.881,1.969-1.969s-0.881-1.969-1.969-1.969S47.712,60.113,47.712,61.2z M54.912,61.2c0,1.087,0.881,1.969,1.969,1.969
	s1.969-0.881,1.969-1.969s-0.881-1.969-1.969-1.969S54.912,60.113,54.912,61.2z M62.112,61.2c0,1.087,0.881,1.969,1.969,1.969
	c1.087,0,1.969-0.881,1.969-1.969s-0.881-1.969-1.969-1.969C62.993,59.231,62.112,60.113,62.112,61.2z M69.312,61.2
	c0,1.087,0.881,1.969,1.969,1.969s1.969-0.881,1.969-1.969s-0.881-1.969-1.969-1.969S69.312,60.113,69.312,61.2z M76.512,61.2
	c0,1.087,0.881,1.969,1.969,1.969s1.969-0.881,1.969-1.969s-0.881-1.969-1.969-1.969S76.512,60.113,76.512,61.2z M83.712,61.2
	c0,1.087,0.881,1.969,1.969,1.969s1.969-0.881,1.969-1.969s-0.881-1.969-1.969-1.969S83.712,60.113,83.712,61.2z M90.912,61.2
	c0,1.087,0.881,1.969,1.969,1.969s1.969-0.881,1.969-1.969s-0.881-1.969-1.969-1.969S90.912,60.113,90.912,61.2z M98.112,61.2
	c0,1.087,0.881,1.969,1.969,1.969s1.969-0.881,1.969-1.969s-0.881-1.969-1.969-1.969S98.112,60.113,98.112,61.2z M105.312,61.2
	c0,1.087,0.881,1.969,1.969,1.969s1.969-0.881,1.969-1.969s-0.881-1.969-1.969-1.969S105.312,60.113,105.312,61.2z M112.512,61.2
	c0,1.087,0.881,1.969,1.969,1.969s1.969-0.881,1.969-1.969s-0.881-1.969-1.969-1.969S112.512,60.113,112.512,61.2z M119.712,61.2
	c0,1.087,0.881,1.969,1.969,1.969s1.969-0.881,1.969-1.969s-0.881-1.969-1.969-1.969S119.712,60.113,119.712,61.2z M126.912,61.2
	c0,1.087,0.881,1.969,1.969,1.969c1.087,0,1.969-0.881,1.969-1.969s-0.881-1.969-1.969-1.969
	C127.793,59.231,126.912,60.113,126.912,61.2z M126.912,3.6c0,1.087,0.881,1.969,1.969,1.969c1.087,0,1.969-0.881,1.969-1.969
	s-0.881-1.969-1.969-1.969C127.793,1.631,126.912,2.513,126.912,3.6z M119.712,3.6c0,1.087,0.881,1.969,1.969,1.969
	s1.969-0.881,1.969-1.969s-0.881-1.969-1.969-1.969S119.712,2.513,119.712,3.6z M112.512,3.6c0,1.087,0.881,1.969,1.969,1.969
	s1.969-0.881,1.969-1.969s-0.881-1.969-1.969-1.969S112.512,2.513,112.512,3.6z M105.312,3.6c0,1.087,0.881,1.969,1.969,1.969
	s1.969-0.881,1.969-1.969s-0.881-1.969-1.969-1.969S105.312,2.513,105.312,3.6z M98.112,3.6c0,1.087,0.881,1.969,1.969,1.969
	s1.969-0.881,1.969-1.969s-0.881-1.969-1.969-1.969S98.112,2.513,98.112,3.6z M90.912,3.6c0,1.087,0.881,1.969,1.969,1.969
	s1.969-0.881,1.969-1.969s-0.881-1.969-1.969-1.969S90.912,2.513,90.912,3.6z M83.712,3.6c0,1.087,0.881,1.969,1.969,1.969
	s1.969-0.881,1.969-1.969s-0.881-1.969-1.969-1.969S83.712,2.513,83.712,3.6z M76.512,3.6c0,1.087,0.881,1.969,1.969,1.969
	s1.969-0.881,1.969-1.969s-0.881-1.969-1.969-1.969S76.512,2.513,76.512,3.6z M69.312,3.6c0,1.087,0.881,1.969,1.969,1.969
	s1.969-0.881,1.969-1.969s-0.881-1.969-1.969-1.969S69.312,2.513,69.312,3.6z M62.112,3.6c0,1.087,0.881,1.969,1.969,1.969
	c1.087,0,1.969-0.881,1.969-1.969s-0.881-1.969-1.969-1.969C62.993,1.631,62.112,2.513,62.112,3.6z M54.912,3.6
	c0,1.087,0.881,1.969,1.969,1.969s1.969-0.881,1.969-1.969s-0.881-1.969-1.969-1.969S54.912,2.513,54.912,3.6z M47.712,3.6
	c0,1.087,0.881,1.969,1.969,1.969s1.969-0.881,1.969-1.969s-0.881-1.969-1.969-1.969S47.712,2.513,47.712,3.6z M5.609,7.2
	c0,2.47,2.002,4.472,4.472,4.472S14.552,9.67,14.552,7.2s-2.002-4.472-4.472-4.472S5.609,4.73,5.609,7.2z M5.609,57.6
	c0,2.47,2.002,4.472,4.472,4.472s4.472-2.002,4.472-4.472s-2.002-4.472-4.472-4.472S5.609,55.13,5.609,57.6z"/>
</svg>
