<?xml version="1.0" encoding="utf-8"?>
<!-- Generator: Adobe Illustrator 27.2.0, SVG Export Plug-In . SVG Version: 6.00 Build 0)  -->
<svg version="1.2" baseProfile="tiny"
	 id="svg" xmlns:rdf="http://www.w3.org/1999/02/22-rdf-syntax-ns#" xmlns:cc="http://creativecommons.org/ns#" xmlns:dc="http://purl.org/dc/elements/1.1/" xmlns:sodipodi="http://sodipodi.sourceforge.net/DTD/sodipodi-0.dtd" xmlns:inkscape="http://www.inkscape.org/namespaces/inkscape" xmlns:svg="http://www.w3.org/2000/svg" inkscape:version="1.0 (4035a4fb49, 2020-05-01)" sodipodi:docname="1.14in_TFT.svg"
	 xmlns="http://www.w3.org/2000/svg" xmlns:xlink="http://www.w3.org/1999/xlink" x="0px" y="0px" width="49.6558px"
	 height="88.9003px" viewBox="0 0 49.6558 88.9003" overflow="visible" xml:space="preserve">
<g id="tft_1.14in_240x135_wrapunder" transform="matrix(1, 0, 0, 1, 41.8791, -11.885)">
	<g transform="matrix(0, 1, -1, 0, 69.4729, 19.8171)">
		
			<sodipodi:namedview  bordercolor="#666666" borderopacity="1" fit-margin-bottom="0" fit-margin-left="0" fit-margin-right="0" fit-margin-top="0" gridtolerance="10" guidetolerance="10" id="namedview151" inkscape:current-layer="svg" inkscape:cx="13.902063" inkscape:cy="86.264962" inkscape:document-rotation="0" inkscape:document-units="mm" inkscape:pageopacity="0" inkscape:pageshadow="2" inkscape:window-height="790" inkscape:window-maximized="0" inkscape:window-width="1477" inkscape:window-x="406" inkscape:zoom="4" objecttolerance="10" pagecolor="#ffffff" showgrid="false" units="mm" window-y="173" xmlns:inkscape="http://www.inkscape.org/namespaces/inkscape" xmlns:sodipodi="http://sodipodi.sourceforge.net/DTD/sodipodi-0.dtd">
			</sodipodi:namedview>
		<g>
			
				<rect x="10.9487" y="42.8154" transform="matrix(2.535182e-06 1 -1 2.535182e-06 122.3007 50.7472)" width="49.6558" height="87.4175"/>
			
				<rect x="8.7029" y="47.9846" transform="matrix(2.535182e-06 1 -1 2.535182e-06 118.4302 54.543)" fill="#333333" width="46.4811" height="77.0044"/>
			
				<rect x="51.26" y="83.1271" transform="matrix(2.535182e-06 1 -1 2.535182e-06 162.6118 10.436)" fill="#002F50" width="49.6558" height="6.7939"/>
			
				<rect x="71.538" y="85.7826" transform="matrix(2.535182e-06 1 -1 2.535182e-06 166.7506 6.297)" fill="#E6AA50" width="17.3775" height="1.4828"/>
			
				<rect x="78.6504" y="99.7207" transform="matrix(2.535182e-06 1 -1 2.535182e-06 180.6887 20.2351)" fill="#E6AA50" width="3.1528" height="1.4828"/>
			
				<rect x="59.1886" y="86.2315" transform="matrix(2.535182e-06 1 -1 2.535182e-06 165.7953 8.5158)" fill="#E6AA50" width="38.9022" height="1.8486"/>
		</g>
	</g>
</g>
</svg>
