<?xml version="1.0" encoding="utf-8"?>
<!-- Generator: Adobe Illustrator 20.0.0, SVG Export Plug-In . SVG Version: 6.00 Build 0)  -->
<svg version="1.2" baseProfile="tiny" id="Layer_1" xmlns="http://www.w3.org/2000/svg" xmlns:xlink="http://www.w3.org/1999/xlink"
	 x="0px" y="0px" width="57.6px" height="12.898px" viewBox="0 0 57.6 12.898" xml:space="preserve">
<g>
	<rect x="2.58" y="7.795" fill="#DCDCDC" width="2.041" height="5.104"/>
	<rect x="9.78" fill="#DCDCDC" width="2.041" height="5.104"/>
	<rect x="16.98" y="7.795" fill="#DCDCDC" width="2.041" height="5.104"/>
	<rect x="24.18" fill="#DCDCDC" width="2.041" height="5.104"/>
	<rect x="31.38" y="7.795" fill="#DCDCDC" width="2.041" height="5.104"/>
	<rect x="38.579" fill="#DCDCDC" width="2.041" height="5.104"/>
	<rect x="45.779" y="7.795" fill="#DCDCDC" width="2.041" height="5.104"/>
	<rect x="52.979" fill="#DCDCDC" width="2.041" height="5.104"/>
	<rect y="2.849" fill="#404040" width="57.6" height="7.199"/>
	<rect x="2.21" y="5.058" width="2.781" height="2.782"/>
	<polygon fill="#2A2A29" points="1.185,4.033 2.208,5.058 4.992,5.058 6.016,4.033 	"/>
	<polygon fill="#474747" points="6.016,4.033 4.992,5.061 4.992,7.842 6.016,8.865 	"/>
	<polygon fill="#595959" points="6.016,8.865 4.991,7.842 2.208,7.842 1.185,8.865 	"/>
	<polygon fill="#373737" points="1.183,8.865 2.208,7.84 2.208,5.058 1.183,4.033 	"/>
	<rect x="9.41" y="5.058" width="2.781" height="2.782"/>
	<polygon fill="#2A2A29" points="8.385,4.033 9.408,5.058 12.192,5.058 13.216,4.033 	"/>
	<polygon fill="#474747" points="13.216,4.033 12.192,5.061 12.192,7.842 13.216,8.865 	"/>
	<polygon fill="#595959" points="13.216,8.865 12.191,7.842 9.408,7.842 8.385,8.865 	"/>
	<polygon fill="#373737" points="8.383,8.865 9.408,7.84 9.408,5.058 8.383,4.033 	"/>
	<rect x="16.61" y="5.058" width="2.781" height="2.782"/>
	<polygon fill="#2A2A29" points="15.585,4.033 16.608,5.058 19.392,5.058 20.416,4.033 	"/>
	<polygon fill="#474747" points="20.416,4.033 19.392,5.061 19.392,7.842 20.416,8.865 	"/>
	<polygon fill="#595959" points="20.416,8.865 19.391,7.842 16.608,7.842 15.585,8.865 	"/>
	<polygon fill="#373737" points="15.583,8.865 16.608,7.84 16.608,5.058 15.583,4.033 	"/>
	<rect x="23.81" y="5.058" width="2.781" height="2.782"/>
	<polygon fill="#2A2A29" points="22.785,4.033 23.808,5.058 26.592,5.058 27.616,4.033 	"/>
	<polygon fill="#474747" points="27.616,4.033 26.592,5.061 26.592,7.842 27.616,8.865 	"/>
	<polygon fill="#595959" points="27.616,8.865 26.591,7.842 23.808,7.842 22.785,8.865 	"/>
	<polygon fill="#373737" points="22.783,8.865 23.808,7.84 23.808,5.058 22.783,4.033 	"/>
	<rect x="31.01" y="5.058" width="2.781" height="2.782"/>
	<polygon fill="#2A2A29" points="29.985,4.033 31.008,5.058 33.792,5.058 34.816,4.033 	"/>
	<polygon fill="#474747" points="34.816,4.033 33.792,5.061 33.792,7.842 34.816,8.865 	"/>
	<polygon fill="#595959" points="34.816,8.865 33.791,7.842 31.008,7.842 29.985,8.865 	"/>
	<polygon fill="#373737" points="29.983,8.865 31.008,7.84 31.008,5.058 29.983,4.033 	"/>
	<rect x="38.21" y="5.058" width="2.781" height="2.782"/>
	<polygon fill="#2A2A29" points="37.185,4.033 38.208,5.058 40.992,5.058 42.016,4.033 	"/>
	<polygon fill="#474747" points="42.016,4.033 40.992,5.061 40.992,7.842 42.016,8.865 	"/>
	<polygon fill="#595959" points="42.016,8.865 40.991,7.842 38.208,7.842 37.185,8.865 	"/>
	<polygon fill="#373737" points="37.183,8.865 38.208,7.84 38.208,5.058 37.183,4.033 	"/>
	<rect x="45.41" y="5.058" width="2.781" height="2.782"/>
	<polygon fill="#2A2A29" points="44.385,4.033 45.408,5.058 48.192,5.058 49.216,4.033 	"/>
	<polygon fill="#474747" points="49.216,4.033 48.192,5.061 48.192,7.842 49.216,8.865 	"/>
	<polygon fill="#595959" points="49.216,8.865 48.191,7.842 45.408,7.842 44.385,8.865 	"/>
	<polygon fill="#373737" points="44.383,8.865 45.408,7.84 45.408,5.058 44.383,4.033 	"/>
	<rect x="52.61" y="5.058" width="2.781" height="2.782"/>
	<polygon fill="#2A2A29" points="51.585,4.033 52.608,5.058 55.392,5.058 56.416,4.033 	"/>
	<polygon fill="#474747" points="56.416,4.033 55.392,5.061 55.392,7.842 56.416,8.865 	"/>
	<polygon fill="#595959" points="56.416,8.865 55.391,7.842 52.608,7.842 51.585,8.865 	"/>
	<polygon fill="#373737" points="51.583,8.865 52.608,7.84 52.608,5.058 51.583,4.033 	"/>
</g>
</svg>
