<?xml version="1.0" encoding="utf-8"?>
<!-- Generator: Adobe Illustrator 20.0.0, SVG Export Plug-In . SVG Version: 6.00 Build 0)  -->
<svg version="1.2" baseProfile="tiny" id="Layer_1" xmlns="http://www.w3.org/2000/svg" xmlns:xlink="http://www.w3.org/1999/xlink"
	 x="0px" y="0px" width="21.313px" height="20.692px" viewBox="0 0 21.313 20.692" xml:space="preserve">
<g>
	<rect x="2.618" fill="#DCDCDC" width="1.983" height="20.692"/>
	<rect x="9.818" fill="#DCDCDC" width="1.983" height="20.692"/>
	<rect x="17.018" fill="#DCDCDC" width="1.983" height="20.692"/>
	<polygon fill="#404040" points="21.313,15.949 21.313,12.017 21.313,8.677 21.313,4.743 19.802,3.232 15.871,3.232 14.361,4.743 
		14.361,8.677 14.361,12.017 14.361,15.949 15.871,17.461 19.802,17.461 	"/>
	<polygon fill="#404040" points="14.131,15.949 14.131,12.017 14.131,8.677 14.131,4.743 12.622,3.232 8.69,3.232 7.177,4.743 
		7.177,8.677 7.177,12.017 7.177,15.949 8.69,17.461 12.622,17.461 	"/>
	<polygon fill="#404040" points="6.954,15.949 6.954,12.017 6.954,8.677 6.954,4.743 5.442,3.232 1.509,3.232 0,4.743 0,8.677 
		0,12.017 0,15.949 1.509,17.461 5.442,17.461 	"/>
	<polygon fill="#404040" points="21.313,15.949 21.313,12.017 21.313,8.677 21.313,4.743 19.802,3.232 15.871,3.232 14.361,4.743 
		14.361,8.677 14.361,12.017 14.361,15.949 15.871,17.461 19.802,17.461 	"/>
	<polygon fill="#404040" points="14.131,15.949 14.131,12.017 14.131,8.677 14.131,4.743 12.622,3.232 8.69,3.232 7.177,4.743 
		7.177,8.677 7.177,12.017 7.177,15.949 8.69,17.461 12.622,17.461 	"/>
	<polygon fill="#404040" points="6.954,15.949 6.954,12.017 6.954,8.677 6.954,4.743 5.442,3.232 1.509,3.232 0,4.743 0,8.677 
		0,12.017 0,15.949 1.509,17.461 5.442,17.461 	"/>
	<rect x="2.461" y="5.641" fill="#8D8C8C" width="2.299" height="2.298"/>
	<rect x="2.461" y="12.84" fill="#8D8C8C" width="2.299" height="2.298"/>
	<rect x="9.66" y="5.641" fill="#8D8C8C" width="2.298" height="2.298"/>
	<rect x="9.66" y="12.84" fill="#8D8C8C" width="2.298" height="2.298"/>
	<rect x="16.858" y="5.641" fill="#8D8C8C" width="2.298" height="2.298"/>
	<rect x="16.858" y="12.84" fill="#8D8455" width="2.298" height="2.298"/>
	<rect x="17.416" y="13.399" fill="#8C8663" width="1.183" height="1.184"/>
	<polygon fill="#B8AF82" points="19.156,12.84 18.597,13.399 18.597,14.58 19.156,15.138 	"/>
	<polygon fill="#80795B" points="17.416,14.58 18.597,14.58 19.156,15.138 16.858,15.138 	"/>
	<polygon fill="#5E5B43" points="17.416,13.399 17.416,14.58 16.858,15.138 16.858,12.84 	"/>
	<polygon fill="#9A916C" points="19.156,12.84 18.597,13.399 17.416,13.399 16.858,12.84 	"/>
	<rect x="17.416" y="6.199" fill="#8C8663" width="1.183" height="1.182"/>
	<polygon fill="#B8AF82" points="19.156,5.641 18.597,6.199 18.597,7.38 19.156,7.938 	"/>
	<polygon fill="#80795B" points="17.416,7.38 18.597,7.38 19.156,7.938 16.858,7.938 	"/>
	<polygon fill="#5E5B43" points="17.416,6.199 17.416,7.38 16.858,7.938 16.858,5.641 	"/>
	<polygon fill="#9A916C" points="19.156,5.641 18.597,6.199 17.416,6.199 16.858,5.641 	"/>
	<rect x="10.217" y="13.399" fill="#8C8663" width="1.184" height="1.184"/>
	<polygon fill="#B8AF82" points="11.957,12.84 11.4,13.399 11.4,14.58 11.957,15.138 	"/>
	<polygon fill="#80795B" points="10.217,14.58 11.4,14.58 11.957,15.138 9.66,15.138 	"/>
	<polygon fill="#5E5B43" points="10.217,13.399 10.217,14.58 9.66,15.138 9.66,12.84 	"/>
	<polygon fill="#9A916C" points="11.957,12.84 11.4,13.399 10.217,13.399 9.66,12.84 	"/>
	<rect x="10.217" y="6.199" fill="#8C8663" width="1.184" height="1.182"/>
	<polygon fill="#B8AF82" points="11.957,5.641 11.4,6.199 11.4,7.38 11.957,7.938 	"/>
	<polygon fill="#80795B" points="10.217,7.38 11.4,7.38 11.957,7.938 9.66,7.938 	"/>
	<polygon fill="#5E5B43" points="10.217,6.199 10.217,7.38 9.66,7.938 9.66,5.641 	"/>
	<polygon fill="#9A916C" points="11.957,5.641 11.4,6.199 10.217,6.199 9.66,5.641 	"/>
	<rect x="3.016" y="13.399" fill="#8C8663" width="1.185" height="1.184"/>
	<polygon fill="#B8AF82" points="4.759,12.84 4.2,13.399 4.2,14.58 4.759,15.138 	"/>
	<polygon fill="#80795B" points="3.016,14.58 4.2,14.58 4.759,15.138 2.461,15.138 	"/>
	<polygon fill="#5E5B43" points="3.016,13.399 3.016,14.58 2.461,15.138 2.461,12.84 	"/>
	<polygon fill="#9A916C" points="4.759,12.84 4.2,13.399 3.016,13.399 2.461,12.84 	"/>
	<rect x="3.016" y="6.199" fill="#8C8663" width="1.185" height="1.182"/>
	<polygon fill="#B8AF82" points="4.759,5.641 4.2,6.199 4.2,7.38 4.759,7.938 	"/>
	<polygon fill="#80795B" points="3.016,7.38 4.2,7.38 4.759,7.938 2.461,7.938 	"/>
	<polygon fill="#5E5B43" points="3.016,6.199 3.016,7.38 2.461,7.938 2.461,5.641 	"/>
	<polygon fill="#9A916C" points="4.759,5.641 4.2,6.199 3.016,6.199 2.461,5.641 	"/>
</g>
</svg>
