<?xml version="1.0" encoding="utf-8"?>
<!-- Generator: Adobe Illustrator 20.0.0, SVG Export Plug-In . SVG Version: 6.00 Build 0)  -->
<svg version="1.2" baseProfile="tiny" id="Layer_1" xmlns="http://www.w3.org/2000/svg" xmlns:xlink="http://www.w3.org/1999/xlink"
	 x="0px" y="0px" width="21.313px" height="20.692px" viewBox="0 0 21.313 20.692" xml:space="preserve">
<g>
	<g>
		<rect x="2.465" fill="#DCDCDC" width="1.983" height="20.692"/>
		<rect x="9.665" fill="#DCDCDC" width="1.983" height="20.692"/>
		<rect x="16.865" fill="#DCDCDC" width="1.983" height="20.692"/>
	</g>
	<g>
		<polygon fill="#404040" points="21.313,15.949 21.313,12.017 21.313,8.677 21.313,4.743 19.802,3.232 15.871,3.232 14.361,4.743 
			14.361,8.677 14.361,12.017 14.361,15.949 15.871,17.461 19.802,17.461 		"/>
		<polygon fill="#404040" points="14.131,15.949 14.131,12.017 14.131,8.677 14.131,4.743 12.622,3.232 8.69,3.232 7.177,4.743 
			7.177,8.677 7.177,12.017 7.177,15.949 8.69,17.461 12.622,17.461 		"/>
		<polygon fill="#404040" points="6.954,15.949 6.954,12.017 6.954,8.677 6.954,4.743 5.442,3.232 1.509,3.232 0,4.743 0,8.677 
			0,12.017 0,15.949 1.509,17.461 5.442,17.461 		"/>
	</g>
	<g>
		<rect x="2.309" y="5.598" fill="#8D8C8C" width="2.299" height="2.298"/>
		<rect x="2.309" y="12.797" fill="#8D8C8C" width="2.299" height="2.298"/>
		<rect x="9.508" y="5.598" fill="#8D8C8C" width="2.298" height="2.298"/>
		<rect x="9.508" y="12.797" fill="#8D8C8C" width="2.298" height="2.298"/>
		<rect x="16.706" y="5.598" fill="#8D8C8C" width="2.298" height="2.298"/>
		<rect x="16.706" y="12.797" fill="#8D8455" width="2.298" height="2.298"/>
		<rect x="17.264" y="13.356" fill="#8C8663" width="1.183" height="1.184"/>
		<polygon fill="#B8AF82" points="19.004,12.797 18.445,13.356 18.445,14.537 19.004,15.095 		"/>
		<polygon fill="#80795B" points="17.264,14.537 18.445,14.537 19.004,15.095 16.706,15.095 		"/>
		<polygon fill="#5E5B43" points="17.264,13.356 17.264,14.537 16.706,15.095 16.706,12.797 		"/>
		<polygon fill="#9A916C" points="19.004,12.797 18.445,13.356 17.264,13.356 16.706,12.797 		"/>
		<rect x="17.264" y="6.156" fill="#8C8663" width="1.183" height="1.182"/>
		<polygon fill="#B8AF82" points="19.004,5.598 18.445,6.156 18.445,7.337 19.004,7.895 		"/>
		<polygon fill="#80795B" points="17.264,7.337 18.445,7.337 19.004,7.895 16.706,7.895 		"/>
		<polygon fill="#5E5B43" points="17.264,6.156 17.264,7.337 16.706,7.895 16.706,5.598 		"/>
		<polygon fill="#9A916C" points="19.004,5.598 18.445,6.156 17.264,6.156 16.706,5.598 		"/>
		<rect x="10.065" y="13.356" fill="#8C8663" width="1.184" height="1.184"/>
		<polygon fill="#B8AF82" points="11.805,12.797 11.248,13.356 11.248,14.537 11.805,15.095 		"/>
		<polygon fill="#80795B" points="10.065,14.537 11.248,14.537 11.805,15.095 9.508,15.095 		"/>
		<polygon fill="#5E5B43" points="10.065,13.356 10.065,14.537 9.508,15.095 9.508,12.797 		"/>
		<polygon fill="#9A916C" points="11.805,12.797 11.248,13.356 10.065,13.356 9.508,12.797 		"/>
		<rect x="10.065" y="6.156" fill="#8C8663" width="1.184" height="1.182"/>
		<polygon fill="#B8AF82" points="11.805,5.598 11.248,6.156 11.248,7.337 11.805,7.895 		"/>
		<polygon fill="#80795B" points="10.065,7.337 11.248,7.337 11.805,7.895 9.508,7.895 		"/>
		<polygon fill="#5E5B43" points="10.065,6.156 10.065,7.337 9.508,7.895 9.508,5.598 		"/>
		<polygon fill="#9A916C" points="11.805,5.598 11.248,6.156 10.065,6.156 9.508,5.598 		"/>
		<rect x="2.864" y="13.356" fill="#8C8663" width="1.185" height="1.184"/>
		<polygon fill="#B8AF82" points="4.607,12.797 4.048,13.356 4.048,14.537 4.607,15.095 		"/>
		<polygon fill="#80795B" points="2.864,14.537 4.048,14.537 4.607,15.095 2.309,15.095 		"/>
		<polygon fill="#5E5B43" points="2.864,13.356 2.864,14.537 2.309,15.095 2.309,12.797 		"/>
		<polygon fill="#9A916C" points="4.607,12.797 4.048,13.356 2.864,13.356 2.309,12.797 		"/>
		<rect x="2.864" y="6.156" fill="#8C8663" width="1.185" height="1.182"/>
		<polygon fill="#B8AF82" points="4.607,5.598 4.048,6.156 4.048,7.337 4.607,7.895 		"/>
		<polygon fill="#80795B" points="2.864,7.337 4.048,7.337 4.607,7.895 2.309,7.895 		"/>
		<polygon fill="#5E5B43" points="2.864,6.156 2.864,7.337 2.309,7.895 2.309,5.598 		"/>
		<polygon fill="#9A916C" points="4.607,5.598 4.048,6.156 2.864,6.156 2.309,5.598 		"/>
	</g>
</g>
</svg>
