<?xml version="1.0" encoding="UTF-8" standalone="no"?>
<!-- Generator: Adobe Illustrator 20.0.0, SVG Export Plug-In . SVG Version: 6.00 Build 0)  -->

<svg
   xmlns:dc="http://purl.org/dc/elements/1.1/"
   xmlns:cc="http://creativecommons.org/ns#"
   xmlns:rdf="http://www.w3.org/1999/02/22-rdf-syntax-ns#"
   xmlns:svg="http://www.w3.org/2000/svg"
   xmlns="http://www.w3.org/2000/svg"
   xmlns:sodipodi="http://sodipodi.sourceforge.net/DTD/sodipodi-0.dtd"
   xmlns:inkscape="http://www.inkscape.org/namespaces/inkscape"
   version="1.2"
   id="Layer_1"
   x="0px"
   y="0px"
   width="12.5mm"
   height="6mm"
   viewBox="0 0 44.291341 21.259844"
   xml:space="preserve"
   inkscape:version="0.91 r13725"
   sodipodi:docname="2x05_1.27mm.svg"><metadata
     id="metadata99"><rdf:RDF><cc:Work
         rdf:about=""><dc:format>image/svg+xml</dc:format><dc:type
           rdf:resource="http://purl.org/dc/dcmitype/StillImage" /><dc:title /></cc:Work></rdf:RDF></metadata><defs
     id="defs97"><pattern
       y="0"
       x="0"
       height="6"
       width="6"
       patternUnits="userSpaceOnUse"
       id="EMFhbasepattern" /><pattern
       y="0"
       x="0"
       height="6"
       width="6"
       patternUnits="userSpaceOnUse"
       id="EMFhbasepattern-2" /></defs><sodipodi:namedview
     pagecolor="#ffffff"
     bordercolor="#666666"
     borderopacity="1"
     objecttolerance="10"
     gridtolerance="10"
     guidetolerance="10"
     inkscape:pageopacity="0"
     inkscape:pageshadow="2"
     inkscape:window-width="1448"
     inkscape:window-height="856"
     id="namedview95"
     showgrid="false"
     units="mm"
     inkscape:document-units="mm"
     inkscape:zoom="4.1942754"
     inkscape:cx="17.240508"
     inkscape:cy="-22.946689"
     inkscape:window-x="295"
     inkscape:window-y="164"
     inkscape:window-maximized="0"
     inkscape:current-layer="Layer_1"
     fit-margin-top="0"
     fit-margin-left="0"
     fit-margin-right="0"
     fit-margin-bottom="0"
     showguides="true"
     inkscape:guide-bbox="true" /><g
     id="g8302"
     transform="matrix(-1,0,0,-1,44.291343,21.259839)"><rect
       y="-1.8648891e-006"
       x="30.181894"
       height="21.259842"
       width="1.7716535"
       id="rect21733"
       style="fill:#cccccc;stroke:#cccccc;stroke-width:0;stroke-miterlimit:4;stroke-dasharray:none;stroke-dashoffset:11.71939468;stroke-opacity:1" /><rect
       style="fill:#cccccc;stroke:#cccccc;stroke-width:0;stroke-miterlimit:4;stroke-dasharray:none;stroke-dashoffset:11.71939468;stroke-opacity:1"
       id="rect21731"
       width="1.7716535"
       height="21.259842"
       x="25.681894"
       y="-1.8648891e-006" /><rect
       y="-1.8648891e-006"
       x="21.181894"
       height="21.259842"
       width="1.7716535"
       id="rect21729"
       style="fill:#cccccc;stroke:#cccccc;stroke-width:0;stroke-miterlimit:4;stroke-dasharray:none;stroke-dashoffset:11.71939468;stroke-opacity:1" /><rect
       style="fill:#cccccc;stroke:#cccccc;stroke-width:0;stroke-miterlimit:4;stroke-dasharray:none;stroke-dashoffset:11.71939468;stroke-opacity:1"
       id="rect21727"
       width="1.7716535"
       height="21.259842"
       x="16.681894"
       y="-1.8648891e-006" /><rect
       y="-1.8648891e-006"
       x="12.18052"
       height="21.259842"
       width="1.7716535"
       id="rect21725"
       style="fill:#cccccc;stroke:#cccccc;stroke-width:0;stroke-miterlimit:4;stroke-dasharray:none;stroke-dashoffset:11.71939468;stroke-opacity:1" /><path
       style="fill:#014cb1;fill-opacity:1;fill-rule:nonzero;stroke:none"
       d="m 0.2617022,19.488189 2.9440306,0 c 0.1962704,0 0.2617042,-0.115686 0.2617042,-0.231401 l 0,-1.966745 c 0,-0.115687 -0.065434,-0.173543 -0.2617042,-0.173543 l -2.9440306,0 c -0.1308366,0 -0.2617041024545,0.05786 -0.2617041024545,0.173543 l 0,1.966748 c 0,0.115687 0.1308365924545,0.2314 0.2617041024545,0.2314 m 1.3738833,-0.867716 c 0,-0.115686 0.1962703,-0.115686 0.1962703,0 0,0.115686 -0.1962703,0.115686 -0.1962703,0 z m 0,-0.694097 c 0,-0.115686 0.1962703,-0.115686 0.1962703,0 0,0.115687 -0.1962703,0.115687 -0.1962703,0 z m 1.5047229,1.214725 c 0,-0.115687 0.1962703,-0.115687 0.1962703,0 0,0.115685 -0.1962703,0.115685 -0.1962703,0 z m 0,-0.404933 c 0,-0.115687 0.1962703,-0.115687 0.1962703,0 0,0.115686 -0.1962703,0.115686 -0.1962703,0 z m 0,-0.462784 c 0,-0.115686 0.1962703,-0.115686 0.1962703,0 0,0.115686 -0.1962703,0.115686 -0.1962703,0 z m 0,-0.404856 c 0,-0.115687 0.1962703,-0.115687 0.1962703,0 0,0.115686 -0.1962703,0.115686 -0.1962703,0 z m 0,-0.462782 c 0,-0.115686 0.1962703,-0.115686 0.1962703,0 0,0.115687 -0.1962703,0.115687 -0.1962703,0 z m -3.00945207,1.735355 c 0,-0.115687 0.19627035,-0.115687 0.19627035,0 0,0.115685 -0.19627035,0.115685 -0.19627035,0 z m 0,-0.404933 c 0,-0.115687 0.19627035,-0.115687 0.19627035,0 0,0.115686 -0.19627035,0.115686 -0.19627035,0 z m 0,-0.462784 c 0,-0.115686 0.19627035,-0.115686 0.19627035,0 0,0.115686 -0.19627035,0.115686 -0.19627035,0 z m 0,-0.404856 c 0,-0.115687 0.19627035,-0.115687 0.19627035,0 0,0.115686 -0.19627035,0.115686 -0.19627035,0 z m 0,-0.462782 c 0,-0.115686 0.19627035,-0.115686 0.19627035,0 0,0.115687 -0.19627035,0.115687 -0.19627035,0 z"
       id="path8409"
       inkscape:connector-curvature="0" /><path
       style="fill:#ffffff;fill-opacity:1;fill-rule:nonzero;stroke:none"
       d="m 0.52339396,18.678321 0,0.05786 c 0,0 0,0 0,0 l 0.0654338,0.05786 c 0,0 0,0 0,0 l 0.0654338,0 c 0,0 0,0 0,0 0,0 0,0 0,0 0,0 0,0 0,-0.05786 0,0 0,0 0,0 l -0.0654338,0 c 0,0 0,0 0,0 l -0.0654338,0 c 0,0 0,0 0,0 l 0,-0.05786 c 0,0 0,-0.05786 0,-0.05786 0,0 0,0 0.0654338,0 l 0,0 c 0,0 0,0 0,0 0,0 0,0.05786 0,0.05786 l 0,0 0,0 c 0,0 0,0 0,0 0,0 0,0 0,0 0,0 0,0 0,0 0,0 0,0 0,0 l 0.0654338,0 0,0 c 0,-0.05786 0,-0.05786 0,-0.05786 -0.0654338,0 -0.0654338,0 -0.0654338,0 l 0,0 c -0.0654338,0 -0.0654338,0 -0.0654338,0 0,0 0,0 0,0.05786 z"
       id="path8411"
       inkscape:connector-curvature="0" /><path
       style="fill:#ffffff;fill-opacity:1;fill-rule:nonzero;stroke:none"
       d="m 0.71966122,18.620473 0,0.173543 0,0 0.0654338,-0.115686 0,0.115686 c 0,0 0,0 0,0 0,0 0,0 0,0 0,0 0,0 0,0 0,0 0,0 0,0 l 0,-0.173543 0,0 -0.0654338,0.115686 0,-0.115686 c 0,0 0,0 0,0 0,0 0,0 0,0 0,0 0,0 0,0 0,0 0,0 0,0 z"
       id="path8413"
       inkscape:connector-curvature="0" /><path
       style="fill:#ffffff;fill-opacity:1;fill-rule:nonzero;stroke:none"
       d="m 0.85050707,18.620473 c 0,0 0,0 0,0 0,0 0,0 0,0 l 0,0 0,0.115686 0,0 c 0,0 0,0 0,0 0,0.05786 0,0.05786 0,0.05786 0,0 0,0 0,0 0,0 0,0 0,0 l 0.0654335,0 c 0,0 0,0 0,0 0,0 0,0 0,0 l 0.0654336,-0.05786 c 0,0 0,0 0,-0.05786 0,0 0,0 0,0 l -0.0654336,-0.05786 c 0,0 0,0 0,0 0,0 0,0 0,0 l -0.0654335,0 c 0,0 0,0 0,0 0,0 0,0 0,0 z m 0.0654335,0 0,0 c 0,0 0,0 0,0 l 0,0.05786 c 0,0 0,0 0,0 0,0 0,0.05786 0,0.05786 l 0,0 c 0,0 0,0 0,0 l 0,0 0,-0.115686 z"
       id="path8415"
       inkscape:connector-curvature="0" /><path
       style="fill:#ffffff;fill-opacity:1;fill-rule:nonzero;stroke:none"
       d="m 0.52339396,18.21554 0,0.05786 c 0,0 0,0 0,0 l 0.0654338,0.05786 c 0,0 0,0 0,0 l 0.0654338,0 c 0,0 0,0 0,0 0,0 0,0 0,0 0,0 0,0 0,0 0,0 0,0 0,0 l -0.0654338,0 c 0,0 0,0 0,0 L 0.52339396,18.2734 c 0,0 0,0 0,0 l 0,-0.05786 c 0,0 0,0 0,0 0,0 0,0 0.0654338,0 l 0,0 c 0,0 0,0 0,0 0,0 0,0 0,0 l 0,0 0,0 c 0,0 0,0 0,0 0,0 0,0 0,0.05786 0,0 0,0 0,0 0,0 0,0 0,0 l 0.0654338,0 0,-0.05786 c 0,0 0,0 0,0 -0.0654338,-0.05786 -0.0654338,-0.05786 -0.0654338,-0.05786 l 0,0 c -0.0654338,0 -0.0654338,0 -0.0654338,0.05786 0,0 0,0 0,0 z"
       id="path8417"
       inkscape:connector-curvature="0" /><path
       style="fill:#ffffff;fill-opacity:1;fill-rule:nonzero;stroke:none"
       d="m 0.71966122,18.21554 0,0.115686 0,0 0.0654338,-0.115686 0,0.115686 c 0,0 0,0 0,0 0,0 0,0 0,0 0,0 0,0 0,0 0,0 0,0 0,0 l 0,-0.173543 0,0 -0.0654338,0.173543 0,-0.115686 c 0,0 0,0 0,-0.05786 0,0 0,0 0,0 0,0 0,0 0,0 0,0.05786 0,0.05786 0,0.05786 z"
       id="path8419"
       inkscape:connector-curvature="0" /><path
       style="fill:#ffffff;fill-opacity:1;fill-rule:nonzero;stroke:none"
       d="m 0.85050707,18.21554 c 0,0 0,0 0,0 0,0 0,0 0,0 l 0,0 0,0.115686 0,0 c 0,0 0,0 0,0 0,0 0,0 0,0 0,0 0,0 0,0 0,0 0,0 0,0 l 0.0654335,0 c 0,0 0,0 0,0 0,0 0,0 0,0 l 0.0654336,-0.05786 c 0,0 0,0 0,0 0,0 0,0 0,-0.05786 l -0.0654336,0 c 0,0 0,0 0,0 0,-0.05786 0,-0.05786 0,-0.05786 l -0.0654335,0 c 0,0 0,0 0,0 0,0.05786 0,0.05786 0,0.05786 z m 0.0654335,0 0,0 c 0,0 0,0 0,0 l 0,0.05786 c 0,0 0,0 0,0 0,0 0,0 0,0 l 0,0.05786 c 0,0 0,0 0,0 l 0,0 0,-0.115687 z"
       id="path8421"
       inkscape:connector-curvature="0" /><path
       style="fill:#ffffff;fill-opacity:1;fill-rule:nonzero;stroke:none"
       d="m 0.52339396,17.752835 0,0.115686 c 0,0 0,0 0,0.05786 0,0 0,0 0,0 0,0 0,0 0,0 0,-0.05786 0,-0.05786 0,-0.05786 l 0,0 0.0654338,0.05786 c 0,0 0.0654338,0 0.0654338,0 0,0 0,0 0,0 0,-0.05786 0,-0.05786 0,-0.05786 0,0 0,0 0,0 l -0.1308366,-0.05786 0.1308366,-0.05786 c 0,0 0,0 0,0 0,0 0,0 0,0 0,0 0,0 0,0 0,0 -0.0654338,0 -0.0654338,0 l -0.0654338,0.05786 0,-0.05786 c 0,0 0,0 0,0 0,0 0,0 0,0 0,0 0,0 0,0 0,0 0,0 0,0 z"
       id="path8423"
       inkscape:connector-curvature="0" /><path
       style="fill:#ffffff;fill-opacity:1;fill-rule:nonzero;stroke:none"
       d="m 0.71966122,17.752835 0,0.173543 0.0654338,0 c 0,0 0,0 0,0 0,-0.05786 0,-0.05786 0,-0.05786 0,0 0,0 0,0 0,0 0,0 0,0 l -0.0654338,0 0,-0.05786 0,0 c 0,0 0.0654338,0 0.0654338,0 0,0 0,0 0,0 0,0 0,0 0,0 0,0 -0.0654338,0 -0.0654338,0 l 0,0 0,-0.05786 0.0654338,0 c 0,0 0,0 0,0 0,0 0,0 0,0 0,0 0,0 0,0 0,0 0,0 0,0 l -0.0654338,0 z"
       id="path8425"
       inkscape:connector-curvature="0" /><path
       style="fill:#ffffff;fill-opacity:1;fill-rule:nonzero;stroke:none"
       d="m 0.85050707,17.86853 0,0 c 0,0 0,0 0,0.05786 0,0 0,0 0,0 0,0 0,0 0,0 0,-0.05786 0,-0.05786 0,-0.05786 l 0,0 0.0654335,-0.05786 0,0.05786 0,0 c 0,0 0.0654336,0 0.0654336,0.05786 0,0 0,0 0,0 0,0 0,0 0,0 0,-0.05786 0,-0.05786 0,-0.05786 l 0,0 -0.0654336,-0.05786 0,-0.05786 c 0,0 0,0 0,0 0,0 0,0 0,0 0,0 0,0 0,0 0,0 0,0 0,0 l 0,0.05786 -0.0654335,0.05786 z"
       id="path8427"
       inkscape:connector-curvature="0" /><path
       style="fill:#ffffff;fill-opacity:1;fill-rule:nonzero;stroke:none"
       d="m 0.45796948,19.198951 0,0 c 0,0 0,0 0.0654338,0 0,0 0,0 0,0 0,0 0,0 0,0 0,0 0,0 0,0 l 0,0 0,-0.115686 0.0654337,0.115686 0,0 c 0,0 0,0 0,0 0,0 0,0 0,0 0,0 0,0 0,0 0,0 0,0 0,0 l 0,0 0,-0.115686 c -0.0654337,0 -0.0654337,0 -0.0654337,0 0,0 0,0 0,0 l -0.0654338,0.115686 z"
       id="path8429"
       inkscape:connector-curvature="0" /><path
       style="fill:#ffffff;fill-opacity:1;fill-rule:nonzero;stroke:none"
       d="m 0.65423983,19.083256 0,0.05786 c 0,0.05786 0,0.05786 0,0.05786 0,0 0,0 0,0 0,0 0,0 0,0 0,0 0,0 0,-0.05786 l 0,0 0.0654338,0.05786 c 0,0 0,0 0,0 l 0,0 c 0,0 0.0654338,0 0.0654338,0 0,-0.05786 0,-0.05786 0,-0.05786 l 0,0 c 0,0 0,0 0,0 0,0 0,0 0,0 0,0 0,0 -0.0654338,0 0,0 0,0 0,0 l 0,0 c 0,0 0,0 0,0 0,0 0,0 0,0 l 0,0 -0.0654338,0 0,-0.05786 c 0,0 0,0 0,0 0,0 0,0 0,0 0,0 0,0 0,0 0,0 0,0 0,0 z"
       id="path8431"
       inkscape:connector-curvature="0" /><path
       style="fill:#ffffff;fill-opacity:1;fill-rule:nonzero;stroke:none"
       d="m 0.85050707,19.083256 0,0.05786 c 0,0 0,0 0,0 0,0 0,0 0,0 l 0,0.05786 c 0,0 0,0 0,0 l 0.0654335,0 0,0 0,0 0,0 0,0 0,0 0,0 0,0 0,-0.05786 0,0 c 0,0 0,0 0,0 l 0,0 c 0,0 0,-0.05786 0,-0.05786 0,0 0,0 0,0 l -0.0654335,0 0,0 c 0,0 0,0 0,0 l 0,0 0,0 0,0 c 0,0 0,0 0,0 l 0.0654335,0 c 0,0 0,0 0,0 0,0 0,0 0,0 0,0 0,0 0,0 0,0 0,0 0,0 l -0.0654335,0 0,0 0,0 0,0 0,0 0,0 0,0 0,0 0,0 0,0 c 0,0 0,0 0,0 z m 0,0.05786 0.0654335,0 0,0 c 0,0 0,0 0,0 0,0 0,0 0,0 l -0.0654335,0 c 0,0 0,0 0,0 0,0 0,0 0,0 l 0,0 c 0,0 0,0 0,0 l 0,0 z"
       id="path8433"
       inkscape:connector-curvature="0" /><path
       style="fill:#ffffff;fill-opacity:1;fill-rule:nonzero;stroke:none"
       d="m 0.98135296,19.141103 c 0,0 0,0 0,0 0,0.05786 0,0.05786 0,0.05786 0,0 0,0 0,0 l 0.0654335,0 0,0 c 0,0 0,0 0,0 0,0 0,0 0,0 l 0.065434,0 c 0,0 0,0 0,0 0,0 0,0 0,0 0,0 0,0 0,0 0,0 0,0 0,0 l -0.065434,0 c 0,0 0,0 0,0 0,0 0,0 0,0 l 0,0 0,0 c 0,0 0,0 0,0 0,0 0,0 0,-0.05786 0,0 0,0 0,0 0,0 0,0 0,0 l 0,0 0,-0.05786 c 0,0 0,0 0,0 0,0 0,0 0,0 0,0 0,0 0,0 0,0 0,0 0,0 l 0,0.05786 -0.0654335,0 c 0,0 0,0 0,0 z"
       id="path8435"
       inkscape:connector-curvature="0" /><path
       style="fill:#ffffff;fill-opacity:1;fill-rule:nonzero;stroke:none"
       d="m 0.52339396,17.3479 0,0.05786 c 0,0 0,0 0,0 l 0.0654338,0.05786 c 0,0 0,0 0,0 l 0.0654338,0 c 0,0 0,0 0,0 0,0 0,0 0,0 0,0 0,0 0,0 0,0 0,0 0,0 l -0.0654338,0 c 0,0 0,0 0,0 l 0,-0.05786 c 0,0 0,0 0,0 l 0,-0.05786 c 0,0 0,0 0,0 0,0 0,0 0,0 l 0,0 c 0.0654338,0 0.0654338,0 0.0654338,0 0,0 0,0 0,0 l 0,0 -0.0654338,0 c 0,0 0,0 0,0 0,0 0,0 0,0 0,0 0,0 0,0 0,0 0,0 0,0 l 0.0654338,0 0,0 c 0,0 0,-0.05786 0,-0.05786 0,0 0,0 -0.0654338,0 l 0,0 c 0,0 -0.0654338,0 -0.0654338,0 0,0 0,0.05786 0,0.05786 z"
       id="path8437"
       inkscape:connector-curvature="0" /><path
       style="fill:#ffffff;fill-opacity:1;fill-rule:nonzero;stroke:none"
       d="m 0.71966122,17.290051 0,0.173544 0,0 0.0654338,-0.115687 0,0.115687 c 0,0 0,0 0,0 0,0 0,0 0,0 0,0 0,0 0,0 0.065434,0 0.065434,0 0.065434,0 l 0,-0.173544 -0.065434,0 -0.0654338,0.115686 0,-0.115686 c 0,0 0,0 0,0 0,0 0,0 0,0 0,0 0,0 0,0 0,0 0,0 0,0 z"
       id="path8439"
       inkscape:connector-curvature="0" /><path
       style="fill:#ffffff;fill-opacity:1;fill-rule:nonzero;stroke:none"
       d="m 0.85050707,17.290051 c 0,0 0,0 0,0.05786 0,0 0,0 0.0654335,0 l 0,0 0,0.115687 0,0 c -0.0654335,0 -0.0654335,0 -0.0654335,0 0,0 0,0 0,0 0,0 0,0 0,0 0,0 0,0 0.0654335,0 l 0,0 c 0,0 0,0 0,0 0.0654336,0 0.0654336,0 0.0654336,0 l 0,-0.05786 c 0,0 0,0 0,0 0,-0.05786 0,-0.05786 0,-0.05786 l 0,-0.05786 c 0,0 0,0 -0.0654336,0 0,0 0,0 0,0 l 0,0 c -0.0654335,0 -0.0654335,0 -0.0654335,0 0,0 0,0 0,0 z m 0.0654335,0.05786 0,0 c 0,0 0,0 0,0 l 0.0654336,0 c 0,0 0,0.05786 0,0.05786 0,0 0,0 0,0 l -0.0654336,0.05786 c 0,0 0,0 0,0 l 0,0 0,-0.115686 z"
       id="path8441"
       inkscape:connector-curvature="0" /><path
       style="fill:#ffffff;fill-opacity:1;fill-rule:nonzero;stroke:none"
       d="m 1.0467744,17.3479 0,0.05786 c 0,0 0,0 0,0 0,0 0,0 0,0 l 0,0 c 0,0 0,0 0.065433,0 l 0,0 c 0,0 0,0 0,0 l 0,0 c 0,0 0,0 0,0 l 0,0 0,0 0,0 0,0.05786 c 0,0 0,0 0,0 0,0 0,0 0,0 0.065434,0 0.065434,0 0.065434,0 0,0 0,0 0,0 l 0,-0.173543 c 0,0 0,0 0,0 0,0 0,0 -0.065434,0 0,0 0,0 0,0 0,0 0,0 0,0 l 0,0 c 0,0 0,0 0,0 0,0 0,0 0,0 0,0 0,0 0,0 l 0,0 -0.065433,0 0,0 0,0 0,0 0,0 0,0 0,0 0,0 0,0 c 0,0.05786 0,0.05786 0,0.05786 z m 0,0 c 0,0 0,0 0,0 l 0,0 0,0 0,0 c 0,0 0.065433,0 0.065433,0 l 0,0 c 0,0 0,0 0,0 l 0,0 c 0,0 0,0 0,0 l 0,0 c 0,0 0,0.05786 0,0.05786 l 0,0 c 0,0 0,0 0,0 l 0,0 c 0,0 -0.065433,0 -0.065433,0 0,0 0,0 0,0 l 0,0 c 0,0 0,0 0,0 l 0,-0.05786 z"
       id="path8443"
       inkscape:connector-curvature="0" /><path
       style="fill:#ffffff;fill-opacity:1;fill-rule:nonzero;stroke:none"
       d="m 2.4860821,17.290051 0,0.05786 c 0,0 0,0 0,0 0,0 0,0 0,0 l 0,0 c 0,0 0,0 0,0 0,0 0,0 0,0 l 0,-0.05786 c 0,0 0,0 0,0 0,0 0,0 0,0 l 0,0 c 0,0 0,0 0,0 0,0 0,0 0,0 z m 0,0.173544 c 0,0 0,0 0,0 0,0 0,0 0,0 l 0,0 c 0,0 0,0 0,0 0,0 0,0 0,0 l 0,0 0,-0.115687 c 0,0 0,0 0,0 0,0 0,0 0,0 0,0 0,0 0,0 0,0 0,0 0,0 l 0,0.115687 z"
       id="path8445"
       inkscape:connector-curvature="0" /><path
       style="fill:#ffffff;fill-opacity:1;fill-rule:nonzero;stroke:none"
       d="m 2.6169311,17.290051 0,0.173544 0.065434,0 c 0,0 0,0 0,0 0,0 0,0 0,-0.05786 l 0,0 c 0,0 0,0 0,0 0,0 0,0 0,0 l 0,0 0,-0.115686 c 0,0 0,0 0,0 0,0 0,0 0,0 0,0 0,0 0,0 0,0 0,0 0,0 l -0.065434,0.115686 0,0 0,-0.115686 c 0,0 0,0 0,0 0,0 0,0 0,0 0,0 0,0 0,0 0,0 0,0 0,0 z m 0,0.115686 0.065434,0 c 0,0 0,0 0,0 0,0 0,0 0,0 l 0,0 c 0,0 0,0.05786 0,0.05786 0,0 0,0 0,0 l -0.065434,0 0,-0.05786 z"
       id="path8447"
       inkscape:connector-curvature="0" /><path
       style="fill:#ffffff;fill-opacity:1;fill-rule:nonzero;stroke:none"
       d="m 2.7477769,17.3479 c 0,0 0,0 0,0 0,0 0,0 0,0 0.065434,0 0.065434,0 0.065434,0 0,0 0,0 0,0 0,0 0,0 0,0 0,0 0,0 0,0 l 0.065434,0 c 0,0 0,0 0,0 l -0.1308366,0.05786 c 0,0 0,0 0,0.05786 l 0,0 c 0,0 0,0 0,0 0,0 0.065433,0 0.065433,0 l 0.065434,0 c 0,0 0,0 0,0 0,0 0,0 0,-0.05786 0,0 0,0 0,0 0,0 0,0 0,0 0,0 0,0 0,0 0,0 0,0 0,0 0,0.05786 0,0.05786 0,0.05786 0,0 0,0 0,0 l -0.065434,0 c 0,0 0,0 0,0 l 0,0 0,0 0.065434,-0.115686 c 0,0 0,0 0,0 0,-0.05786 0,-0.05786 0,-0.05786 0,0 0,0 0,0 l -0.065434,0 c 0,0 0,0 -0.065433,0 0,0 0,0.05786 0,0.05786 z"
       id="path8449"
       inkscape:connector-curvature="0" /><path
       style="fill:#ffffff;fill-opacity:1;fill-rule:nonzero;stroke:none"
       d="m 2.9440472,17.405748 0,0.05786 0.1308366,0 0,-0.05786 c 0,0 0,0 0,0 -0.065433,0 -0.065433,0 -0.065433,0 0,0 0,0 0,0 0,0 0,0 0,0 l 0,0.05786 0,0 0,-0.173544 c 0,0 0,0 0,0 0,0 0,0 0,0 0,0 0,0 0,0 0,0 0,0 0,0 l 0,0.173544 -0.065403,0 0,-0.05786 c 0,0 0,0 0,0 0,0 0,0 0,0 0,0 0,0 0,0 0,0 0,0 0,0 z"
       id="path8451"
       inkscape:connector-curvature="0" /><path
       style="fill:#ffffff;fill-opacity:1;fill-rule:nonzero;stroke:none"
       d="m 2.3552362,19.083256 c 0,0 0,0 0,0 0,0 0.065434,0 0.065434,0 0,0 0,0 0,0 0,0 0,0 0,0 0,0 0,0 0,0 0,0 0,0 0,0 l 0.065434,0 c 0,0 0,0 0,0 l -0.1308366,0.115687 c 0,0 0,0 0,0 l 0,0 c 0,0 0,0 0.065434,0 0,0 0,0 0,0 l 0.065434,0 c 0,0 0,0 0,0 0,0 0,0 0,0 0,0 0,0 0,0 0,0 0,0 0,0 0,0 0,0 0,0 0,0 0,0 0,0 0,0 0,0 0,0 0,0 0,0 0,0 l -0.065434,0 c 0,0 0,0 0,0 l 0,0 0,0 0.065434,-0.115687 c 0,0 0,0 0,0 0,0 0,0 0,0 0,0 0,0 0,0 l -0.065434,0 c 0,0 0,0 0,0 -0.065434,0 -0.065434,0 -0.065434,0 z"
       id="path8453"
       inkscape:connector-curvature="0" /><path
       style="fill:#ffffff;fill-opacity:1;fill-rule:nonzero;stroke:none"
       d="m 2.5515065,19.083256 0,0.115687 c 0,0 0,0 0,0 0,0 0,0 0,0 0,0 0,0 0,0 0,0 0,0 0,0 l 0,-0.115687 0,0 0.065434,0 0,0 0,0 0,0.05786 c 0,0 0,0 0,0 0,0 0,0.05786 0,0.05786 0,0 0,-0.05786 0,-0.05786 0,0 0,0 0,0 l 0,-0.05786 0,0 0,0 0,0 0,0 0,0.115687 c 0,0 0,0 0,0 0,0 0,0 0.065434,0 0,0 0,0 0,0 0,0 0,0 0,0 l 0,-0.115687 0,0 c -0.065434,0 -0.065434,0 -0.065434,0 l 0,0 c 0,0 0,0 0,0 0,0 0,0 0,0 l -0.065434,0 c 0,0 0,0 0,0 l 0,0 z"
       id="path8455"
       inkscape:connector-curvature="0" /><path
       style="fill:#ffffff;fill-opacity:1;fill-rule:nonzero;stroke:none"
       d="m 2.7477769,19.083256 c 0,0 0,0 0,0 0,0 0,0 0,0 l 0,0 0,0.115687 0,0 c 0,0 0,0 0,0 0,0 0,0 0,0 0,0 0,0 0,0 0,0 0,0 0,0 l 0.065434,0 c 0,0 0,0 0,0 0,0 0,0 0,0 0,0 0,0 0,0 0,0 0,0 0,0 l 0,0 0,-0.115687 0,0 c 0,0 0,0 0,0 0,0 0,0 0,0 0,0 0,0 0,0 0,0 0,0 0,0 l -0.065434,0 c 0,0 0,0 0,0 0,0 0,0 0,0 z"
       id="path8457"
       inkscape:connector-curvature="0" /><path
       style="fill:#ffffff;fill-opacity:1;fill-rule:nonzero;stroke:none"
       d="m 2.8786228,19.141103 c 0,0 0,0 0,0 l 0.065434,0.05786 c 0,0 0,0 0,0 0,0 0,0 0,0 0,0 0,0 0,0 0,0 0,0 0,0 l 0.065403,-0.05786 c 0,0 0,0 0,0 0,0 0,0 0,0 l -0.065403,-0.05786 c 0,0 0,0 0,0 0,0 0,0 0,0 0,0 0,0 0,0 0,0 0,0 0,0 l -0.065434,0.05786 c 0,0 0,0 0,0 z m 0,0 c 0,0 0,0 0,0 0,0 0,0 0,0 l 0.065434,-0.05786 c 0,0 0,0 0,0 0,0 0,0 0,0 l 0,0.05786 c 0,0 0,0 0,0 0,0 0,0 0,0 l 0,0.05786 c 0,0 0,0 0,0 0,0 0,0 0,0 l -0.065434,-0.05786 z"
       id="path8459"
       inkscape:connector-curvature="0" /><path
       style="fill:#ffffff;fill-opacity:1;fill-rule:nonzero;stroke:none"
       d="m 2.5515065,18.678321 c 0,0.05786 0,0.05786 0,0.05786 l 0.065434,0.05786 c 0,0 0,0 0,0 0,0 0,0 0,0 l 0.065434,0 c 0,0 0,0 0,0 0,0 0,0 0,0 0,0 0,0 0,-0.05786 0,0 0,0 0,0 l -0.065434,0 c 0,0 0,0 0,0 l 0,0 c 0,0 0,-0.05786 0,-0.05786 0,0 0,0 0,0 l 0,-0.05786 c 0,0 0,0 0,0 l 0.065434,0 c 0,0 0,0 0,0 0,0 0,0 0,0 0,0 0,0 0,0 0,0 0,0 0,0 l -0.065434,0 c 0,0 0,0 0,0 0,0 0,0 0,0 -0.065434,0.05786 -0.065434,0.05786 -0.065434,0.05786 0,0 0,0 0,0 z"
       id="path8461"
       inkscape:connector-curvature="0" /><path
       style="fill:#ffffff;fill-opacity:1;fill-rule:nonzero;stroke:none"
       d="m 2.7477769,18.620473 0,0.173543 c 0,0 0,0 0,0 0,0 0,0 0,0 0,0 0,0 0,0 0,0 0,0 0,0 l 0,-0.173543 0.065434,0 c 0,0 0,0 0,0 0.065434,0 0.065434,0 0.065434,0 0,0 0,0 -0.065434,0 0,0 0,0 0,0 l -0.065434,0 z"
       id="path8463"
       inkscape:connector-curvature="0" /><path
       style="fill:#ffffff;fill-opacity:1;fill-rule:nonzero;stroke:none"
       d="m 2.8786228,18.620473 0,0.173543 c 0,0 0,0 0,0 0,0 0,0 0,0 0.065434,0 0.065434,0 0.065434,0 0,0 0,0 0,0 l 0,-0.05786 0.065403,0.05786 c 0,0 0,0 0,0 0,0 0,0 0,0 0,0 0,0 0,0 0,0 0,0 0,-0.05786 l -0.065403,-0.05786 0.065403,-0.05786 c 0,0 0,0 0,0 0,0 0,0 0,0 0,0 0,0 0,0 0,0 0,0 0,0 l -0.065403,0.05786 0,-0.05786 c 0,0 0,0 0,0 0,0 0,0 -0.065434,0 0,0 0,0 0,0 0,0 0,0 0,0 z"
       id="path8465"
       inkscape:connector-curvature="0" /><path
       style="fill:#ffffff;fill-opacity:1;fill-rule:nonzero;stroke:none"
       d="m 2.5515065,18.21554 c 0,0 0,0 0,0 0,0 0,0 0,0 0,0 0,0 0.065434,0 0,0 0,0 0,0 0,0 0,0 0,0 0,0 0,0 0,0 l 0.065434,0 c 0,0 0,0 0,0 L 2.551537,18.331226 c 0,0 0,0 0,0 l 0,0 c 0,0 0,0 0,0 0,0 0,0 0.065434,0 l 0,0 c 0.065433,0 0.065433,0 0.065433,0 0,0 0,0 0,0 0,0 0,0 0,0 0,0 0,0 0,0 0,0 0,0 0,0 0,0 0,0 0,0 0,0 0,0 0,0 0,0 0,0 -0.065433,0 l 0,0 c 0,0 0,0 0,0 l 0,0 0,0 0.065433,-0.115686 c 0,0 0,0 0,0 0,0 0,0 0,0 0,-0.05786 0,-0.05786 0,-0.05786 l -0.065433,0 c 0,0 -0.065434,0 -0.065434,0.05786 0,0 0,0 0,0 z"
       id="path8467"
       inkscape:connector-curvature="0" /><path
       style="fill:#ffffff;fill-opacity:1;fill-rule:nonzero;stroke:none"
       d="m 2.7477769,18.21554 0,0.115686 c 0,0 0,0 0,0 0,0 0,0 0,0 0,0 0,0 0,0 0,0 0,0 0,0 l 0,-0.115686 0,0 0,0 0,0 0,0 0,0.05786 c 0,0 0,0 0.065434,0 0,0 0,0 0,0 0,0 0,0 0,0 0,0 0,0 0,0 l 0,-0.05786 0,0 0,0 0,0 0,0 0,0.115686 c 0,0 0,0 0,0 0,0 0,0 0,0 0,0 0,0 0,0 0.065434,0 0.065434,0 0.065434,0 l 0,-0.115686 -0.065434,0 c 0,-0.05786 0,-0.05786 0,-0.05786 l 0,0 c 0,0 0,0 0,0.05786 0,-0.05786 0,-0.05786 -0.065434,-0.05786 l 0,0 c 0,0 0,0 0,0.05786 l 0,0 z"
       id="path8469"
       inkscape:connector-curvature="0" /><path
       style="fill:#ffffff;fill-opacity:1;fill-rule:nonzero;stroke:none"
       d="m 2.8786228,18.273386 c 0,0 0,0 0,0 l 0.065434,0.05786 c 0,0 0,0 0,0 0,0 0,0 0,0 0,0 0,0 0,0 0.065403,0 0.065403,0 0.065403,0 l 0,-0.05786 c 0,0 0,0 0,0 0,0 0,0 0,-0.05786 l 0,0 c 0,0 0,0 -0.065403,-0.05786 0,0 0,0 0,0 0,0 0,0 0,0 0,0.05786 0,0.05786 0,0.05786 l -0.065434,0 c 0,0.05786 0,0.05786 0,0.05786 z m 0.065434,0 c 0,0 0,0 0,0 0,0 0,0 0,0 l 0,-0.05786 c 0,0 0,0 0,0 0,0 0,0 0,0 l 0.065403,0.05786 c 0,0 0,0 0,0 0,0 0,0 0,0 l -0.065403,0.05786 c 0,0 0,0 0,0 0,0 0,0 0,0 l 0,-0.05786 z"
       id="path8471"
       inkscape:connector-curvature="0" /><path
       style="fill:#ffffff;fill-opacity:1;fill-rule:nonzero;stroke:none"
       d="m 2.6823524,17.752835 0,0.173543 0.065434,0 0.065434,-0.173543 0,0.115686 c 0,0 0,0 0,0.05786 0,0 0,0 0,0 0,0 0,0 0,0 0,-0.05786 0,-0.05786 0,-0.05786 l 0,-0.115686 0,0 -0.065434,0.115686 0,-0.115686 c 0,0 0,0 0,0 0,0 -0.065434,0 -0.065434,0 0,0 0,0 0,0 0,0 0,0 0,0 z"
       id="path8473"
       inkscape:connector-curvature="0" /><path
       style="fill:#ffffff;fill-opacity:1;fill-rule:nonzero;stroke:none"
       d="m 2.8786228,17.810681 c 0,0 0,0 0,0.05786 l 0,0 c 0,0 0,0 0,0 0.065434,0.05786 0.065434,0.05786 0.065434,0.05786 l 0,0 c 0,0 0,0 0.065403,0 0,-0.05786 0,-0.05786 0,-0.05786 0,0 0,0 0,0 -0.065403,0 -0.065403,0 -0.065403,0 l 0,0 c 0,0 0,0 0,0 l -0.065434,-0.05786 c 0,0 0,0 0,0 0,0 0,0 0,0 l 0.065434,-0.05786 c 0,0 0,0 0,0 l 0,0 c 0,0 0,0 0.065403,0 0,0 0,0 0,0 0,0 0,0 0,0 -0.065403,0 -0.065403,0 -0.065403,0 l 0,0 c 0,0 0,0 -0.065434,0 0,0 0,0 0,0 0,0 0,0.05786 0,0.05786 0,0 0,0 0,0 z"
       id="path8475"
       inkscape:connector-curvature="0" /><path
       style="fill:#000000;fill-opacity:1;fill-rule:nonzero;stroke:none"
       d="m 2.2898117,18.851865 0,0.578478 z"
       id="path8477"
       inkscape:connector-curvature="0" /><path
       style="fill:none;stroke:#ffffff;stroke-width:0.06151866px;stroke-linecap:round;stroke-linejoin:miter;stroke-miterlimit:4;stroke-dasharray:none;stroke-opacity:1"
       d="m 2.2898117,18.851865 0,0.578478"
       id="path8479"
       inkscape:connector-curvature="0" /><path
       style="fill:#000000;fill-opacity:1;fill-rule:nonzero;stroke:none"
       d="m 2.2898117,19.430343 -1.046767,0 z"
       id="path8481"
       inkscape:connector-curvature="0" /><path
       style="fill:none;stroke:#ffffff;stroke-width:0.06151866px;stroke-linecap:round;stroke-linejoin:miter;stroke-miterlimit:4;stroke-dasharray:none;stroke-opacity:1"
       d="m 2.2898117,19.430343 -1.046767,0"
       id="path8483"
       inkscape:connector-curvature="0" /><path
       style="fill:#000000;fill-opacity:1;fill-rule:nonzero;stroke:none"
       d="m 1.2430447,19.430343 0,-0.578478 z"
       id="path8485"
       inkscape:connector-curvature="0" /><path
       style="fill:none;stroke:#ffffff;stroke-width:0.06151866px;stroke-linecap:round;stroke-linejoin:miter;stroke-miterlimit:4;stroke-dasharray:none;stroke-opacity:1"
       d="m 1.2430447,19.430343 0,-0.578478"
       id="path8487"
       inkscape:connector-curvature="0" /><path
       style="fill:#000000;fill-opacity:1;fill-rule:nonzero;stroke:none"
       d="m 2.2898117,17.752835 0,-0.578479 z"
       id="path8489"
       inkscape:connector-curvature="0" /><path
       style="fill:none;stroke:#ffffff;stroke-width:0.06151866px;stroke-linecap:round;stroke-linejoin:miter;stroke-miterlimit:4;stroke-dasharray:none;stroke-opacity:1"
       d="m 2.2898117,17.752835 0,-0.578479"
       id="path8491"
       inkscape:connector-curvature="0" /><path
       style="fill:#000000;fill-opacity:1;fill-rule:nonzero;stroke:none"
       d="m 2.2898117,17.174356 -1.046767,0 z"
       id="path8493"
       inkscape:connector-curvature="0" /><path
       style="fill:none;stroke:#ffffff;stroke-width:0.06151866px;stroke-linecap:round;stroke-linejoin:miter;stroke-miterlimit:4;stroke-dasharray:none;stroke-opacity:1"
       d="m 2.2898117,17.174356 -1.046767,0"
       id="path8495"
       inkscape:connector-curvature="0" /><path
       style="fill:#000000;fill-opacity:1;fill-rule:nonzero;stroke:none"
       d="m 1.2430447,17.174356 0,0.578479 z"
       id="path8497"
       inkscape:connector-curvature="0" /><path
       style="fill:none;stroke:#ffffff;stroke-width:0.06151866px;stroke-linecap:round;stroke-linejoin:miter;stroke-miterlimit:4;stroke-dasharray:none;stroke-opacity:1"
       d="m 1.2430447,17.174356 0,0.578479"
       id="path8499"
       inkscape:connector-curvature="0" /><path
       style="fill:none;stroke:#ffffff;stroke-width:0.06151866px;stroke-linecap:round;stroke-linejoin:miter;stroke-miterlimit:4;stroke-dasharray:none;stroke-opacity:1"
       d="M 0.98135296,19.430343 1.1776233,19.314656 0.98135296,19.2568 l 0,0.173543 m 0,0 0,-0.173543 0,0.173543 m 0,-0.05786 0,-0.115686 0,0.115686 m 0.0654335,0 0,-0.115686 0,0.115686 m 0,0 0,-0.115686 0,0.115686 m 0,0 0,-0.05786 0,0.05786 m 0.065434,0 0,-0.05786 0,0.05786 m 0,-0.05786 0,0 0,0"
       id="path8501"
       inkscape:connector-curvature="0" /><path
       style="fill:#9a916c;fill-opacity:1;fill-rule:nonzero;stroke:none"
       d="m 1.570164,17.405748 0,0 c 0,-0.05786 0,-0.115686 -0.065433,-0.115686 l 0,0 c -0.065434,0 -0.1308366,0.05786 -0.1308366,0.115686 l 0,0 c 0,0.05786 0.065434,0.05786 0.1308366,0.05786 l 0,0 c 0.065433,0 0.065433,0 0.065433,-0.05786 z"
       id="path8503"
       inkscape:connector-curvature="0" /><path
       style="fill:#9a916c;fill-opacity:1;fill-rule:nonzero;stroke:none"
       d="m 2.0935413,19.141103 0,0 c 0,0 -0.065434,-0.05786 -0.1308366,-0.05786 l 0,0 c 0,0 -0.065433,0.05786 -0.065433,0.05786 l 0,0 c 0,0.05786 0.065433,0.115685 0.065433,0.115685 l 0,0 c 0.065434,0 0.1308366,-0.05786 0.1308366,-0.115685 z"
       id="path8505"
       inkscape:connector-curvature="0" /><path
       style="fill:none;stroke:#9a916c;stroke-width:0.06151866px;stroke-linecap:butt;stroke-linejoin:miter;stroke-miterlimit:4;stroke-dasharray:none;stroke-opacity:1"
       d="m 3.4020032,19.141103 c 0,-0.05786 -0.065433,-0.115687 -0.1962704,-0.115687 -0.065433,0 -0.1308365,0.05786 -0.1308365,0.115687 0,0.115685 0.065434,0.173543 0.1308365,0.173543 0.1308366,0 0.1962704,-0.05786 0.1962704,-0.173543 z"
       id="path8507"
       inkscape:connector-curvature="0" /><path
       style="fill:none;stroke:#9a916c;stroke-width:0.06151866px;stroke-linecap:butt;stroke-linejoin:miter;stroke-miterlimit:4;stroke-dasharray:none;stroke-opacity:1"
       d="m 3.4020032,18.73617 c 0,-0.05786 -0.065433,-0.115687 -0.1962704,-0.115687 -0.065433,0 -0.1308365,0.05786 -0.1308365,0.115687 0,0.05786 0.065434,0.115686 0.1308365,0.115686 0.1308366,0 0.1962704,-0.05786 0.1962704,-0.115686 z"
       id="path8509"
       inkscape:connector-curvature="0" /><path
       style="fill:none;stroke:#9a916c;stroke-width:0.06151866px;stroke-linecap:butt;stroke-linejoin:miter;stroke-miterlimit:4;stroke-dasharray:none;stroke-opacity:1"
       d="m 3.4020032,18.273386 c 0,-0.05786 -0.065433,-0.115686 -0.1962704,-0.115686 -0.065433,0 -0.1308365,0.05786 -0.1308365,0.115686 0,0.05786 0.065434,0.115686 0.1308365,0.115686 0.1308366,0 0.1962704,-0.05786 0.1962704,-0.115686 z"
       id="path8511"
       inkscape:connector-curvature="0" /><path
       style="fill:none;stroke:#9a916c;stroke-width:0.06151866px;stroke-linecap:butt;stroke-linejoin:miter;stroke-miterlimit:4;stroke-dasharray:none;stroke-opacity:1"
       d="m 3.4020032,17.86853 c 0,-0.115687 -0.065433,-0.173544 -0.1962704,-0.173544 -0.065433,0 -0.1308365,0.05786 -0.1308365,0.173544 0,0.05786 0.065434,0.115686 0.1308365,0.115686 0.1308366,0 0.1962704,-0.05786 0.1962704,-0.115686 z"
       id="path8513"
       inkscape:connector-curvature="0" /><path
       style="fill:none;stroke:#9a916c;stroke-width:0.06151866px;stroke-linecap:butt;stroke-linejoin:miter;stroke-miterlimit:4;stroke-dasharray:none;stroke-opacity:1"
       d="m 3.4020032,17.405748 c 0,-0.05786 -0.065433,-0.115686 -0.1962704,-0.115686 -0.065433,0 -0.1308365,0.05786 -0.1308365,0.115686 0,0.05786 0.065434,0.115687 0.1308365,0.115687 0.1308366,0 0.1962704,-0.05786 0.1962704,-0.115687 z"
       id="path8515"
       inkscape:connector-curvature="0" /><path
       style="fill:none;stroke:#9a916c;stroke-width:0.06151866px;stroke-linecap:butt;stroke-linejoin:miter;stroke-miterlimit:4;stroke-dasharray:none;stroke-opacity:1"
       d="m 0.39254809,19.141103 c 0,-0.05786 -0.0654338,-0.115687 -0.13083661,-0.115687 -0.0654338,0 -0.1308366,0.05786 -0.1308366,0.115687 0,0.115685 0.0654338,0.173543 0.1308366,0.173543 0.0654338,0 0.13083661,-0.05786 0.13083661,-0.173543 z"
       id="path8517"
       inkscape:connector-curvature="0" /><path
       style="fill:none;stroke:#9a916c;stroke-width:0.06151866px;stroke-linecap:butt;stroke-linejoin:miter;stroke-miterlimit:4;stroke-dasharray:none;stroke-opacity:1"
       d="m 0.39254809,18.73617 c 0,-0.05786 -0.0654338,-0.115687 -0.13083661,-0.115687 -0.0654338,0 -0.1308366,0.05786 -0.1308366,0.115687 0,0.05786 0.0654338,0.115686 0.1308366,0.115686 0.0654338,0 0.13083661,-0.05786 0.13083661,-0.115686 z"
       id="path8519"
       inkscape:connector-curvature="0" /><path
       style="fill:none;stroke:#9a916c;stroke-width:0.06151866px;stroke-linecap:butt;stroke-linejoin:miter;stroke-miterlimit:4;stroke-dasharray:none;stroke-opacity:1"
       d="m 0.39254809,18.273386 c 0,-0.05786 -0.0654338,-0.115686 -0.13083661,-0.115686 -0.0654338,0 -0.1308366,0.05786 -0.1308366,0.115686 0,0.05786 0.0654338,0.115686 0.1308366,0.115686 0.0654338,0 0.13083661,-0.05786 0.13083661,-0.115686 z"
       id="path8521"
       inkscape:connector-curvature="0" /><path
       style="fill:none;stroke:#9a916c;stroke-width:0.06151866px;stroke-linecap:butt;stroke-linejoin:miter;stroke-miterlimit:4;stroke-dasharray:none;stroke-opacity:1"
       d="m 0.39254809,17.86853 c 0,-0.115687 -0.0654338,-0.173544 -0.13083661,-0.173544 -0.0654338,0 -0.1308366,0.05786 -0.1308366,0.173544 0,0.05786 0.0654338,0.115686 0.1308366,0.115686 0.0654338,0 0.13083661,-0.05786 0.13083661,-0.115686 z"
       id="path8523"
       inkscape:connector-curvature="0" /><path
       style="fill:none;stroke:#9a916c;stroke-width:0.06151866px;stroke-linecap:butt;stroke-linejoin:miter;stroke-miterlimit:4;stroke-dasharray:none;stroke-opacity:1"
       d="m 0.39254809,17.405748 c 0,-0.05786 -0.0654338,-0.115686 -0.13083661,-0.115686 -0.0654338,0 -0.1308366,0.05786 -0.1308366,0.115686 0,0.05786 0.0654338,0.115687 0.1308366,0.115687 0.0654338,0 0.13083661,-0.05786 0.13083661,-0.115687 z"
       id="path8525"
       inkscape:connector-curvature="0" /><path
       style="fill:#9a916c;fill-opacity:1;fill-rule:nonzero;stroke:none"
       d="m 1.570164,18.794016 0,-0.115686 -0.5233896,0 0,0.115686 z"
       id="path8527"
       inkscape:connector-curvature="0" /><path
       style="fill:#9a916c;fill-opacity:1;fill-rule:nonzero;stroke:none"
       d="m 2.4206607,18.794016 0,-0.115686 -0.5233897,0 0,0.115686 z"
       id="path8529"
       inkscape:connector-curvature="0" /><path
       style="fill:#9a916c;fill-opacity:1;fill-rule:nonzero;stroke:none"
       d="m 1.570164,18.562626 0,-0.115686 -0.5233896,0 0,0.115686 z"
       id="path8531"
       inkscape:connector-curvature="0" /><path
       style="fill:#9a916c;fill-opacity:1;fill-rule:nonzero;stroke:none"
       d="m 2.4206607,18.562626 0,-0.115686 -0.5233897,0 0,0.115686 z"
       id="path8533"
       inkscape:connector-curvature="0" /><path
       style="fill:#9a916c;fill-opacity:1;fill-rule:nonzero;stroke:none"
       d="m 1.570164,18.331235 0,-0.115687 -0.5233896,0 0,0.115687 z"
       id="path8535"
       inkscape:connector-curvature="0" /><path
       style="fill:#9a916c;fill-opacity:1;fill-rule:nonzero;stroke:none"
       d="m 2.4206607,18.331235 0,-0.115687 -0.5233897,0 0,0.115687 z"
       id="path8537"
       inkscape:connector-curvature="0" /><path
       style="fill:#9a916c;fill-opacity:1;fill-rule:nonzero;stroke:none"
       d="m 1.570164,18.157691 0,-0.173461 -0.5233896,0 0,0.173461 z"
       id="path8539"
       inkscape:connector-curvature="0" /><path
       style="fill:#9a916c;fill-opacity:1;fill-rule:nonzero;stroke:none"
       d="m 2.4206607,18.157691 0,-0.173461 -0.5233897,0 0,0.173461 z"
       id="path8541"
       inkscape:connector-curvature="0" /><path
       style="fill:#9a916c;fill-opacity:1;fill-rule:nonzero;stroke:none"
       d="m 1.570164,17.926378 0,-0.173543 -0.5233896,0 0,0.173543 z"
       id="path8543"
       inkscape:connector-curvature="0" /><path
       style="fill:#9a916c;fill-opacity:1;fill-rule:nonzero;stroke:none"
       d="m 2.4206607,17.926378 0,-0.173543 -0.5233897,0 0,0.173543 z"
       id="path8545"
       inkscape:connector-curvature="0" /><path
       style="fill:#1a1a1a;fill-opacity:1;fill-rule:nonzero;stroke:none"
       d="m 1.0455127e-5,19.488189 44.291333544873,0 0,-17.0649416 -44.291333544873,0 z"
       id="path8547"
       inkscape:connector-curvature="0" /><path
       style="fill:#2a2a29;fill-opacity:1;fill-rule:nonzero;stroke:none"
       d="m 1.0455127e-5,19.488189 44.291333544873,0 0,-1.908898 -44.291333544873,0 z"
       id="path8549"
       inkscape:connector-curvature="0" /><path
       style="fill:#595959;fill-opacity:1;fill-rule:nonzero;stroke:none"
       d="m 1.0455127e-5,4.3322103 44.291333544873,0 0,-1.9089629 -44.291333544873,0 z"
       id="path8551"
       inkscape:connector-curvature="0" /><path
       style="fill:#373737;fill-opacity:1;fill-rule:nonzero;stroke:none"
       d="m 1.0455127e-5,19.488189 0,-17.0649416 L 2.1589658,4.3322103 l 0,13.2470807 z"
       id="path8553"
       inkscape:connector-curvature="0" /><path
       style="fill:#474747;fill-opacity:1;fill-rule:nonzero;stroke:none"
       d="m 44.291344,19.488189 0,-17.0649416 -2.158974,1.9089629 0,13.2470807 z"
       id="path8555"
       inkscape:connector-curvature="0" /><path
       style="fill:#404040;fill-opacity:1;fill-rule:nonzero;stroke:none"
       d="m 1.0455127e-5,19.488189 44.291333544873,0 0,-1.214803 -44.291333544873,0 z"
       id="path8557"
       inkscape:connector-curvature="0" /><path
       style="fill:#404040;fill-opacity:1;fill-rule:nonzero;stroke:none"
       d="m 1.0455127e-5,3.6380452 44.291333544873,0 0,-1.2147978 -44.291333544873,0 z"
       id="path8559"
       inkscape:connector-curvature="0" /><path
       style="fill:#404040;fill-opacity:1;fill-rule:nonzero;stroke:none"
       d="m 1.0455127e-5,19.488189 1.373883244873,0 0,-17.0649416 -1.373883244873,0 z"
       id="path8561"
       inkscape:connector-curvature="0" /><path
       style="fill:#404040;fill-opacity:1;fill-rule:nonzero;stroke:none"
       d="m 42.917451,19.488189 1.373893,0 0,-17.0649416 -1.373893,0 z"
       id="path8563"
       inkscape:connector-curvature="0" /><path
       style="fill:#1a1a1a;fill-opacity:1;fill-rule:nonzero;stroke:none"
       d="m 17.467986,5.7205487 9.290044,0 0,-3.2973013 -9.290044,0 z"
       id="path8685"
       inkscape:connector-curvature="0" /><path
       style="fill:#014cb1;fill-opacity:1;fill-rule:nonzero;stroke:none"
       d="m 0.2617022,18.836595 2.9440306,0 c 0.1962704,0 0.2617042,-0.115686 0.2617042,-0.2314 l 0,-1.966746 c 0,-0.115686 -0.065434,-0.173543 -0.2617042,-0.173543 l -2.9440306,0 c -0.1308366,0 -0.2617041024545,0.05786 -0.2617041024545,0.173543 l 0,1.966746 c 0,0.115687 0.1308365924545,0.2314 0.2617041024545,0.2314 m 1.3738833,-0.867717 c 0,-0.115685 0.1962703,-0.115685 0.1962703,0 0,0.115687 -0.1962703,0.115687 -0.1962703,0 z m 0,-0.694094 c 0,-0.115686 0.1962703,-0.115686 0.1962703,0 0,0.115687 -0.1962703,0.115687 -0.1962703,0 z m 1.5047229,1.214724 c 0,-0.115685 0.1962703,-0.115685 0.1962703,0 0,0.115687 -0.1962703,0.115687 -0.1962703,0 z m 0,-0.404935 c 0,-0.115686 0.1962703,-0.115686 0.1962703,0 0,0.115687 -0.1962703,0.115687 -0.1962703,0 z m 0,-0.462781 c 0,-0.115686 0.1962703,-0.115686 0.1962703,0 0,0.115686 -0.1962703,0.115686 -0.1962703,0 z m 0,-0.404856 c 0,-0.115687 0.1962703,-0.115687 0.1962703,0 0,0.115687 -0.1962703,0.115687 -0.1962703,0 z m 0,-0.462784 c 0,-0.115687 0.1962703,-0.115687 0.1962703,0 0,0.115686 -0.1962703,0.115686 -0.1962703,0 z m -3.00945207,1.735356 c 0,-0.115685 0.19627035,-0.115685 0.19627035,0 0,0.115687 -0.19627035,0.115687 -0.19627035,0 z m 0,-0.404935 c 0,-0.115686 0.19627035,-0.115686 0.19627035,0 0,0.115687 -0.19627035,0.115687 -0.19627035,0 z m 0,-0.462781 c 0,-0.115686 0.19627035,-0.115686 0.19627035,0 0,0.115686 -0.19627035,0.115686 -0.19627035,0 z m 0,-0.404856 c 0,-0.115687 0.19627035,-0.115687 0.19627035,0 0,0.115687 -0.19627035,0.115687 -0.19627035,0 z m 0,-0.462784 c 0,-0.115687 0.19627035,-0.115687 0.19627035,0 0,0.115686 -0.19627035,0.115686 -0.19627035,0 z"
       id="path8836"
       inkscape:connector-curvature="0" /><path
       style="fill:#ffffff;fill-opacity:1;fill-rule:nonzero;stroke:none"
       d="m 0.52339396,18.026728 0,0.05786 c 0,0 0,0 0,0 l 0.0654338,0.05786 c 0,0 0,0 0,0 l 0.0654338,0 c 0,0 0,0 0,0 0,0 0,0 0,0 0,0 0,0 0,-0.05786 0,0 0,0 0,0 l -0.0654338,0 c 0,0 0,0 0,0 l -0.0654338,0 c 0,0 0,0 0,0 l 0,-0.05786 c 0,0 0,-0.05786 0,-0.05786 0,0 0,0 0.0654338,0 l 0,0 c 0,0 0,0 0,0 0,0 0,0.05786 0,0.05786 l 0,0 0,0 c 0,0 0,0 0,0 0,0 0,0 0,0 0,0 0,0 0,0 0,0 0,0 0,0 l 0.0654338,0 0,0 c 0,-0.05786 0,-0.05786 0,-0.05786 -0.0654338,0 -0.0654338,0 -0.0654338,0 l 0,0 c -0.0654338,0 -0.0654338,0 -0.0654338,0 0,0 0,0 0,0.05786 z"
       id="path8838"
       inkscape:connector-curvature="0" /><path
       style="fill:#ffffff;fill-opacity:1;fill-rule:nonzero;stroke:none"
       d="m 0.71966122,17.968878 0,0.173544 0,0 0.0654338,-0.115686 0,0.115686 c 0,0 0,0 0,0 0,0 0,0 0,0 0,0 0,0 0,0 0,0 0,0 0,0 l 0,-0.173544 0,0 -0.0654338,0.115687 0,-0.115687 c 0,0 0,0 0,0 0,0 0,0 0,0 0,0 0,0 0,0 0,0 0,0 0,0 z"
       id="path8840"
       inkscape:connector-curvature="0" /><path
       style="fill:#ffffff;fill-opacity:1;fill-rule:nonzero;stroke:none"
       d="m 0.85050707,17.968878 c 0,0 0,0 0,0 0,0 0,0 0,0 l 0,0 0,0.115687 0,0 c 0,0 0,0 0,0 0,0.05786 0,0.05786 0,0.05786 0,0 0,0 0,0 0,0 0,0 0,0 l 0.0654335,0 c 0,0 0,0 0,0 0,0 0,0 0,0 l 0.0654336,-0.05786 c 0,0 0,0 0,-0.05786 0,0 0,0 0,0 l -0.0654336,-0.05786 c 0,0 0,0 0,0 0,0 0,0 0,0 l -0.0654335,0 c 0,0 0,0 0,0 0,0 0,0 0,0 z m 0.0654335,0 0,0 c 0,0 0,0 0,0 l 0,0.05786 c 0,0 0,0 0,0 0,0 0,0.05786 0,0.05786 l 0,0 c 0,0 0,0 0,0 l 0,0 0,-0.115687 z"
       id="path8842"
       inkscape:connector-curvature="0" /><path
       style="fill:#ffffff;fill-opacity:1;fill-rule:nonzero;stroke:none"
       d="m 0.52339396,17.563943 0,0.05786 c 0,0 0,0 0,0 l 0.0654338,0.05786 c 0,0 0,0 0,0 l 0.0654338,0 c 0,0 0,0 0,0 0,0 0,0 0,0 0,0 0,0 0,0 0,0 0,0 0,0 l -0.0654338,0 c 0,0 0,0 0,0 L 0.52339396,17.6218 c 0,0 0,0 0,0 l 0,-0.05786 c 0,0 0,0 0,0 0,0 0,0 0.0654338,0 l 0,0 c 0,0 0,0 0,0 0,0 0,0 0,0 l 0,0 0,0 c 0,0 0,0 0,0 0,0 0,0 0,0.05786 0,0 0,0 0,0 0,0 0,0 0,0 l 0.0654338,0 0,-0.05786 c 0,0 0,0 0,0 -0.0654338,-0.05786 -0.0654338,-0.05786 -0.0654338,-0.05786 l 0,0 c -0.0654338,0 -0.0654338,0 -0.0654338,0.05786 0,0 0,0 0,0 z"
       id="path8844"
       inkscape:connector-curvature="0" /><path
       style="fill:#ffffff;fill-opacity:1;fill-rule:nonzero;stroke:none"
       d="m 0.71966122,17.563943 0,0.115687 0,0 0.0654338,-0.115687 0,0.115687 c 0,0 0,0 0,0 0,0 0,0 0,0 0,0 0,0 0,0 0,0 0,0 0,0 l 0,-0.173543 0,0 -0.0654338,0.173543 0,-0.115687 c 0,0 0,0 0,-0.05786 0,0 0,0 0,0 0,0 0,0 0,0 0,0.05786 0,0.05786 0,0.05786 z"
       id="path8846"
       inkscape:connector-curvature="0" /><path
       style="fill:#ffffff;fill-opacity:1;fill-rule:nonzero;stroke:none"
       d="m 0.85050707,17.563943 c 0,0 0,0 0,0 0,0 0,0 0,0 l 0,0 0,0.115687 0,0 c 0,0 0,0 0,0 0,0 0,0 0,0 0,0 0,0 0,0 0,0 0,0 0,0 l 0.0654335,0 c 0,0 0,0 0,0 0,0 0,0 0,0 l 0.0654336,-0.05786 c 0,0 0,0 0,0 0,0 0,0 0,-0.05786 l -0.0654336,0 c 0,0 0,0 0,0 0,-0.05786 0,-0.05786 0,-0.05786 l -0.0654335,0 c 0,0 0,0 0,0 0,0.05786 0,0.05786 0,0.05786 z m 0.0654335,0 0,0 c 0,0 0,0 0,0 l 0,0.05786 c 0,0 0,0 0,0 0,0 0,0 0,0 l 0,0.05786 c 0,0 0,0 0,0 l 0,0 0,-0.115686 z"
       id="path8848"
       inkscape:connector-curvature="0" /><path
       style="fill:#ffffff;fill-opacity:1;fill-rule:nonzero;stroke:none"
       d="m 0.52339396,17.101238 0,0.115687 c 0,0 0,0 0,0.05786 0,0 0,0 0,0 0,0 0,0 0,0 0,-0.05786 0,-0.05786 0,-0.05786 l 0,0 0.0654338,0.05786 c 0,0 0.0654338,0 0.0654338,0 0,0 0,0 0,0 0,-0.05786 0,-0.05786 0,-0.05786 0,0 0,0 0,0 l -0.1308366,-0.05786 0.1308366,-0.05786 c 0,0 0,0 0,0 0,0 0,0 0,0 0,0 0,0 0,0 0,0 -0.0654338,0 -0.0654338,0 l -0.0654338,0.05786 0,-0.05786 c 0,0 0,0 0,0 0,0 0,0 0,0 0,0 0,0 0,0 0,0 0,0 0,0 z"
       id="path8850"
       inkscape:connector-curvature="0" /><path
       style="fill:#ffffff;fill-opacity:1;fill-rule:nonzero;stroke:none"
       d="m 0.71966122,17.101238 0,0.173544 0.0654338,0 c 0,0 0,0 0,0 0,-0.05786 0,-0.05786 0,-0.05786 0,0 0,0 0,0 0,0 0,0 0,0 l -0.0654338,0 0,-0.05786 0,0 c 0,0 0.0654338,0 0.0654338,0 0,0 0,0 0,0 0,0 0,0 0,0 0,0 -0.0654338,0 -0.0654338,0 l 0,0 0,-0.05786 0.0654338,0 c 0,0 0,0 0,0 0,0 0,0 0,0 0,0 0,0 0,0 0,0 0,0 0,0 l -0.0654338,0 z"
       id="path8852"
       inkscape:connector-curvature="0" /><path
       style="fill:#ffffff;fill-opacity:1;fill-rule:nonzero;stroke:none"
       d="m 0.85050707,17.216936 0,0 c 0,0 0,0 0,0.05786 0,0 0,0 0,0 0,0 0,0 0,0 0,-0.05786 0,-0.05786 0,-0.05786 l 0,0 0.0654335,-0.05786 0,0.05786 0,0 c 0,0 0.0654336,0 0.0654336,0.05786 0,0 0,0 0,0 0,0 0,0 0,0 0,-0.05786 0,-0.05786 0,-0.05786 l 0,0 -0.0654336,-0.05786 0,-0.05786 c 0,0 0,0 0,0 0,0 0,0 0,0 0,0 0,0 0,0 0,0 0,0 0,0 l 0,0.05786 -0.0654335,0.05786 z"
       id="path8854"
       inkscape:connector-curvature="0" /><path
       style="fill:#ffffff;fill-opacity:1;fill-rule:nonzero;stroke:none"
       d="m 0.45796948,18.547358 0,0 c 0,0 0,0 0.0654338,0 0,0 0,0 0,0 0,0 0,0 0,0 0,0 0,0 0,0 l 0,0 0,-0.115687 0.0654337,0.115687 0,0 c 0,0 0,0 0,0 0,0 0,0 0,0 0,0 0,0 0,0 0,0 0,0 0,0 l 0,0 0,-0.115687 c -0.0654337,0 -0.0654337,0 -0.0654337,0 0,0 0,0 0,0 l -0.0654338,0.115687 z"
       id="path8856"
       inkscape:connector-curvature="0" /><path
       style="fill:#ffffff;fill-opacity:1;fill-rule:nonzero;stroke:none"
       d="m 0.65423983,18.43166 0,0.05786 c 0,0.05786 0,0.05786 0,0.05786 0,0 0,0 0,0 0,0 0,0 0,0 0,0 0,0 0,-0.05786 l 0,0 0.0654338,0.05786 c 0,0 0,0 0,0 l 0,0 c 0,0 0.0654338,0 0.0654338,0 0,-0.05786 0,-0.05786 0,-0.05786 l 0,0 c 0,0 0,0 0,0 0,0 0,0 0,0 0,0 0,0 -0.0654338,0 0,0 0,0 0,0 l 0,0 c 0,0 0,0 0,0 0,0 0,0 0,0 l 0,0 -0.0654338,0 0,-0.05786 c 0,0 0,0 0,0 0,0 0,0 0,0 0,0 0,0 0,0 0,0 0,0 0,0 z"
       id="path8858"
       inkscape:connector-curvature="0" /><path
       style="fill:#ffffff;fill-opacity:1;fill-rule:nonzero;stroke:none"
       d="m 0.85050707,18.43166 0,0.05786 c 0,0 0,0 0,0 0,0 0,0 0,0 l 0,0.05786 c 0,0 0,0 0,0 l 0.0654335,0 0,0 0,0 0,0 0,0 0,0 0,0 0,0 0,-0.05786 0,0 c 0,0 0,0 0,0 l 0,0 c 0,0 0,-0.05786 0,-0.05786 0,0 0,0 0,0 l -0.0654335,0 0,0 c 0,0 0,0 0,0 l 0,0 0,0 0,0 c 0,0 0,0 0,0 l 0.0654335,0 c 0,0 0,0 0,0 0,0 0,0 0,0 0,0 0,0 0,0 0,0 0,0 0,0 l -0.0654335,0 0,0 0,0 0,0 0,0 0,0 0,0 0,0 0,0 0,0 c 0,0 0,0 0,0 z m 0,0.05786 0.0654335,0 0,0 c 0,0 0,0 0,0 0,0 0,0 0,0 l -0.0654335,0 c 0,0 0,0 0,0 0,0 0,0 0,0 l 0,0 c 0,0 0,0 0,0 l 0,0 z"
       id="path8860"
       inkscape:connector-curvature="0" /><path
       style="fill:#ffffff;fill-opacity:1;fill-rule:nonzero;stroke:none"
       d="m 0.98135296,18.489508 c 0,0 0,0 0,0 0,0.05786 0,0.05786 0,0.05786 0,0 0,0 0,0 l 0.0654335,0 0,0 c 0,0 0,0 0,0 0,0 0,0 0,0 l 0.065434,0 c 0,0 0,0 0,0 0,0 0,0 0,0 0,0 0,0 0,0 0,0 0,0 0,0 l -0.065434,0 c 0,0 0,0 0,0 0,0 0,0 0,0 l 0,0 0,0 c 0,0 0,0 0,0 0,0 0,0 0,-0.05786 0,0 0,0 0,0 0,0 0,0 0,0 l 0,0 0,-0.05786 c 0,0 0,0 0,0 0,0 0,0 0,0 0,0 0,0 0,0 0,0 0,0 0,0 l 0,0.05786 -0.0654335,0 c 0,0 0,0 0,0 z"
       id="path8862"
       inkscape:connector-curvature="0" /><path
       style="fill:#ffffff;fill-opacity:1;fill-rule:nonzero;stroke:none"
       d="m 0.52339396,16.696306 0,0.05786 c 0,0 0,0 0,0 l 0.0654338,0.05786 c 0,0 0,0 0,0 l 0.0654338,0 c 0,0 0,0 0,0 0,0 0,0 0,0 0,0 0,0 0,0 0,0 0,0 0,0 l -0.0654338,0 c 0,0 0,0 0,0 l 0,-0.05786 c 0,0 0,0 0,0 l 0,-0.05786 c 0,0 0,0 0,0 0,0 0,0 0,0 l 0,0 c 0.0654338,0 0.0654338,0 0.0654338,0 0,0 0,0 0,0 l 0,0 -0.0654338,0 c 0,0 0,0 0,0 0,0 0,0 0,0 0,0 0,0 0,0 0,0 0,0 0,0 l 0.0654338,0 0,0 c 0,0 0,-0.05786 0,-0.05786 0,0 0,0 -0.0654338,0 l 0,0 c 0,0 -0.0654338,0 -0.0654338,0 0,0 0,0.05786 0,0.05786 z"
       id="path8864"
       inkscape:connector-curvature="0" /><path
       style="fill:#ffffff;fill-opacity:1;fill-rule:nonzero;stroke:none"
       d="m 0.71966122,16.638458 0,0.173543 0,0 0.0654338,-0.115687 0,0.115687 c 0,0 0,0 0,0 0,0 0,0 0,0 0,0 0,0 0,0 0.065434,0 0.065434,0 0.065434,0 l 0,-0.173543 -0.065434,0 -0.0654338,0.115685 0,-0.115685 c 0,0 0,0 0,0 0,0 0,0 0,0 0,0 0,0 0,0 0,0 0,0 0,0 z"
       id="path8866"
       inkscape:connector-curvature="0" /><path
       style="fill:#ffffff;fill-opacity:1;fill-rule:nonzero;stroke:none"
       d="m 0.85050707,16.638458 c 0,0 0,0 0,0.05786 0,0 0,0 0.0654335,0 l 0,0 0,0.115687 0,0 c -0.0654335,0 -0.0654335,0 -0.0654335,0 0,0 0,0 0,0 0,0 0,0 0,0 0,0 0,0 0.0654335,0 l 0,0 c 0,0 0,0 0,0 0.0654336,0 0.0654336,0 0.0654336,0 l 0,-0.05786 c 0,0 0,0 0,0 0,-0.05786 0,-0.05786 0,-0.05786 l 0,-0.05786 c 0,0 0,0 -0.0654336,0 0,0 0,0 0,0 l 0,0 c -0.0654335,0 -0.0654335,0 -0.0654335,0 0,0 0,0 0,0 z m 0.0654335,0.05786 0,0 c 0,0 0,0 0,0 l 0.0654336,0 c 0,0 0,0.05786 0,0.05786 0,0 0,0 0,0 l -0.0654336,0.05786 c 0,0 0,0 0,0 l 0,0 0,-0.115687 z"
       id="path8868"
       inkscape:connector-curvature="0" /><path
       style="fill:#ffffff;fill-opacity:1;fill-rule:nonzero;stroke:none"
       d="m 1.0467744,16.696306 0,0.05786 c 0,0 0,0 0,0 0,0 0,0 0,0 l 0,0 c 0,0 0,0 0.065433,0 l 0,0 c 0,0 0,0 0,0 l 0,0 c 0,0 0,0 0,0 l 0,0 0,0 0,0 0,0.05786 c 0,0 0,0 0,0 0,0 0,0 0,0 0.065434,0 0.065434,0 0.065434,0 0,0 0,0 0,0 l 0,-0.173543 c 0,0 0,0 0,0 0,0 0,0 -0.065434,0 0,0 0,0 0,0 0,0 0,0 0,0 l 0,0 c 0,0 0,0 0,0 0,0 0,0 0,0 0,0 0,0 0,0 l 0,0 -0.065433,0 0,0 0,0 0,0 0,0 0,0 0,0 0,0 0,0 c 0,0.05786 0,0.05786 0,0.05786 z m 0,0 c 0,0 0,0 0,0 l 0,0 0,0 0,0 c 0,0 0.065433,0 0.065433,0 l 0,0 c 0,0 0,0 0,0 l 0,0 c 0,0 0,0 0,0 l 0,0 c 0,0 0,0.05786 0,0.05786 l 0,0 c 0,0 0,0 0,0 l 0,0 c 0,0 -0.065433,0 -0.065433,0 0,0 0,0 0,0 l 0,0 c 0,0 0,0 0,0 l 0,-0.05786 z"
       id="path8870"
       inkscape:connector-curvature="0" /><path
       style="fill:#ffffff;fill-opacity:1;fill-rule:nonzero;stroke:none"
       d="m 2.4860821,16.638458 0,0.05786 c 0,0 0,0 0,0 0,0 0,0 0,0 l 0,0 c 0,0 0,0 0,0 0,0 0,0 0,0 l 0,-0.05786 c 0,0 0,0 0,0 0,0 0,0 0,0 l 0,0 c 0,0 0,0 0,0 0,0 0,0 0,0 z m 0,0.173543 c 0,0 0,0 0,0 0,0 0,0 0,0 l 0,0 c 0,0 0,0 0,0 0,0 0,0 0,0 l 0,0 0,-0.115687 c 0,0 0,0 0,0 0,0 0,0 0,0 0,0 0,0 0,0 0,0 0,0 0,0 l 0,0.115687 z"
       id="path8872"
       inkscape:connector-curvature="0" /><path
       style="fill:#ffffff;fill-opacity:1;fill-rule:nonzero;stroke:none"
       d="m 2.6169311,16.638458 0,0.173543 0.065434,0 c 0,0 0,0 0,0 0,0 0,0 0,-0.05786 l 0,0 c 0,0 0,0 0,0 0,0 0,0 0,0 l 0,0 0,-0.115685 c 0,0 0,0 0,0 0,0 0,0 0,0 0,0 0,0 0,0 0,0 0,0 0,0 l -0.065434,0.115685 0,0 0,-0.115685 c 0,0 0,0 0,0 0,0 0,0 0,0 0,0 0,0 0,0 0,0 0,0 0,0 z m 0,0.115685 0.065434,0 c 0,0 0,0 0,0 0,0 0,0 0,0 l 0,0 c 0,0 0,0.05786 0,0.05786 0,0 0,0 0,0 l -0.065434,0 0,-0.05786 z"
       id="path8874"
       inkscape:connector-curvature="0" /><path
       style="fill:#ffffff;fill-opacity:1;fill-rule:nonzero;stroke:none"
       d="m 2.7477769,16.696306 c 0,0 0,0 0,0 0,0 0,0 0,0 0.065434,0 0.065434,0 0.065434,0 0,0 0,0 0,0 0,0 0,0 0,0 0,0 0,0 0,0 l 0.065434,0 c 0,0 0,0 0,0 l -0.1308366,0.05786 c 0,0 0,0 0,0.05786 l 0,0 c 0,0 0,0 0,0 0,0 0.065433,0 0.065433,0 l 0.065434,0 c 0,0 0,0 0,0 0,0 0,0 0,-0.05786 0,0 0,0 0,0 0,0 0,0 0,0 0,0 0,0 0,0 0,0 0,0 0,0 0,0.05786 0,0.05786 0,0.05786 0,0 0,0 0,0 l -0.065434,0 c 0,0 0,0 0,0 l 0,0 0,0 0.065434,-0.115686 c 0,0 0,0 0,0 0,-0.05786 0,-0.05786 0,-0.05786 0,0 0,0 0,0 l -0.065434,0 c 0,0 0,0 -0.065433,0 0,0 0,0.05786 0,0.05786 z"
       id="path8876"
       inkscape:connector-curvature="0" /><path
       style="fill:#ffffff;fill-opacity:1;fill-rule:nonzero;stroke:none"
       d="m 2.9440472,16.754152 0,0.05786 0.1308366,0 0,-0.05786 c 0,0 0,0 0,0 -0.065433,0 -0.065433,0 -0.065433,0 0,0 0,0 0,0 0,0 0,0 0,0 l 0,0.05786 0,0 0,-0.173543 c 0,0 0,0 0,0 0,0 0,0 0,0 0,0 0,0 0,0 0,0 0,0 0,0 l 0,0.173543 -0.065403,0 0,-0.05786 c 0,0 0,0 0,0 0,0 0,0 0,0 0,0 0,0 0,0 0,0 0,0 0,0 z"
       id="path8878"
       inkscape:connector-curvature="0" /><path
       style="fill:#ffffff;fill-opacity:1;fill-rule:nonzero;stroke:none"
       d="m 2.3552362,18.43166 c 0,0 0,0 0,0 0,0 0.065434,0 0.065434,0 0,0 0,0 0,0 0,0 0,0 0,0 0,0 0,0 0,0 0,0 0,0 0,0 l 0.065434,0 c 0,0 0,0 0,0 l -0.1308366,0.115687 c 0,0 0,0 0,0 l 0,0 c 0,0 0,0 0.065434,0 0,0 0,0 0,0 l 0.065434,0 c 0,0 0,0 0,0 0,0 0,0 0,0 0,0 0,0 0,0 0,0 0,0 0,0 0,0 0,0 0,0 0,0 0,0 0,0 0,0 0,0 0,0 0,0 0,0 0,0 l -0.065434,0 c 0,0 0,0 0,0 l 0,0 0,0 0.065434,-0.115687 c 0,0 0,0 0,0 0,0 0,0 0,0 0,0 0,0 0,0 l -0.065434,0 c 0,0 0,0 0,0 -0.065434,0 -0.065434,0 -0.065434,0 z"
       id="path8880"
       inkscape:connector-curvature="0" /><path
       style="fill:#ffffff;fill-opacity:1;fill-rule:nonzero;stroke:none"
       d="m 2.5515065,18.43166 0,0.115687 c 0,0 0,0 0,0 0,0 0,0 0,0 0,0 0,0 0,0 0,0 0,0 0,0 l 0,-0.115687 0,0 0.065434,0 0,0 0,0 0,0.05786 c 0,0 0,0 0,0 0,0 0,0.05786 0,0.05786 0,0 0,-0.05786 0,-0.05786 0,0 0,0 0,0 l 0,-0.05786 0,0 0,0 0,0 0,0 0,0.115687 c 0,0 0,0 0,0 0,0 0,0 0.065434,0 0,0 0,0 0,0 0,0 0,0 0,0 l 0,-0.115687 0,0 c -0.065434,0 -0.065434,0 -0.065434,0 l 0,0 c 0,0 0,0 0,0 0,0 0,0 0,0 l -0.065434,0 c 0,0 0,0 0,0 l 0,0 z"
       id="path8882"
       inkscape:connector-curvature="0" /><path
       style="fill:#ffffff;fill-opacity:1;fill-rule:nonzero;stroke:none"
       d="m 2.7477769,18.43166 c 0,0 0,0 0,0 0,0 0,0 0,0 l 0,0 0,0.115687 0,0 c 0,0 0,0 0,0 0,0 0,0 0,0 0,0 0,0 0,0 0,0 0,0 0,0 l 0.065434,0 c 0,0 0,0 0,0 0,0 0,0 0,0 0,0 0,0 0,0 0,0 0,0 0,0 l 0,0 0,-0.115687 0,0 c 0,0 0,0 0,0 0,0 0,0 0,0 0,0 0,0 0,0 0,0 0,0 0,0 l -0.065434,0 c 0,0 0,0 0,0 0,0 0,0 0,0 z"
       id="path8884"
       inkscape:connector-curvature="0" /><path
       style="fill:#ffffff;fill-opacity:1;fill-rule:nonzero;stroke:none"
       d="m 2.8786228,18.489508 c 0,0 0,0 0,0 l 0.065434,0.05786 c 0,0 0,0 0,0 0,0 0,0 0,0 0,0 0,0 0,0 0,0 0,0 0,0 l 0.065403,-0.05786 c 0,0 0,0 0,0 0,0 0,0 0,0 l -0.065403,-0.05786 c 0,0 0,0 0,0 0,0 0,0 0,0 0,0 0,0 0,0 0,0 0,0 0,0 l -0.065434,0.05786 c 0,0 0,0 0,0 z m 0,0 c 0,0 0,0 0,0 0,0 0,0 0,0 l 0.065434,-0.05786 c 0,0 0,0 0,0 0,0 0,0 0,0 l 0,0.05786 c 0,0 0,0 0,0 0,0 0,0 0,0 l 0,0.05786 c 0,0 0,0 0,0 0,0 0,0 0,0 l -0.065434,-0.05786 z"
       id="path8886"
       inkscape:connector-curvature="0" /><path
       style="fill:#ffffff;fill-opacity:1;fill-rule:nonzero;stroke:none"
       d="m 2.5515065,18.026728 c 0,0.05786 0,0.05786 0,0.05786 l 0.065434,0.05786 c 0,0 0,0 0,0 0,0 0,0 0,0 l 0.065434,0 c 0,0 0,0 0,0 0,0 0,0 0,0 0,0 0,0 0,-0.05786 0,0 0,0 0,0 l -0.065434,0 c 0,0 0,0 0,0 l 0,0 c 0,0 0,-0.05786 0,-0.05786 0,0 0,0 0,0 l 0,-0.05786 c 0,0 0,0 0,0 l 0.065434,0 c 0,0 0,0 0,0 0,0 0,0 0,0 0,0 0,0 0,0 0,0 0,0 0,0 l -0.065434,0 c 0,0 0,0 0,0 0,0 0,0 0,0 -0.065434,0.05786 -0.065434,0.05786 -0.065434,0.05786 0,0 0,0 0,0 z"
       id="path8888"
       inkscape:connector-curvature="0" /><path
       style="fill:#ffffff;fill-opacity:1;fill-rule:nonzero;stroke:none"
       d="m 2.7477769,17.968878 0,0.173544 c 0,0 0,0 0,0 0,0 0,0 0,0 0,0 0,0 0,0 0,0 0,0 0,0 l 0,-0.173544 0.065434,0 c 0,0 0,0 0,0 0.065434,0 0.065434,0 0.065434,0 0,0 0,0 -0.065434,0 0,0 0,0 0,0 l -0.065434,0 z"
       id="path8890"
       inkscape:connector-curvature="0" /><path
       style="fill:#ffffff;fill-opacity:1;fill-rule:nonzero;stroke:none"
       d="m 2.8786228,17.968878 0,0.173544 c 0,0 0,0 0,0 0,0 0,0 0,0 0.065434,0 0.065434,0 0.065434,0 0,0 0,0 0,0 l 0,-0.05786 0.065403,0.05786 c 0,0 0,0 0,0 0,0 0,0 0,0 0,0 0,0 0,0 0,0 0,0 0,-0.05786 l -0.065403,-0.05786 0.065403,-0.05786 c 0,0 0,0 0,0 0,0 0,0 0,0 0,0 0,0 0,0 0,0 0,0 0,0 l -0.065403,0.05786 0,-0.05786 c 0,0 0,0 0,0 0,0 0,0 -0.065434,0 0,0 0,0 0,0 0,0 0,0 0,0 z"
       id="path8892"
       inkscape:connector-curvature="0" /><path
       style="fill:#ffffff;fill-opacity:1;fill-rule:nonzero;stroke:none"
       d="m 2.5515065,17.563943 c 0,0 0,0 0,0 0,0 0,0 0,0 0,0 0,0 0.065434,0 0,0 0,0 0,0 0,0 0,0 0,0 0,0 0,0 0,0 l 0.065434,0 c 0,0 0,0 0,0 L 2.551537,17.67963 c 0,0 0,0 0,0 l 0,0 c 0,0 0,0 0,0 0,0 0,0 0.065434,0 l 0,0 c 0.065433,0 0.065433,0 0.065433,0 0,0 0,0 0,0 0,0 0,0 0,0 0,0 0,0 0,0 0,0 0,0 0,0 0,0 0,0 0,0 0,0 0,0 0,0 0,0 0,0 -0.065433,0 l 0,0 c 0,0 0,0 0,0 l 0,0 0,0 0.065433,-0.115687 c 0,0 0,0 0,0 0,0 0,0 0,0 0,-0.05786 0,-0.05786 0,-0.05786 l -0.065433,0 c 0,0 -0.065434,0 -0.065434,0.05786 0,0 0,0 0,0 z"
       id="path8894"
       inkscape:connector-curvature="0" /><path
       style="fill:#ffffff;fill-opacity:1;fill-rule:nonzero;stroke:none"
       d="m 2.7477769,17.563943 0,0.115687 c 0,0 0,0 0,0 0,0 0,0 0,0 0,0 0,0 0,0 0,0 0,0 0,0 l 0,-0.115687 0,0 0,0 0,0 0,0 0,0.05786 c 0,0 0,0 0.065434,0 0,0 0,0 0,0 0,0 0,0 0,0 0,0 0,0 0,0 l 0,-0.05786 0,0 0,0 0,0 0,0 0,0.115687 c 0,0 0,0 0,0 0,0 0,0 0,0 0,0 0,0 0,0 0.065434,0 0.065434,0 0.065434,0 l 0,-0.115687 -0.065434,0 c 0,-0.05786 0,-0.05786 0,-0.05786 l 0,0 c 0,0 0,0 0,0.05786 0,-0.05786 0,-0.05786 -0.065434,-0.05786 l 0,0 c 0,0 0,0 0,0.05786 l 0,0 z"
       id="path8896"
       inkscape:connector-curvature="0" /><path
       style="fill:#ffffff;fill-opacity:1;fill-rule:nonzero;stroke:none"
       d="m 2.8786228,17.621792 c 0,0 0,0 0,0 l 0.065434,0.05786 c 0,0 0,0 0,0 0,0 0,0 0,0 0,0 0,0 0,0 0.065403,0 0.065403,0 0.065403,0 l 0,-0.05786 c 0,0 0,0 0,0 0,0 0,0 0,-0.05786 l 0,0 c 0,0 0,0 -0.065403,-0.05786 0,0 0,0 0,0 0,0 0,0 0,0 0,0.05786 0,0.05786 0,0.05786 l -0.065434,0 c 0,0.05786 0,0.05786 0,0.05786 z m 0.065434,0 c 0,0 0,0 0,0 0,0 0,0 0,0 l 0,-0.05786 c 0,0 0,0 0,0 0,0 0,0 0,0 l 0.065403,0.05786 c 0,0 0,0 0,0 0,0 0,0 0,0 l -0.065403,0.05786 c 0,0 0,0 0,0 0,0 0,0 0,0 l 0,-0.05786 z"
       id="path8898"
       inkscape:connector-curvature="0" /><path
       style="fill:#ffffff;fill-opacity:1;fill-rule:nonzero;stroke:none"
       d="m 2.6823524,17.101238 0,0.173544 0.065434,0 0.065434,-0.173544 0,0.115687 c 0,0 0,0 0,0.05786 0,0 0,0 0,0 0,0 0,0 0,0 0,-0.05786 0,-0.05786 0,-0.05786 l 0,-0.115687 0,0 -0.065434,0.115687 0,-0.115687 c 0,0 0,0 0,0 0,0 -0.065434,0 -0.065434,0 0,0 0,0 0,0 0,0 0,0 0,0 z"
       id="path8900"
       inkscape:connector-curvature="0" /><path
       style="fill:#ffffff;fill-opacity:1;fill-rule:nonzero;stroke:none"
       d="m 2.8786228,17.159088 c 0,0 0,0 0,0.05786 l 0,0 c 0,0 0,0 0,0 0.065434,0.05786 0.065434,0.05786 0.065434,0.05786 l 0,0 c 0,0 0,0 0.065403,0 0,-0.05786 0,-0.05786 0,-0.05786 0,0 0,0 0,0 -0.065403,0 -0.065403,0 -0.065403,0 l 0,0 c 0,0 0,0 0,0 l -0.065434,-0.05786 c 0,0 0,0 0,0 0,0 0,0 0,0 l 0.065434,-0.05786 c 0,0 0,0 0,0 l 0,0 c 0,0 0,0 0.065403,0 0,0 0,0 0,0 0,0 0,0 0,0 -0.065403,0 -0.065403,0 -0.065403,0 l 0,0 c 0,0 0,0 -0.065434,0 0,0 0,0 0,0 0,0 0,0.05786 0,0.05786 0,0 0,0 0,0 z"
       id="path8902"
       inkscape:connector-curvature="0" /><path
       style="fill:#000000;fill-opacity:1;fill-rule:nonzero;stroke:none"
       d="m 2.2898117,18.200271 0,0.578476 z"
       id="path8904"
       inkscape:connector-curvature="0" /><path
       style="fill:none;stroke:#ffffff;stroke-width:0.06151866px;stroke-linecap:round;stroke-linejoin:miter;stroke-miterlimit:4;stroke-dasharray:none;stroke-opacity:1"
       d="m 2.2898117,18.200271 0,0.578476"
       id="path8906"
       inkscape:connector-curvature="0" /><path
       style="fill:#000000;fill-opacity:1;fill-rule:nonzero;stroke:none"
       d="m 2.2898117,18.778747 -1.046767,0 z"
       id="path8908"
       inkscape:connector-curvature="0" /><path
       style="fill:none;stroke:#ffffff;stroke-width:0.06151866px;stroke-linecap:round;stroke-linejoin:miter;stroke-miterlimit:4;stroke-dasharray:none;stroke-opacity:1"
       d="m 2.2898117,18.778747 -1.046767,0"
       id="path8910"
       inkscape:connector-curvature="0" /><path
       style="fill:#000000;fill-opacity:1;fill-rule:nonzero;stroke:none"
       d="m 1.2430447,18.778747 0,-0.578476 z"
       id="path8912"
       inkscape:connector-curvature="0" /><path
       style="fill:none;stroke:#ffffff;stroke-width:0.06151866px;stroke-linecap:round;stroke-linejoin:miter;stroke-miterlimit:4;stroke-dasharray:none;stroke-opacity:1"
       d="m 1.2430447,18.778747 0,-0.578476"
       id="path8914"
       inkscape:connector-curvature="0" /><path
       style="fill:#000000;fill-opacity:1;fill-rule:nonzero;stroke:none"
       d="m 2.2898117,17.101238 0,-0.578475 z"
       id="path8916"
       inkscape:connector-curvature="0" /><path
       style="fill:none;stroke:#ffffff;stroke-width:0.06151866px;stroke-linecap:round;stroke-linejoin:miter;stroke-miterlimit:4;stroke-dasharray:none;stroke-opacity:1"
       d="m 2.2898117,17.101238 0,-0.578475"
       id="path8918"
       inkscape:connector-curvature="0" /><path
       style="fill:#000000;fill-opacity:1;fill-rule:nonzero;stroke:none"
       d="m 2.2898117,16.522763 -1.046767,0 z"
       id="path8920"
       inkscape:connector-curvature="0" /><path
       style="fill:none;stroke:#ffffff;stroke-width:0.06151866px;stroke-linecap:round;stroke-linejoin:miter;stroke-miterlimit:4;stroke-dasharray:none;stroke-opacity:1"
       d="m 2.2898117,16.522763 -1.046767,0"
       id="path8922"
       inkscape:connector-curvature="0" /><path
       style="fill:#000000;fill-opacity:1;fill-rule:nonzero;stroke:none"
       d="m 1.2430447,16.522763 0,0.578475 z"
       id="path8924"
       inkscape:connector-curvature="0" /><path
       style="fill:none;stroke:#ffffff;stroke-width:0.06151866px;stroke-linecap:round;stroke-linejoin:miter;stroke-miterlimit:4;stroke-dasharray:none;stroke-opacity:1"
       d="m 1.2430447,16.522763 0,0.578475"
       id="path8926"
       inkscape:connector-curvature="0" /><path
       style="fill:none;stroke:#ffffff;stroke-width:0.06151866px;stroke-linecap:round;stroke-linejoin:miter;stroke-miterlimit:4;stroke-dasharray:none;stroke-opacity:1"
       d="M 0.98135296,18.778747 1.1776233,18.66306 0.98135296,18.6052 l 0,0.173544 m 0,0 0,-0.173544 0,0.173544 m 0,-0.05786 0,-0.115687 0,0.115687 m 0.0654335,0 0,-0.115687 0,0.115687 m 0,0 0,-0.115687 0,0.115687 m 0,0 0,-0.05786 0,0.05786 m 0.065434,0 0,-0.05786 0,0.05786 m 0,-0.05786 0,0 0,0"
       id="path8928"
       inkscape:connector-curvature="0" /><path
       style="fill:#9a916c;fill-opacity:1;fill-rule:nonzero;stroke:none"
       d="m 1.570164,16.754152 0,0 c 0,-0.05786 0,-0.115687 -0.065433,-0.115687 l 0,0 c -0.065434,0 -0.1308366,0.05786 -0.1308366,0.115687 l 0,0 c 0,0.05786 0.065434,0.05786 0.1308366,0.05786 l 0,0 c 0.065433,0 0.065433,0 0.065433,-0.05786 z"
       id="path8930"
       inkscape:connector-curvature="0" /><path
       style="fill:#9a916c;fill-opacity:1;fill-rule:nonzero;stroke:none"
       d="m 2.0935413,18.489508 0,0 c 0,0 -0.065434,-0.05786 -0.1308366,-0.05786 l 0,0 c 0,0 -0.065433,0.05786 -0.065433,0.05786 l 0,0 c 0,0.05786 0.065433,0.115687 0.065433,0.115687 l 0,0 c 0.065434,0 0.1308366,-0.05786 0.1308366,-0.115687 z"
       id="path8932"
       inkscape:connector-curvature="0" /><path
       style="fill:none;stroke:#9a916c;stroke-width:0.06151866px;stroke-linecap:butt;stroke-linejoin:miter;stroke-miterlimit:4;stroke-dasharray:none;stroke-opacity:1"
       d="m 3.4020032,18.489508 c 0,-0.05786 -0.065433,-0.115685 -0.1962704,-0.115685 -0.065433,0 -0.1308365,0.05786 -0.1308365,0.115685 0,0.115687 0.065434,0.173544 0.1308365,0.173544 0.1308366,0 0.1962704,-0.05786 0.1962704,-0.173544 z"
       id="path8934"
       inkscape:connector-curvature="0" /><path
       style="fill:none;stroke:#9a916c;stroke-width:0.06151866px;stroke-linecap:butt;stroke-linejoin:miter;stroke-miterlimit:4;stroke-dasharray:none;stroke-opacity:1"
       d="m 3.4020032,18.084573 c 0,-0.05786 -0.065433,-0.115686 -0.1962704,-0.115686 -0.065433,0 -0.1308365,0.05786 -0.1308365,0.115686 0,0.05786 0.065434,0.115687 0.1308365,0.115687 0.1308366,0 0.1962704,-0.05786 0.1962704,-0.115687 z"
       id="path8936"
       inkscape:connector-curvature="0" /><path
       style="fill:none;stroke:#9a916c;stroke-width:0.06151866px;stroke-linecap:butt;stroke-linejoin:miter;stroke-miterlimit:4;stroke-dasharray:none;stroke-opacity:1"
       d="m 3.4020032,17.621792 c 0,-0.05786 -0.065433,-0.115686 -0.1962704,-0.115686 -0.065433,0 -0.1308365,0.05786 -0.1308365,0.115686 0,0.05786 0.065434,0.115686 0.1308365,0.115686 0.1308366,0 0.1962704,-0.05786 0.1962704,-0.115686 z"
       id="path8938"
       inkscape:connector-curvature="0" /><path
       style="fill:none;stroke:#9a916c;stroke-width:0.06151866px;stroke-linecap:butt;stroke-linejoin:miter;stroke-miterlimit:4;stroke-dasharray:none;stroke-opacity:1"
       d="m 3.4020032,17.216936 c 0,-0.115687 -0.065433,-0.173543 -0.1962704,-0.173543 -0.065433,0 -0.1308365,0.05786 -0.1308365,0.173543 0,0.05786 0.065434,0.115687 0.1308365,0.115687 0.1308366,0 0.1962704,-0.05786 0.1962704,-0.115687 z"
       id="path8940"
       inkscape:connector-curvature="0" /><path
       style="fill:none;stroke:#9a916c;stroke-width:0.06151866px;stroke-linecap:butt;stroke-linejoin:miter;stroke-miterlimit:4;stroke-dasharray:none;stroke-opacity:1"
       d="m 3.4020032,16.754152 c 0,-0.05786 -0.065433,-0.115687 -0.1962704,-0.115687 -0.065433,0 -0.1308365,0.05786 -0.1308365,0.115687 0,0.05786 0.065434,0.115686 0.1308365,0.115686 0.1308366,0 0.1962704,-0.05786 0.1962704,-0.115686 z"
       id="path8942"
       inkscape:connector-curvature="0" /><path
       style="fill:none;stroke:#9a916c;stroke-width:0.06151866px;stroke-linecap:butt;stroke-linejoin:miter;stroke-miterlimit:4;stroke-dasharray:none;stroke-opacity:1"
       d="m 0.39254809,18.489508 c 0,-0.05786 -0.0654338,-0.115685 -0.13083661,-0.115685 -0.0654338,0 -0.1308366,0.05786 -0.1308366,0.115685 0,0.115687 0.0654338,0.173544 0.1308366,0.173544 0.0654338,0 0.13083661,-0.05786 0.13083661,-0.173544 z"
       id="path8944"
       inkscape:connector-curvature="0" /><path
       style="fill:none;stroke:#9a916c;stroke-width:0.06151866px;stroke-linecap:butt;stroke-linejoin:miter;stroke-miterlimit:4;stroke-dasharray:none;stroke-opacity:1"
       d="m 0.39254809,18.084573 c 0,-0.05786 -0.0654338,-0.115686 -0.13083661,-0.115686 -0.0654338,0 -0.1308366,0.05786 -0.1308366,0.115686 0,0.05786 0.0654338,0.115687 0.1308366,0.115687 0.0654338,0 0.13083661,-0.05786 0.13083661,-0.115687 z"
       id="path8946"
       inkscape:connector-curvature="0" /><path
       style="fill:none;stroke:#9a916c;stroke-width:0.06151866px;stroke-linecap:butt;stroke-linejoin:miter;stroke-miterlimit:4;stroke-dasharray:none;stroke-opacity:1"
       d="m 0.39254809,17.621792 c 0,-0.05786 -0.0654338,-0.115686 -0.13083661,-0.115686 -0.0654338,0 -0.1308366,0.05786 -0.1308366,0.115686 0,0.05786 0.0654338,0.115686 0.1308366,0.115686 0.0654338,0 0.13083661,-0.05786 0.13083661,-0.115686 z"
       id="path8948"
       inkscape:connector-curvature="0" /><path
       style="fill:none;stroke:#9a916c;stroke-width:0.06151866px;stroke-linecap:butt;stroke-linejoin:miter;stroke-miterlimit:4;stroke-dasharray:none;stroke-opacity:1"
       d="m 0.39254809,17.216936 c 0,-0.115687 -0.0654338,-0.173543 -0.13083661,-0.173543 -0.0654338,0 -0.1308366,0.05786 -0.1308366,0.173543 0,0.05786 0.0654338,0.115687 0.1308366,0.115687 0.0654338,0 0.13083661,-0.05786 0.13083661,-0.115687 z"
       id="path8950"
       inkscape:connector-curvature="0" /><path
       style="fill:none;stroke:#9a916c;stroke-width:0.06151866px;stroke-linecap:butt;stroke-linejoin:miter;stroke-miterlimit:4;stroke-dasharray:none;stroke-opacity:1"
       d="m 0.39254809,16.754152 c 0,-0.05786 -0.0654338,-0.115687 -0.13083661,-0.115687 -0.0654338,0 -0.1308366,0.05786 -0.1308366,0.115687 0,0.05786 0.0654338,0.115686 0.1308366,0.115686 0.0654338,0 0.13083661,-0.05786 0.13083661,-0.115686 z"
       id="path8952"
       inkscape:connector-curvature="0" /><path
       style="fill:#9a916c;fill-opacity:1;fill-rule:nonzero;stroke:none"
       d="m 1.570164,18.142422 0,-0.115686 -0.5233896,0 0,0.115686 z"
       id="path8954"
       inkscape:connector-curvature="0" /><path
       style="fill:#9a916c;fill-opacity:1;fill-rule:nonzero;stroke:none"
       d="m 2.4206607,18.142422 0,-0.115686 -0.5233897,0 0,0.115686 z"
       id="path8956"
       inkscape:connector-curvature="0" /><path
       style="fill:#9a916c;fill-opacity:1;fill-rule:nonzero;stroke:none"
       d="m 1.570164,17.91103 0,-0.115687 -0.5233896,0 0,0.115687 z"
       id="path8958"
       inkscape:connector-curvature="0" /><path
       style="fill:#9a916c;fill-opacity:1;fill-rule:nonzero;stroke:none"
       d="m 2.4206607,17.91103 0,-0.115687 -0.5233897,0 0,0.115687 z"
       id="path8960"
       inkscape:connector-curvature="0" /><path
       style="fill:#9a916c;fill-opacity:1;fill-rule:nonzero;stroke:none"
       d="m 1.570164,17.679641 0,-0.115687 -0.5233896,0 0,0.115687 z"
       id="path8962"
       inkscape:connector-curvature="0" /><path
       style="fill:#9a916c;fill-opacity:1;fill-rule:nonzero;stroke:none"
       d="m 2.4206607,17.679641 0,-0.115687 -0.5233897,0 0,0.115687 z"
       id="path8964"
       inkscape:connector-curvature="0" /><path
       style="fill:#9a916c;fill-opacity:1;fill-rule:nonzero;stroke:none"
       d="m 1.570164,17.506098 0,-0.173462 -0.5233896,0 0,0.173462 z"
       id="path8966"
       inkscape:connector-curvature="0" /><path
       style="fill:#9a916c;fill-opacity:1;fill-rule:nonzero;stroke:none"
       d="m 2.4206607,17.506098 0,-0.173462 -0.5233897,0 0,0.173462 z"
       id="path8968"
       inkscape:connector-curvature="0" /><path
       style="fill:#9a916c;fill-opacity:1;fill-rule:nonzero;stroke:none"
       d="m 1.570164,17.274782 0,-0.173544 -0.5233896,0 0,0.173544 z"
       id="path8970"
       inkscape:connector-curvature="0" /><path
       style="fill:#9a916c;fill-opacity:1;fill-rule:nonzero;stroke:none"
       d="m 2.4206607,17.274782 0,-0.173544 -0.5233897,0 0,0.173544 z"
       id="path8972"
       inkscape:connector-curvature="0" /><path
       style="fill:#1a1a1a;fill-opacity:1;fill-rule:nonzero;stroke:none"
       d="m 1.0455127e-5,18.836595 44.291333544873,0 0,-17.0649413 -44.291333544873,0 z"
       id="path8974"
       inkscape:connector-curvature="0" /><path
       style="fill:#2a2a29;fill-opacity:1;fill-rule:nonzero;stroke:none"
       d="m 1.0455127e-5,18.836595 44.291333544873,0 0,-1.9089 -44.291333544873,0 z"
       id="path8976"
       inkscape:connector-curvature="0" /><path
       style="fill:#595959;fill-opacity:1;fill-rule:nonzero;stroke:none"
       d="m 1.0455127e-5,3.6806166 44.291333544873,0 0,-1.9089629 -44.291333544873,0 z"
       id="path8978"
       inkscape:connector-curvature="0" /><path
       style="fill:#373737;fill-opacity:1;fill-rule:nonzero;stroke:none"
       d="m 1.0455127e-5,18.836595 0,-17.0649413 L 2.1589658,3.6806166 l 0,13.2470784 z"
       id="path8980"
       inkscape:connector-curvature="0" /><path
       style="fill:#474747;fill-opacity:1;fill-rule:nonzero;stroke:none"
       d="m 44.291344,18.836595 0,-17.0649413 -2.158974,1.9089629 0,13.2470784 z"
       id="path8982"
       inkscape:connector-curvature="0" /><path
       style="fill:#404040;fill-opacity:1;fill-rule:nonzero;stroke:none"
       d="m 1.0455127e-5,18.836595 44.291333544873,0 0,-1.214803 -44.291333544873,0 z"
       id="path8984"
       inkscape:connector-curvature="0" /><path
       style="fill:#404040;fill-opacity:1;fill-rule:nonzero;stroke:none"
       d="m 1.0455127e-5,2.9864487 44.291333544873,0 0,-1.214795 -44.291333544873,0 z"
       id="path8986"
       inkscape:connector-curvature="0" /><path
       style="fill:#404040;fill-opacity:1;fill-rule:nonzero;stroke:none"
       d="m 1.0455127e-5,18.836595 1.373883244873,0 0,-17.0649413 -1.373883244873,0 z"
       id="path8988"
       inkscape:connector-curvature="0" /><path
       style="fill:#404040;fill-opacity:1;fill-rule:nonzero;stroke:none"
       d="m 42.917451,18.836595 1.373893,0 0,-17.0649413 -1.373893,0 z"
       id="path8990"
       inkscape:connector-curvature="0" /><path
       style="fill:#1a1a1a;fill-opacity:1;fill-rule:nonzero;stroke:none"
       d="m 17.467986,5.068955 9.290044,0 0,-3.2973013 -9.290044,0 z"
       id="path9112"
       inkscape:connector-curvature="0" /><g
       transform="translate(1.3908556,-16.142355)"
       id="g21215"><g
         id="g21106"><g
           transform="translate(0,4.0000004)"
           id="g21042"><rect
             width="2.6873913"
             x="10.398498"
             y="23.73308"
             gorn="0.0.9"
             height="2.6829755"
             id="upper connector bgnd"
             style="fill:#141414;stroke:none;stroke-width:0" /><rect
             width="1.6262999"
             x="10.929061"
             y="24.262754"
             gorn="0.0.10"
             height="1.6236277"
             id="connector9pin"
             style="fill:#8c8663;stroke:none;stroke-width:0" /><rect
             width="1.6262999"
             x="10.929061"
             y="24.262754"
             gorn="0.0.11"
             height="0.39407748"
             id="upper connector top inset"
             style="fill:#b8af82;stroke:none;stroke-width:0" /><rect
             width="1.6262999"
             x="10.929061"
             y="25.492306"
             gorn="0.0.12"
             height="0.39407748"
             id="upper connector bottom inset"
             style="fill:#5e5b43;stroke:none;stroke-width:0" /><path
             d="m 10.929061,24.262755 0,1.623627 0.394726,-0.394077 0,-0.835473 z"
             gorn="0.0.13"
             id="upper connector left inset"
             inkscape:connector-curvature="0"
             style="fill:#9a916c;stroke:none;stroke-width:0" /><path
             d="m 12.555333,24.262755 0,1.623627 -0.394726,-0.394077 0,-0.835473 z"
             gorn="0.0.14"
             id="upper connector right inset"
             inkscape:connector-curvature="0"
             style="fill:#9a916c;stroke:none;stroke-width:0" /></g><g
           transform="translate(4.5011077,4.0000004)"
           id="g21050"><rect
             style="fill:#141414;stroke:none;stroke-width:0"
             id="rect21052"
             height="2.6829755"
             gorn="0.0.9"
             y="23.73308"
             x="10.398498"
             width="2.6873913" /><rect
             style="fill:#8c8663;stroke:none;stroke-width:0"
             id="rect21054"
             height="1.6236277"
             gorn="0.0.10"
             y="24.262754"
             x="10.929061"
             width="1.6262999" /><rect
             style="fill:#b8af82;stroke:none;stroke-width:0"
             id="rect21056"
             height="0.39407748"
             gorn="0.0.11"
             y="24.262754"
             x="10.929061"
             width="1.6262999" /><rect
             style="fill:#5e5b43;stroke:none;stroke-width:0"
             id="rect21058"
             height="0.39407748"
             gorn="0.0.12"
             y="25.492306"
             x="10.929061"
             width="1.6262999" /><path
             style="fill:#9a916c;stroke:none;stroke-width:0"
             inkscape:connector-curvature="0"
             id="path21060"
             gorn="0.0.13"
             d="m 10.929061,24.262755 0,1.623627 0.394726,-0.394077 0,-0.835473 z" /><path
             style="fill:#9a916c;stroke:none;stroke-width:0"
             inkscape:connector-curvature="0"
             id="path21062"
             gorn="0.0.14"
             d="m 12.555333,24.262755 0,1.623627 -0.394726,-0.394077 0,-0.835473 z" /></g><g
           transform="translate(9.001108,4.0000004)"
           id="g21064"><rect
             style="fill:#141414;stroke:none;stroke-width:0"
             id="rect21066"
             height="2.6829755"
             gorn="0.0.9"
             y="23.73308"
             x="10.398498"
             width="2.6873913" /><rect
             style="fill:#8c8663;stroke:none;stroke-width:0"
             id="rect21068"
             height="1.6236277"
             gorn="0.0.10"
             y="24.262754"
             x="10.929061"
             width="1.6262999" /><rect
             style="fill:#b8af82;stroke:none;stroke-width:0"
             id="rect21070"
             height="0.39407748"
             gorn="0.0.11"
             y="24.262754"
             x="10.929061"
             width="1.6262999" /><rect
             style="fill:#5e5b43;stroke:none;stroke-width:0"
             id="rect21072"
             height="0.39407748"
             gorn="0.0.12"
             y="25.492306"
             x="10.929061"
             width="1.6262999" /><path
             style="fill:#9a916c;stroke:none;stroke-width:0"
             inkscape:connector-curvature="0"
             id="path21074"
             gorn="0.0.13"
             d="m 10.929061,24.262755 0,1.623627 0.394726,-0.394077 0,-0.835473 z" /><path
             style="fill:#9a916c;stroke:none;stroke-width:0"
             inkscape:connector-curvature="0"
             id="path21076"
             gorn="0.0.14"
             d="m 12.555333,24.262755 0,1.623627 -0.394726,-0.394077 0,-0.835473 z" /></g><g
           id="g21078"
           transform="translate(13.502216,4.0000004)"><rect
             width="2.6873913"
             x="10.398498"
             y="23.73308"
             gorn="0.0.9"
             height="2.6829755"
             id="rect21080"
             style="fill:#141414;stroke:none;stroke-width:0" /><rect
             width="1.6262999"
             x="10.929061"
             y="24.262754"
             gorn="0.0.10"
             height="1.6236277"
             id="rect21082"
             style="fill:#8c8663;stroke:none;stroke-width:0" /><rect
             width="1.6262999"
             x="10.929061"
             y="24.262754"
             gorn="0.0.11"
             height="0.39407748"
             id="rect21084"
             style="fill:#b8af82;stroke:none;stroke-width:0" /><rect
             width="1.6262999"
             x="10.929061"
             y="25.492306"
             gorn="0.0.12"
             height="0.39407748"
             id="rect21086"
             style="fill:#5e5b43;stroke:none;stroke-width:0" /><path
             d="m 10.929061,24.262755 0,1.623627 0.394726,-0.394077 0,-0.835473 z"
             gorn="0.0.13"
             id="path21088"
             inkscape:connector-curvature="0"
             style="fill:#9a916c;stroke:none;stroke-width:0" /><path
             d="m 12.555333,24.262755 0,1.623627 -0.394726,-0.394077 0,-0.835473 z"
             gorn="0.0.14"
             id="path21090"
             inkscape:connector-curvature="0"
             style="fill:#9a916c;stroke:none;stroke-width:0" /></g><g
           transform="translate(18.001109,4.0000004)"
           id="g21092"><rect
             style="fill:#141414;stroke:none;stroke-width:0"
             id="rect21094"
             height="2.6829755"
             gorn="0.0.9"
             y="23.73308"
             x="10.398498"
             width="2.6873913" /><rect
             style="fill:#8c8663;stroke:none;stroke-width:0"
             id="rect21096"
             height="1.6236277"
             gorn="0.0.10"
             y="24.262754"
             x="10.929061"
             width="1.6262999" /><rect
             style="fill:#b8af82;stroke:none;stroke-width:0"
             id="rect21098"
             height="0.39407748"
             gorn="0.0.11"
             y="24.262754"
             x="10.929061"
             width="1.6262999" /><rect
             style="fill:#5e5b43;stroke:none;stroke-width:0"
             id="rect21100"
             height="0.39407748"
             gorn="0.0.12"
             y="25.492306"
             x="10.929061"
             width="1.6262999" /><path
             style="fill:#9a916c;stroke:none;stroke-width:0"
             inkscape:connector-curvature="0"
             id="path21102"
             gorn="0.0.13"
             d="m 10.929061,24.262755 0,1.623627 0.394726,-0.394077 0,-0.835473 z" /><path
             style="fill:#9a916c;stroke:none;stroke-width:0"
             inkscape:connector-curvature="0"
             id="path21104"
             gorn="0.0.14"
             d="m 12.555333,24.262755 0,1.623627 -0.394726,-0.394077 0,-0.835473 z" /></g></g><g
         id="g21143"
         transform="translate(0,-4.5003047)"><g
           id="g21145"
           transform="translate(0,4.0000004)"><rect
             style="fill:#141414;stroke:none;stroke-width:0"
             id="rect21147"
             height="2.6829755"
             gorn="0.0.9"
             y="23.73308"
             x="10.398498"
             width="2.6873913" /><rect
             style="fill:#8c8663;stroke:none;stroke-width:0"
             id="rect21149"
             height="1.6236277"
             gorn="0.0.10"
             y="24.262754"
             x="10.929061"
             width="1.6262999" /><rect
             style="fill:#b8af82;stroke:none;stroke-width:0"
             id="rect21151"
             height="0.39407748"
             gorn="0.0.11"
             y="24.262754"
             x="10.929061"
             width="1.6262999" /><rect
             style="fill:#5e5b43;stroke:none;stroke-width:0"
             id="rect21153"
             height="0.39407748"
             gorn="0.0.12"
             y="25.492306"
             x="10.929061"
             width="1.6262999" /><path
             style="fill:#9a916c;stroke:none;stroke-width:0"
             inkscape:connector-curvature="0"
             id="path21155"
             gorn="0.0.13"
             d="m 10.929061,24.262755 0,1.623627 0.394726,-0.394077 0,-0.835473 z" /><path
             style="fill:#9a916c;stroke:none;stroke-width:0"
             inkscape:connector-curvature="0"
             id="path21157"
             gorn="0.0.14"
             d="m 12.555333,24.262755 0,1.623627 -0.394726,-0.394077 0,-0.835473 z" /></g><g
           id="g21159"
           transform="translate(4.5011077,4.0000004)"><rect
             width="2.6873913"
             x="10.398498"
             y="23.73308"
             gorn="0.0.9"
             height="2.6829755"
             id="rect21161"
             style="fill:#141414;stroke:none;stroke-width:0" /><rect
             width="1.6262999"
             x="10.929061"
             y="24.262754"
             gorn="0.0.10"
             height="1.6236277"
             id="rect21163"
             style="fill:#8c8663;stroke:none;stroke-width:0" /><rect
             width="1.6262999"
             x="10.929061"
             y="24.262754"
             gorn="0.0.11"
             height="0.39407748"
             id="rect21165"
             style="fill:#b8af82;stroke:none;stroke-width:0" /><rect
             width="1.6262999"
             x="10.929061"
             y="25.492306"
             gorn="0.0.12"
             height="0.39407748"
             id="rect21167"
             style="fill:#5e5b43;stroke:none;stroke-width:0" /><path
             d="m 10.929061,24.262755 0,1.623627 0.394726,-0.394077 0,-0.835473 z"
             gorn="0.0.13"
             id="path21169"
             inkscape:connector-curvature="0"
             style="fill:#9a916c;stroke:none;stroke-width:0" /><path
             d="m 12.555333,24.262755 0,1.623627 -0.394726,-0.394077 0,-0.835473 z"
             gorn="0.0.14"
             id="path21171"
             inkscape:connector-curvature="0"
             style="fill:#9a916c;stroke:none;stroke-width:0" /></g><g
           id="g21173"
           transform="translate(9.001108,4.0000004)"><rect
             width="2.6873913"
             x="10.398498"
             y="23.73308"
             gorn="0.0.9"
             height="2.6829755"
             id="rect21175"
             style="fill:#141414;stroke:none;stroke-width:0" /><rect
             width="1.6262999"
             x="10.929061"
             y="24.262754"
             gorn="0.0.10"
             height="1.6236277"
             id="rect21177"
             style="fill:#8c8663;stroke:none;stroke-width:0" /><rect
             width="1.6262999"
             x="10.929061"
             y="24.262754"
             gorn="0.0.11"
             height="0.39407748"
             id="rect21179"
             style="fill:#b8af82;stroke:none;stroke-width:0" /><rect
             width="1.6262999"
             x="10.929061"
             y="25.492306"
             gorn="0.0.12"
             height="0.39407748"
             id="rect21181"
             style="fill:#5e5b43;stroke:none;stroke-width:0" /><path
             d="m 10.929061,24.262755 0,1.623627 0.394726,-0.394077 0,-0.835473 z"
             gorn="0.0.13"
             id="path21183"
             inkscape:connector-curvature="0"
             style="fill:#9a916c;stroke:none;stroke-width:0" /><path
             d="m 12.555333,24.262755 0,1.623627 -0.394726,-0.394077 0,-0.835473 z"
             gorn="0.0.14"
             id="path21185"
             inkscape:connector-curvature="0"
             style="fill:#9a916c;stroke:none;stroke-width:0" /></g><g
           transform="translate(13.502216,4.0000004)"
           id="g21187"><rect
             style="fill:#141414;stroke:none;stroke-width:0"
             id="rect21189"
             height="2.6829755"
             gorn="0.0.9"
             y="23.73308"
             x="10.398498"
             width="2.6873913" /><rect
             style="fill:#8c8663;stroke:none;stroke-width:0"
             id="rect21191"
             height="1.6236277"
             gorn="0.0.10"
             y="24.262754"
             x="10.929061"
             width="1.6262999" /><rect
             style="fill:#b8af82;stroke:none;stroke-width:0"
             id="rect21193"
             height="0.39407748"
             gorn="0.0.11"
             y="24.262754"
             x="10.929061"
             width="1.6262999" /><rect
             style="fill:#5e5b43;stroke:none;stroke-width:0"
             id="rect21195"
             height="0.39407748"
             gorn="0.0.12"
             y="25.492306"
             x="10.929061"
             width="1.6262999" /><path
             style="fill:#9a916c;stroke:none;stroke-width:0"
             inkscape:connector-curvature="0"
             id="path21197"
             gorn="0.0.13"
             d="m 10.929061,24.262755 0,1.623627 0.394726,-0.394077 0,-0.835473 z" /><path
             style="fill:#9a916c;stroke:none;stroke-width:0"
             inkscape:connector-curvature="0"
             id="path21199"
             gorn="0.0.14"
             d="m 12.555333,24.262755 0,1.623627 -0.394726,-0.394077 0,-0.835473 z" /></g><g
           id="g21201"
           transform="translate(18.001109,4.0000004)"><rect
             width="2.6873913"
             x="10.398498"
             y="23.73308"
             gorn="0.0.9"
             height="2.6829755"
             id="rect21203"
             style="fill:#141414;stroke:none;stroke-width:0" /><rect
             width="1.6262999"
             x="10.929061"
             y="24.262754"
             gorn="0.0.10"
             height="1.6236277"
             id="rect21205"
             style="fill:#8c8663;stroke:none;stroke-width:0" /><rect
             width="1.6262999"
             x="10.929061"
             y="24.262754"
             gorn="0.0.11"
             height="0.39407748"
             id="rect21207"
             style="fill:#b8af82;stroke:none;stroke-width:0" /><rect
             width="1.6262999"
             x="10.929061"
             y="25.492306"
             gorn="0.0.12"
             height="0.39407748"
             id="rect21209"
             style="fill:#5e5b43;stroke:none;stroke-width:0" /><path
             d="m 10.929061,24.262755 0,1.623627 0.394726,-0.394077 0,-0.835473 z"
             gorn="0.0.13"
             id="path21211"
             inkscape:connector-curvature="0"
             style="fill:#9a916c;stroke:none;stroke-width:0" /><path
             d="m 12.555333,24.262755 0,1.623627 -0.394726,-0.394077 0,-0.835473 z"
             gorn="0.0.14"
             id="path21213"
             inkscape:connector-curvature="0"
             style="fill:#9a916c;stroke:none;stroke-width:0" /></g></g></g></g></svg>