<?xml version="1.0" encoding="utf-8"?>
<!-- Generator: Adobe Illustrator 19.2.1, SVG Export Plug-In . SVG Version: 6.00 Build 0)  -->
<svg version="1.2" baseProfile="tiny" id="Layer_1" xmlns="http://www.w3.org/2000/svg" xmlns:xlink="http://www.w3.org/1999/xlink"
	 x="0px" y="0px" width="22.677px" height="16.654px" viewBox="0 0 22.677 16.654" xml:space="preserve">
<g>
	
		<rect x="0" y="5.527" transform="matrix(-1 -8.983804e-11 8.983804e-11 -1 22.6772 15.0235)" fill="#B4B4B4" width="22.677" height="3.969"/>
	
		<rect x="11.055" y="13.252" transform="matrix(-1 -8.983804e-11 8.983804e-11 -1 22.6771 29.9055)" fill="#DCDCDC" width="0.567" height="3.402"/>
	
		<rect x="9.213" y="13.252" transform="matrix(-1 -8.983804e-11 8.983804e-11 -1 18.992 29.9055)" fill="#DCDCDC" width="0.567" height="3.402"/>
	
		<rect x="7.37" y="13.252" transform="matrix(-1 -8.983804e-11 8.983804e-11 -1 15.307 29.9055)" fill="#DCDCDC" width="0.567" height="3.402"/>
	
		<rect x="12.898" y="13.252" transform="matrix(-1 -8.983804e-11 8.983804e-11 -1 26.3621 29.9055)" fill="#DCDCDC" width="0.567" height="3.402"/>
	
		<rect x="14.74" y="13.252" transform="matrix(-1 -8.983804e-11 8.983804e-11 -1 30.0472 29.9055)" fill="#DCDCDC" width="0.567" height="3.402"/>
	
		<rect x="4.252" y="14.457" transform="matrix(-1 -8.977365e-11 8.977365e-11 -1 22.6771 29.622)" fill="#B4B4B4" width="14.173" height="0.709"/>
	<rect x="4.252" y="11.905" transform="matrix(-1 -8.977365e-11 8.977365e-11 -1 22.6771 26.7874)" width="14.173" height="2.976"/>
	<polygon fill="#DCDCDC" points="5.669,15.307 5.669,13.181 7.937,13.181 7.937,12.472 9.354,12.472 9.354,15.024 13.323,15.024 
		13.323,12.472 14.74,12.472 14.74,13.181 17.008,13.181 17.008,15.307 22.11,15.307 22.11,1.701 0.567,1.701 0.567,15.307 	"/>
	<polygon points="16.866,4.535 18.85,4.535 18.567,8.787 17.15,8.787 	"/>
	<polygon points="3.827,4.535 5.811,4.535 5.528,8.787 4.11,8.787 	"/>
	<polygon fill="#F0F0F0" points="1.701,0 20.976,0 21.543,1.701 1.134,1.701 	"/>
	<polygon fill="#B4B4B4" points="22.11,0 22.677,0 22.11,1.701 21.543,1.701 	"/>
	<polygon fill="#B4B4B4" points="0,0 0.567,0 1.134,1.701 0.567,1.701 	"/>
</g>
</svg>
