<?xml version="1.0" encoding="utf-8"?>
<!-- Generator: Adobe Illustrator 20.0.0, SVG Export Plug-In . SVG Version: 6.00 Build 0)  -->
<svg version="1.2" baseProfile="tiny" id="Layer_1" xmlns="http://www.w3.org/2000/svg" xmlns:xlink="http://www.w3.org/1999/xlink"
	 x="0px" y="0px" width="9.78px" height="9.777px" viewBox="0 0 9.78 9.777" xml:space="preserve">
<path fill="#9FBBE0" d="M9.773,4.306C9.741,4.106,9.632,4.049,9.37,3.965C9.171,3.901,7.837,3.476,7.837,3.476
	s-0.93-0.351-1.619,0.146C6.125,3.688,6.029,3.765,5.932,3.846C6.014,3.749,6.09,3.653,6.156,3.56
	c0.495-0.69,0.143-1.619,0.143-1.619S5.872,0.607,5.807,0.408c-0.085-0.262-0.142-0.37-0.342-0.402
	c-0.2-0.032-0.288,0.054-0.449,0.277c-0.122,0.17-0.939,1.307-0.939,1.307S3.456,2.367,3.716,3.176
	C3.75,3.285,3.793,3.4,3.841,3.517C3.774,3.409,3.706,3.308,3.638,3.215C3.135,2.531,2.142,2.579,2.142,2.579s-1.4-0.006-1.61-0.006
	c-0.275-0.001-0.396,0.02-0.488,0.201C-0.047,2.955,0.007,3.065,0.17,3.287c0.124,0.169,0.953,1.297,0.953,1.297
	s0.546,0.83,1.395,0.834c0.114,0,0.236-0.005,0.362-0.014c-0.122,0.03-0.24,0.064-0.348,0.1C1.726,5.771,1.465,6.73,1.465,6.73
	S1.027,8.06,0.962,8.259C0.876,8.52,0.859,8.642,1.002,8.785c0.144,0.143,0.265,0.126,0.526,0.04
	C1.727,8.76,3.056,8.319,3.056,8.319s0.958-0.263,1.224-1.07C4.316,7.141,4.349,7.024,4.38,6.901
	C4.371,7.027,4.366,7.149,4.367,7.263c0.005,0.849,0.836,1.394,0.836,1.394s1.13,0.827,1.298,0.951
	C6.724,9.77,6.834,9.824,7.015,9.732c0.181-0.092,0.201-0.213,0.2-0.488C7.214,9.034,7.206,7.634,7.206,7.634
	s0.047-0.993-0.639-1.495C6.475,6.072,6.373,6.004,6.266,5.937c0.117,0.047,0.232,0.09,0.34,0.124
	c0.81,0.258,1.584-0.364,1.584-0.364s1.136-0.819,1.306-0.941C9.719,4.595,9.805,4.507,9.773,4.306z M4.951,3.275
	C5.103,3.299,5.179,3.624,5.12,4.001C5.061,4.378,4.889,4.663,4.736,4.639C4.583,4.615,4.507,4.29,4.567,3.914
	C4.626,3.537,4.798,3.251,4.951,3.275z M2.995,4.274c0.07-0.138,0.402-0.11,0.742,0.063C4.077,4.51,4.295,4.762,4.225,4.9
	c-0.07,0.138-0.402,0.11-0.742-0.063C3.143,4.664,2.925,4.412,2.995,4.274z M4.026,6.152c-0.269,0.27-0.577,0.4-0.686,0.291
	C3.231,6.334,3.36,6.027,3.63,5.757c0.269-0.27,0.576-0.4,0.686-0.291C4.425,5.575,4.295,5.882,4.026,6.152z M5.51,6.785
	c-0.138,0.07-0.39-0.148-0.563-0.487C4.773,5.958,4.744,5.625,4.882,5.555c0.138-0.07,0.39,0.148,0.563,0.487
	C5.618,6.382,5.647,6.714,5.51,6.785z M5.867,5.212c-0.377,0.06-0.701-0.015-0.726-0.168C5.117,4.891,5.403,4.719,5.779,4.659
	c0.377-0.06,0.701,0.015,0.726,0.168C6.529,4.98,6.244,5.152,5.867,5.212z"/>
</svg>
