<?xml version="1.0" encoding="utf-8"?>
<!-- Generator: Adobe Illustrator 19.2.1, SVG Export Plug-In . SVG Version: 6.00 Build 0)  -->
<svg version="1.2" baseProfile="tiny" id="Layer_1" xmlns="http://www.w3.org/2000/svg" xmlns:xlink="http://www.w3.org/1999/xlink"
	 x="0px" y="0px" width="9.775px" height="9.773px" viewBox="0 0 9.775 9.773" xml:space="preserve">
<path fill="#FFFFFF" d="M9.771,3.058c-0.023-0.142-0.1-0.183-0.286-0.243C9.344,2.77,8.396,2.468,8.396,2.468
	s-0.66-0.249-1.15,0.103C7.18,2.619,7.112,2.673,7.043,2.731c0.058-0.069,0.112-0.137,0.159-0.203c0.352-0.49,0.101-1.15,0.101-1.15
	S7,0.431,6.955,0.29c-0.06-0.186-0.101-0.263-0.243-0.285C6.569-0.018,6.507,0.043,6.393,0.201C6.306,0.322,5.726,1.13,5.726,1.13
	S5.285,1.681,5.469,2.255c0.025,0.077,0.055,0.159,0.089,0.242C5.511,2.421,5.462,2.349,5.414,2.283
	C5.057,1.797,4.352,1.832,4.352,1.832S3.357,1.828,3.209,1.827c-0.195,0-0.281,0.014-0.347,0.143
	C2.797,2.099,2.836,2.177,2.951,2.334c0.088,0.12,0.677,0.921,0.677,0.921s0.388,0.59,0.991,0.592c0.081,0,0.168-0.003,0.257-0.01
	C4.789,3.86,4.706,3.883,4.629,3.909c-0.573,0.19-0.758,0.871-0.758,0.871S3.56,5.724,3.513,5.865
	C3.453,6.051,3.44,6.137,3.542,6.239C3.644,6.341,3.73,6.328,3.916,6.267c0.141-0.046,1.085-0.359,1.085-0.359
	s0.681-0.187,0.869-0.76c0.025-0.077,0.049-0.16,0.07-0.247C5.935,4.99,5.931,5.077,5.932,5.158c0.004,0.603,0.594,0.99,0.594,0.99
	s0.802,0.588,0.922,0.675c0.158,0.115,0.236,0.154,0.364,0.088C7.94,6.846,7.955,6.76,7.954,6.564
	C7.954,6.416,7.948,5.421,7.948,5.421S7.981,4.716,7.494,4.36C7.429,4.312,7.357,4.264,7.281,4.216
	C7.364,4.25,7.445,4.28,7.522,4.305c0.575,0.183,1.125-0.259,1.125-0.259s0.807-0.581,0.927-0.668
	C9.733,3.263,9.794,3.2,9.771,3.058z M6.346,2.326c0.108,0.017,0.162,0.248,0.12,0.515c-0.042,0.267-0.164,0.47-0.273,0.453
	c-0.109-0.017-0.162-0.248-0.12-0.515C6.116,2.512,6.238,2.309,6.346,2.326z M4.957,3.035c0.05-0.098,0.286-0.078,0.527,0.045
	C5.726,3.203,5.881,3.382,5.831,3.48c-0.05,0.098-0.286,0.078-0.527-0.045C5.063,3.312,4.907,3.133,4.957,3.035z M5.69,4.369
	C5.498,4.561,5.28,4.653,5.203,4.575C5.125,4.498,5.217,4.28,5.408,4.088C5.6,3.896,5.818,3.804,5.895,3.882
	C5.973,3.959,5.881,4.177,5.69,4.369z M6.743,4.818c-0.098,0.05-0.277-0.105-0.4-0.346C6.22,4.231,6.199,3.995,6.297,3.945
	c0.098-0.05,0.277,0.105,0.4,0.346C6.82,4.532,6.841,4.768,6.743,4.818z M6.997,3.701C6.73,3.744,6.499,3.691,6.482,3.582
	C6.465,3.474,6.667,3.351,6.935,3.309C7.202,3.266,7.433,3.319,7.45,3.428C7.467,3.536,7.265,3.659,6.997,3.701z"/>
</svg>
