<?xml version="1.0" encoding="utf-8"?>
<!-- Generator: Adobe Illustrator 19.2.1, SVG Export Plug-In . SVG Version: 6.00 Build 0)  -->
<svg version="1.2" baseProfile="tiny" id="Layer_1" xmlns="http://www.w3.org/2000/svg" xmlns:xlink="http://www.w3.org/1999/xlink"
	 x="0px" y="0px" width="6.945px" height="6.943px" viewBox="0 0 6.945 6.943" xml:space="preserve">
<path fill="#FFFFFF" d="M6.94,3.058c-0.023-0.142-0.1-0.183-0.286-0.243C6.513,2.77,5.565,2.468,5.565,2.468s-0.66-0.249-1.15,0.103
	C4.35,2.619,4.282,2.673,4.213,2.731c0.058-0.069,0.112-0.137,0.159-0.203c0.352-0.49,0.101-1.15,0.101-1.15S4.17,0.431,4.124,0.29
	c-0.06-0.186-0.101-0.263-0.243-0.285C3.739-0.018,3.676,0.043,3.562,0.201C3.475,0.322,2.895,1.13,2.895,1.13
	S2.454,1.681,2.639,2.255c0.025,0.077,0.055,0.159,0.089,0.242C2.68,2.421,2.632,2.349,2.584,2.283
	C2.226,1.797,1.521,1.832,1.521,1.832S0.527,1.828,0.378,1.827c-0.195,0-0.281,0.014-0.347,0.143
	c-0.065,0.128-0.027,0.207,0.089,0.364c0.088,0.12,0.677,0.921,0.677,0.921s0.388,0.59,0.991,0.592c0.081,0,0.168-0.003,0.257-0.01
	C1.959,3.86,1.875,3.883,1.798,3.909C1.225,4.098,1.04,4.779,1.04,4.779S0.729,5.724,0.683,5.865
	C0.622,6.051,0.61,6.137,0.712,6.239C0.814,6.341,0.9,6.328,1.085,6.267c0.141-0.046,1.085-0.359,1.085-0.359
	s0.681-0.187,0.869-0.76c0.025-0.077,0.049-0.16,0.07-0.247C3.104,4.99,3.1,5.077,3.101,5.158c0.004,0.603,0.594,0.99,0.594,0.99
	s0.802,0.588,0.922,0.675c0.158,0.115,0.236,0.154,0.364,0.088C5.11,6.846,5.124,6.76,5.124,6.564
	C5.123,6.416,5.117,5.421,5.117,5.421S5.15,4.716,4.664,4.36C4.598,4.312,4.526,4.264,4.45,4.216C4.533,4.25,4.614,4.28,4.692,4.305
	c0.575,0.183,1.125-0.259,1.125-0.259s0.807-0.581,0.927-0.668C6.902,3.263,6.963,3.2,6.94,3.058z M3.516,2.326
	c0.108,0.017,0.162,0.248,0.12,0.515c-0.042,0.267-0.164,0.47-0.273,0.453c-0.109-0.017-0.162-0.248-0.12-0.515
	C3.285,2.512,3.407,2.309,3.516,2.326z M2.127,3.035c0.05-0.098,0.286-0.078,0.527,0.045C2.895,3.203,3.05,3.382,3.001,3.48
	c-0.05,0.098-0.286,0.078-0.527-0.045C2.232,3.312,2.077,3.133,2.127,3.035z M2.859,4.369C2.668,4.561,2.45,4.653,2.372,4.575
	C2.294,4.498,2.386,4.28,2.578,4.088c0.191-0.192,0.409-0.284,0.487-0.206C3.142,3.959,3.05,4.177,2.859,4.369z M3.913,4.818
	c-0.098,0.05-0.277-0.105-0.4-0.346C3.389,4.231,3.369,3.995,3.467,3.945c0.098-0.05,0.277,0.105,0.4,0.346
	C3.99,4.532,4.01,4.768,3.913,4.818z M4.167,3.701C3.899,3.744,3.668,3.691,3.651,3.582C3.634,3.474,3.837,3.351,4.104,3.309
	c0.267-0.043,0.498,0.011,0.515,0.119C4.637,3.536,4.434,3.659,4.167,3.701z"/>
</svg>
