<?xml version="1.0" encoding="utf-8"?>
<!-- Generator: Adobe Illustrator 20.0.0, SVG Export Plug-In . SVG Version: 6.00 Build 0)  -->
<svg version="1.2" baseProfile="tiny" id="Layer_1" xmlns="http://www.w3.org/2000/svg" xmlns:xlink="http://www.w3.org/1999/xlink"
	 x="0px" y="0px" width="14.031px" height="14.028px" viewBox="0 0 14.031 14.028" xml:space="preserve">
<path fill="#9FBBE0" d="M14.022,6.179c-0.046-0.288-0.202-0.37-0.578-0.49c-0.286-0.091-2.2-0.701-2.2-0.701
	S9.911,4.484,8.921,5.196c-0.133,0.096-0.271,0.205-0.41,0.322c0.117-0.139,0.226-0.277,0.322-0.41
	c0.711-0.99,0.205-2.323,0.205-2.323S8.425,0.871,8.332,0.586C8.211,0.21,8.129,0.054,7.841,0.009
	C7.554-0.036,7.428,0.087,7.197,0.407C7.022,0.651,5.85,2.283,5.85,2.283S4.959,3.396,5.331,4.557
	c0.05,0.156,0.111,0.321,0.18,0.489c-0.096-0.154-0.194-0.3-0.291-0.433C4.497,3.632,3.073,3.701,3.073,3.701
	S1.064,3.693,0.764,3.692c-0.395-0.001-0.568,0.029-0.7,0.289C-0.068,4.24,0.01,4.398,0.243,4.716
	c0.177,0.242,1.367,1.861,1.367,1.861s0.783,1.191,2.002,1.196c0.164,0.001,0.339-0.007,0.52-0.02
	c-0.176,0.044-0.345,0.091-0.5,0.143C2.476,8.281,2.102,9.656,2.102,9.656S1.473,11.564,1.38,11.85
	c-0.123,0.375-0.148,0.549,0.058,0.755c0.206,0.206,0.38,0.18,0.755,0.057c0.285-0.094,2.192-0.726,2.192-0.726
	s1.375-0.377,1.757-1.535c0.051-0.155,0.098-0.324,0.142-0.499c-0.012,0.18-0.02,0.355-0.019,0.519c0.007,1.219,1.2,2,1.2,2
	s1.621,1.187,1.863,1.364c0.319,0.233,0.477,0.31,0.736,0.178c0.259-0.132,0.289-0.306,0.287-0.701
	c-0.001-0.3-0.013-2.309-0.013-2.309s0.067-1.424-0.917-2.145C9.29,8.712,9.145,8.615,8.991,8.519
	c0.168,0.068,0.332,0.129,0.488,0.178c1.161,0.37,2.273-0.523,2.273-0.523S13.382,7,13.625,6.824
	C13.945,6.592,14.068,6.466,14.022,6.179z M7.103,4.7C7.322,4.734,7.431,5.2,7.346,5.74c-0.085,0.54-0.332,0.95-0.551,0.916
	C6.576,6.622,6.467,6.156,6.552,5.615C6.637,5.075,6.884,4.665,7.103,4.7z M4.297,6.132c0.101-0.198,0.577-0.157,1.065,0.091
	C5.849,6.471,6.163,6.833,6.063,7.03C5.962,7.228,5.485,7.187,4.997,6.94C4.51,6.692,4.196,6.33,4.297,6.132z M5.776,8.827
	C5.39,9.214,4.949,9.401,4.792,9.244C4.635,9.088,4.821,8.647,5.208,8.26c0.386-0.387,0.827-0.574,0.984-0.417
	C6.349,7.999,6.163,8.44,5.776,8.827z M7.905,9.735C7.707,9.835,7.346,9.522,7.097,9.035C6.848,8.548,6.807,8.071,7.004,7.97
	C7.202,7.869,7.563,8.183,7.812,8.67C8.061,9.157,8.103,9.634,7.905,9.735z M8.418,7.478c-0.54,0.086-1.006-0.022-1.041-0.241
	C7.342,7.018,7.752,6.771,8.292,6.685c0.54-0.086,1.006,0.022,1.041,0.241C9.368,7.145,8.958,7.392,8.418,7.478z"/>
</svg>
