<?xml version="1.0" encoding="utf-8"?>
<!-- Generator: Adobe Illustrator 25.4.1, SVG Export Plug-In . SVG Version: 6.00 Build 0)  -->
<svg version="1.1" id="Layer_1" xmlns="http://www.w3.org/2000/svg" xmlns:xlink="http://www.w3.org/1999/xlink" x="0px" y="0px"
	 width="98.2016px" height="98.5319px" viewBox="0 0 98.2016 98.5319" enable-background="new 0 0 98.2016 98.5319"
	 xml:space="preserve">
<g>
	<circle stroke="#232323" stroke-width="0.7087" cx="49.09" cy="49.1648" r="48.5121"/>
	<circle fill="none" stroke="#232323" stroke-width="0.7087" cx="49.09" cy="49.1648" r="11.4803"/>
	<circle fill="none" stroke="#232323" stroke-width="0.7087" cx="49.09" cy="49.1648" r="45.3543"/>
	<circle fill="none" stroke="#232323" stroke-width="0.7087" cx="49.09" cy="49.1648" r="32.4567"/>
	<g>
		
			<line fill="none" stroke="#383838" stroke-width="0.7087" stroke-linecap="round" x1="90.9575" y1="49.2108" x2="86.1465" y2="44.4003"/>
		
			<line fill="none" stroke="#383838" stroke-width="0.7087" stroke-linecap="round" x1="86.1465" y1="44.4003" x2="86.1465" y2="54.0213"/>
		
			<line fill="none" stroke="#383838" stroke-width="0.7087" stroke-linecap="round" x1="86.1465" y1="54.0213" x2="90.9575" y2="49.2108"/>
		
			<line fill="none" stroke="#383838" stroke-width="0.7087" stroke-linecap="round" x1="7.5744" y1="49.2108" x2="12.385" y2="54.0213"/>
		
			<line fill="none" stroke="#383838" stroke-width="0.7087" stroke-linecap="round" x1="12.385" y1="54.0213" x2="12.385" y2="44.4003"/>
		
			<line fill="none" stroke="#383838" stroke-width="0.7087" stroke-linecap="round" x1="12.385" y1="44.4003" x2="7.5744" y2="49.2108"/>
		
			<line fill="none" stroke="#383838" stroke-width="0.7087" stroke-linecap="round" x1="49.2659" y1="90.9024" x2="54.0764" y2="86.0914"/>
		
			<line fill="none" stroke="#383838" stroke-width="0.7087" stroke-linecap="round" x1="54.0764" y1="86.0914" x2="44.4554" y2="86.0914"/>
		
			<line fill="none" stroke="#383838" stroke-width="0.7087" stroke-linecap="round" x1="44.4554" y1="86.0914" x2="49.2659" y2="90.9024"/>
		
			<line fill="none" stroke="#383838" stroke-width="0.7087" stroke-linecap="round" x1="49.2659" y1="7.5194" x2="44.4554" y2="12.3299"/>
		
			<line fill="none" stroke="#383838" stroke-width="0.7087" stroke-linecap="round" x1="44.4554" y1="12.3299" x2="54.0764" y2="12.3299"/>
		
			<line fill="none" stroke="#383838" stroke-width="0.7087" stroke-linecap="round" x1="54.0764" y1="12.3299" x2="49.2659" y2="7.5194"/>
	</g>
</g>
</svg>
