<?xml version="1.0" encoding="UTF-8" standalone="no"?>
<!-- Generator: Adobe Illustrator 15.0.1, SVG Export Plug-In . SVG Version: 6.00 Build 0)  -->

<svg
   xmlns:dc="http://purl.org/dc/elements/1.1/"
   xmlns:cc="http://creativecommons.org/ns#"
   xmlns:rdf="http://www.w3.org/1999/02/22-rdf-syntax-ns#"
   xmlns:svg="http://www.w3.org/2000/svg"
   xmlns="http://www.w3.org/2000/svg"
   xmlns:xlink="http://www.w3.org/1999/xlink"
   xmlns:sodipodi="http://sodipodi.sourceforge.net/DTD/sodipodi-0.dtd"
   xmlns:inkscape="http://www.inkscape.org/namespaces/inkscape"
   version="1.1"
   id="Ebene_1"
   x="0px"
   y="0px"
   width="7.3064933mm"
   height="6.0000114mm"
   viewBox="0 0 25.889149 21.259884"
   xml:space="preserve"
   inkscape:version="0.91 r13725"
   sodipodi:docname="b3f-10xx.svg"><metadata
     id="metadata42"><rdf:RDF><cc:Work
         rdf:about=""><dc:format>image/svg+xml</dc:format><dc:type
           rdf:resource="http://purl.org/dc/dcmitype/StillImage" /><dc:title></dc:title></cc:Work></rdf:RDF></metadata><defs
     id="defs40"><linearGradient
       gradientTransform="matrix(0.7195,0,0,0.7195,-44.442,-2039.8834)"
       y2="2852.4309"
       x2="81.179901"
       y1="2852.4309"
       x1="66.878197"
       gradientUnits="userSpaceOnUse"
       id="SVGID_1_"><stop
         id="stop18"
         style="stop-color:#333333"
         offset="0" /><stop
         id="stop20"
         style="stop-color:#3C3C3C"
         offset="1" /></linearGradient><linearGradient
       inkscape:collect="always"
       xlink:href="#SVGID_1_-4"
       id="linearGradient15863"
       gradientUnits="userSpaceOnUse"
       gradientTransform="matrix(0.7195,0,0,0.7195,-44.442,-2039.8834)"
       x1="53.502602"
       y1="2281.95"
       x2="64.943901"
       y2="2281.95" /><linearGradient
       x2="64.943901"
       y2="2281.95"
       gradientUnits="userSpaceOnUse"
       x1="53.502602"
       gradientTransform="matrix(0.7195,0,0,0.7195,-44.442,-2039.8834)"
       id="SVGID_1_-4"
       y1="2281.95"><stop
         style="stop-color:#333333"
         offset="0"
         id="stop18-9" /><stop
         style="stop-color:#3C3C3C"
         offset="1"
         id="stop20-7" /></linearGradient></defs><sodipodi:namedview
     pagecolor="#ffffff"
     bordercolor="#666666"
     borderopacity="1"
     objecttolerance="10"
     gridtolerance="10"
     guidetolerance="10"
     inkscape:pageopacity="0"
     inkscape:pageshadow="2"
     inkscape:window-width="1745"
     inkscape:window-height="650"
     id="namedview38"
     showgrid="false"
     inkscape:zoom="9.9966114"
     inkscape:cx="22.465314"
     inkscape:cy="28.67208"
     inkscape:window-x="8"
     inkscape:window-y="495"
     inkscape:window-maximized="0"
     inkscape:current-layer="Ebene_1"
     fit-margin-top="0"
     fit-margin-left="0"
     fit-margin-right="0"
     fit-margin-bottom="0"
     inkscape:document-units="mm"
     units="mm" /><g
     transform="matrix(1.2499997,0,0,1.2499997,-176.04615,-185.6262)"
     id="g16673"><g
       id="g15853"><rect
         style="fill:#cccccc;stroke:#cccccc;stroke-width:0;stroke-miterlimit:4;stroke-dasharray:none;stroke-dashoffset:11.71939468;stroke-opacity:1"
         id="rect15849"
         width="20.711317"
         height="2.5710599"
         x="140.83696"
         y="149.40004"
         rx="1.6000005" /><rect
         rx="1.6000005"
         y="162.1125"
         x="140.83696"
         height="2.5710599"
         width="20.711317"
         id="rect15851"
         style="fill:#cccccc;stroke:#cccccc;stroke-width:0;stroke-miterlimit:4;stroke-dasharray:none;stroke-dashoffset:11.71939468;stroke-opacity:1" /></g><g
       id="g11280"
       transform="translate(142.733,148.501)"><metadata
         id="metadata11282"><rdf:RDF><cc:Work
             rdf:about=""><dc:format>image/svg+xml</dc:format><dc:type
               rdf:resource="http://purl.org/dc/dcmitype/StillImage" /><dc:title /></cc:Work></rdf:RDF></metadata><defs
         id="defs11284"><linearGradient
           y1="2281.95"
           id="linearGradient11286"
           gradientTransform="matrix(0.7195,0,0,0.7195,-44.442,-2039.8834)"
           x1="53.502602"
           gradientUnits="userSpaceOnUse"
           y2="2281.95"
           x2="64.943901"><stop
             id="stop11288"
             offset="0"
             style="stop-color:#333333" /><stop
             id="stop11290"
             offset="1"
             style="stop-color:#3C3C3C" /></linearGradient></defs><sodipodi:namedview
         inkscape:window-x="0"
         objecttolerance="10"
         pagecolor="#ffffff"
         inkscape:pageshadow="2"
         inkscape:window-maximized="0"
         gridtolerance="10"
         borderopacity="1"
         inkscape:window-width="1745"
         inkscape:document-units="mm"
         units="mm"
         fit-margin-right="0"
         fit-margin-top="0"
         showgrid="false"
         inkscape:zoom="9.9966114"
         inkscape:cx="-8.7354486"
         inkscape:cy="5.8380002"
         id="namedview11292"
         inkscape:window-height="650"
         bordercolor="#666666"
         inkscape:pageopacity="0"
         guidetolerance="10"
         inkscape:current-layer="Ebene_1"
         inkscape:window-y="0"
         fit-margin-left="0"
         fit-margin-bottom="0" /><g
         id="g11294"
         transform="matrix(1.20493,0,0,1.20507,0,-3.4878)"><path
           d="m 14.1128,15.8575 c 0,0.6344 -0.5168,1.1504 -1.1504,1.1504 l -11.812,0 C 0.5184,17.0079 0,16.4911 0,15.8575 L 0,4.04467 c 0.0016,-0.6336 0.5184,-1.1504 1.1504,-1.1504 l 11.8144,0 c 0.6344,0 1.1504,0.5168 1.1504,1.1504 l -0.0024,11.8128 0,0 z"
           id="path11296"
           inkscape:connector-curvature="0"
           style="fill:#999999" /><circle
           id="circle11298"
           cx="2.056"
           cy="4.9502702"
           r="1.2232" /><circle
           id="circle11300"
           cx="12.0928"
           cy="4.9710698"
           r="1.2232" /><circle
           id="circle11302"
           cx="12.072"
           cy="15.0071"
           r="1.2224" /><circle
           id="circle11304"
           cx="2.036"
           cy="14.9855"
           r="1.2224" /><circle
           id="circle11306"
           cx="7.0567999"
           cy="9.9518404"
           r="4.1160002"
           style="fill:#3f3f3f" /><circle
           id="circle11308"
           cx="7.0567999"
           cy="9.9518404"
           r="4.1160002"
           style="fill:url(#linearGradient15863)" /><circle
           id="circle11310"
           cx="7.1296"
           cy="10.4399"
           style="opacity:0.6"
           r="3.6215999" /><circle
           id="circle11312"
           cx="7.0632"
           cy="9.9758902"
           r="3.5295999"
           style="fill:#000000" /><path
           d="m 1.8992,4.88627 c 0.0224,-0.0568 0.068,-0.1024 0.1304,-0.1136 l -0.12,-0.769601 c -0.048,0.008 -0.0952,0.0016 -0.1416,0.0168 l 0,-0.0056 c -0.2856,0.0872 -0.4976,0.3008 -0.608,0.572 l 0.739202,0.3 z"
           id="path11314"
           inkscape:connector-curvature="0"
           style="opacity:0.5;fill:#ffffff" /><path
           d="m 11.9344,4.90787 c 0.0216,-0.0584 0.068,-0.1032 0.1312,-0.1144 l -0.1192,-0.7704 c -0.048,0.0088 -0.0944,0.0016 -0.1416,0.016 l -0.0016,-0.0048 c -0.2832,0.0864 -0.4984,0.2992 -0.6064,0.572 l 0.737597,0.3016 z"
           id="path11316"
           inkscape:connector-curvature="0"
           style="opacity:0.5;fill:#ffffff" /><path
           d="m 11.9128,14.9423 c 0.0232,-0.0576 0.0664,-0.1032 0.1304,-0.1144 l -0.1168,-0.7704 c -0.0496,0.0096 -0.0944,0.0016 -0.1432,0.0168 l -8e-4,-0.0064 c -0.2832,0.0848 -0.4984,0.3 -0.6072,0.572 l 0.737597,0.3024 z"
           id="path11318"
           inkscape:connector-curvature="0"
           style="opacity:0.5;fill:#ffffff" /><path
           d="M 1.8768,14.9223 C 1.9,14.8647 1.9448,14.8207 2.0088,14.8087 L 1.888,14.037501 c -0.0472,0.0112 -0.0936,0.0016 -0.1408,0.0168 l -0.0016,-0.0056 c -0.2832,0.0856 -0.4976,0.3 -0.608,0.5712 l 0.739202,0.3024 z"
           id="path11320"
           inkscape:connector-curvature="0"
           style="opacity:0.5;fill:#ffffff" /><path
           d="m 8.32478,6.68627 c -0.2736,-0.1072 -0.56,-0.1832 -0.864,-0.2184 -0.758398,-0.0848 -1.4848,0.0832 -2.1048,0.4272 l -0.0768,0.2008 c 0.6928,-0.3704 1.4984,-0.5424 2.3384,-0.4496 0.2584,0.0304 0.5112,0.088 0.750398,0.164 l -0.0432,-0.124 z"
           id="path11322"
           inkscape:connector-curvature="0"
           style="opacity:0.6;fill:#ffffff" /></g></g></g></svg>