<?xml version="1.0" encoding="UTF-8" standalone="no"?>
<!-- Generator: Adobe Illustrator 16.0.0, SVG Export Plug-In . SVG Version: 6.00 Build 0)  -->

<svg
   xmlns:dc="http://purl.org/dc/elements/1.1/"
   xmlns:cc="http://creativecommons.org/ns#"
   xmlns:rdf="http://www.w3.org/1999/02/22-rdf-syntax-ns#"
   xmlns:svg="http://www.w3.org/2000/svg"
   xmlns="http://www.w3.org/2000/svg"
   xmlns:sodipodi="http://sodipodi.sourceforge.net/DTD/sodipodi-0.dtd"
   xmlns:inkscape="http://www.inkscape.org/namespaces/inkscape"
   version="1.1"
   id="Ebene_1"
   x="0px"
   y="0px"
   width="52.009911"
   height="33.899399"
   viewBox="0 0 52.009912 33.8994"
   enable-background="new 0 0 25.459 39.142"
   xml:space="preserve"
   inkscape:version="0.91 r13725"
   sodipodi:docname="dcjack_2mm_pth.svg"><metadata
     id="metadata48"><rdf:RDF><cc:Work
         rdf:about=""><dc:format>image/svg+xml</dc:format><dc:type
           rdf:resource="http://purl.org/dc/dcmitype/StillImage" /><dc:title></dc:title></cc:Work></rdf:RDF></metadata><defs
     id="defs46" /><sodipodi:namedview
     pagecolor="#ffffff"
     bordercolor="#666666"
     borderopacity="1"
     objecttolerance="10"
     gridtolerance="10"
     guidetolerance="10"
     inkscape:pageopacity="0"
     inkscape:pageshadow="2"
     inkscape:window-width="640"
     inkscape:window-height="480"
     id="namedview44"
     showgrid="false"
     fit-margin-top="0"
     fit-margin-left="0"
     fit-margin-right="0"
     fit-margin-bottom="0"
     inkscape:zoom="6.0293294"
     inkscape:cx="6.9579484"
     inkscape:cy="12.290842"
     inkscape:window-x="0"
     inkscape:window-y="0"
     inkscape:window-maximized="0"
     inkscape:current-layer="Ebene_1" /><g
     transform="matrix(1.6609525,0,0,1.6609523,5.8178659e-4,0.00132516)"
     id="dcjack_2mm_pth"><metadata
       id="metadata48-1"><rdf:RDF><cc:Work
           rdf:about=""><dc:format>image/svg+xml</dc:format><dc:type
             rdf:resource="http://purl.org/dc/dcmitype/StillImage" /><dc:title /></cc:Work></rdf:RDF></metadata><defs
       id="defs46-6" /><sodipodi:namedview
       objecttolerance="10"
       pagecolor="#ffffff"
       borderopacity="1"
       id="namedview44-7"
       fit-margin-right="0"
       showgrid="false"
       window-y="0"
       inkscape:window-height="480"
       inkscape:cx="16.694945"
       fit-margin-bottom="0"
       fit-margin-top="0"
       bordercolor="#666666"
       inkscape:zoom="6.0293294"
       inkscape:pageopacity="0"
       window-maximized="0"
       inkscape:pageshadow="2"
       gridtolerance="10"
       inkscape:cy="12.756015"
       guidetolerance="10"
       current-layer="Ebene_1"
       inkscape:window-x="0"
       window-width="640"
       fit-margin-left="0" /><g
       transform="matrix(0,-1,1,0,79.097,6.76872)"
       id="dc-21mm"><g
         transform="matrix(0,1,-1,0,30.9475,10.538)"
         id="g4"><g
           id="g6"><g
             id="g8"><rect
               style="fill:#232323"
               height="26.3776"
               width="18.986401"
               x="-82.365097"
               transform="matrix(2.57889e-6,1,-1,2.57889e-6,-38.4872,107.256)"
               id="rect10"
               y="21.1952" /><rect
               style="fill:#494949"
               height="25.549601"
               width="1.316"
               x="-73.460899"
               transform="matrix(2.57889e-6,1,-1,2.57889e-6,-46.796,98.8092)"
               id="rect12"
               y="13.232" /><rect
               style="fill:#3d3d3d;fill-opacity:0.3"
               height="25.5488"
               width="4.296"
               x="-74.951302"
               transform="matrix(2.57889e-6,1,-1,2.57889e-6,-43.9876,101.619)"
               id="rect14"
               y="16.041599" /><rect
               height="26.378401"
               width="1.2952"
               x="-73.864799"
               transform="matrix(2.57889e-6,1,-1,2.57889e-6,-30.4014,116.033)"
               id="rect16"
               y="29.6264" /><rect
               style="fill:#0f0f0f;fill-opacity:0.4"
               height="26.378401"
               width="4.6608"
               x="-75.548203"
               transform="matrix(2.57889e-6,1,-1,2.57889e-6,-33.3405,113.094)"
               id="rect18"
               y="26.687201" /></g><rect
             enable-background="new    "
             height="0.4736"
             width="18.9856"
             x="-69.412003"
             transform="matrix(2.57889e-6,1,-1,2.57889e-6,-25.5357,94.3034)"
             id="rect20"
             style="opacity:0.2"
             y="34.147202" /></g><line
           y2="24.891199"
           enable-background="new    "
           y1="43.877602"
           stroke-miterlimit="10"
           x1="-61.931198"
           x2="-61.931198"
           id="line22"
           style="opacity:0.5;fill:none;stroke:#000000;stroke-width:0.2;stroke-miterlimit:10" /><g
           id="g24"><rect
             enable-background="new    "
             height="1.0296"
             width="18.9832"
             x="-93.268799"
             transform="matrix(2.57889e-6,1,-1,2.57889e-6,-49.3742,118.18)"
             id="rect26"
             style="opacity:0.25"
             y="33.888" /><path
             inkscape:connector-curvature="0"
             enable-background="new    "
             stroke-miterlimit="10"
             connector-curvature="0"
             id="path28"
             style="opacity:0.25;stroke:#565656;stroke-width:0.2;stroke-miterlimit:10"
             d="m -84.0658,28.3504 0,12.064 10.6368,0 c 3.3328,0 6.0328,-2.7 6.0328,-6.0328 0,-3.3312 -2.7,-6.0328 -6.0328,-6.0328 l -10.6368,0.0016 0,0 z" /></g><g
           id="g30"><path
             style="fill:#232323"
             inkscape:connector-curvature="0"
             connector-curvature="0"
             id="path32"
             d="m -84.0658,28.3504 0,12.064 10.6368,0 c 3.3328,0 6.0328,-2.7 6.0328,-6.0328 0,-3.3312 -2.7,-6.0328 -6.0328,-6.0328 l -10.6368,0.0016 0,0 z" /><rect
             style="fill:#232323"
             height="6.1504002"
             width="20.409599"
             x="-96.765099"
             transform="matrix(2.57889e-6,1,-1,2.57889e-6,-52.1767,120.943)"
             id="rect34"
             y="31.308001" /></g><rect
           style="fill:#6d6d6d"
           height="1.3608"
           width="4.5704002"
           x="-61.287201"
           transform="matrix(2.57889e-6,1,-1,2.57889e-6,-24.6195,93.3854)"
           id="rect36"
           y="33.7024" /><rect
           style="fill:#494949"
           height="0.780797"
           width="8.9784002"
           x="-63.782398"
           transform="matrix(2.57889e-6,1,-1,2.57889e-6,-24.9097,93.677)"
           id="rect38"
           y="33.993599" /><rect
           style="fill:#494949"
           height="5.0128002"
           width="0.839203"
           x="-86.991096"
           transform="matrix(2.57889e-6,1,-1,2.57889e-6,-61.6424,111.501)"
           id="rect40"
           y="22.423201" /><rect
           height="5.0135999"
           width="0.840002"
           x="-86.991798"
           transform="matrix(2.57889e-6,1,-1,2.57889e-6,-42.6944,130.45)"
           id="rect42"
           y="41.371201" /></g></g></g></svg>