<?xml version="1.0" encoding="utf-8"?>
<!-- Generator: Adobe Illustrator 20.0.0, SVG Export Plug-In . SVG Version: 6.00 Build 0)  -->
<svg version="1.2" baseProfile="tiny" id="Layer_1" xmlns="http://www.w3.org/2000/svg" xmlns:xlink="http://www.w3.org/1999/xlink"
	 x="0px" y="0px" width="42.914px" height="35.717px" viewBox="0 0 42.914 35.717" xml:space="preserve">
<g>
	
		<rect x="-3.813" y="15.024" transform="matrix(-1.836970e-16 1 -1 -1.836970e-16 31.9036 3.8132)" fill="#DCDCDC" width="35.717" height="5.669"/>
	
		<rect x="13.762" y="15.024" transform="matrix(-1.836970e-16 1 -1 -1.836970e-16 49.4784 -13.7616)" fill="#DCDCDC" width="35.717" height="5.669"/>
	<rect x="31.974" y="23.446" fill="#DCDCDC" width="9.806" height="5.669"/>
	<rect x="4.469" y="5.968" fill="#232323" width="32.972" height="23.733"/>
	<rect x="5.072" y="6.54" fill="#494949" width="31.937" height="1.645"/>
	<rect x="5.071" y="8.189" fill="#3D3D3D" fill-opacity="0.3" width="31.936" height="5.37"/>
	<rect x="4.036" y="27.565" width="32.973" height="1.619"/>
	<rect x="4.036" y="21.787" fill="#0F0F0F" fill-opacity="0.4" width="32.973" height="5.826"/>
	<rect x="36.848" y="5.969" width="0.592" height="23.732"/>
	<line fill="none" stroke="#000000" stroke-width="0.25" stroke-miterlimit="10" x1="34.63" y1="29.702" x2="34.63" y2="5.969"/>
	<rect x="6.679" y="5.994" width="1.287" height="23.729"/>
	<path fill="#232323" d="M6.962,10.293v15.08h13.296c4.166,0,7.541-3.375,7.541-7.541c0-4.164-3.375-7.541-7.541-7.541L6.962,10.293
		L6.962,10.293z"/>
	<rect x="0" y="5.078" fill="#232323" width="7.688" height="25.512"/>
	<rect x="37.441" y="14.977" fill="#6D6D6D" width="1.701" height="5.713"/>
	<rect x="37.439" y="12.223" fill="#494949" width="0.976" height="11.223"/>
	<rect x="0.696" y="5.492" fill="#494949" width="6.266" height="1.049"/>
	<rect x="0.695" y="29.177" width="6.267" height="1.05"/>
</g>
</svg>
