<?xml version="1.0" encoding="utf-8"?>
<!-- Generator: Adobe Illustrator 20.0.0, SVG Export Plug-In . SVG Version: 6.00 Build 0)  -->
<svg version="1.2" baseProfile="tiny" id="Layer_1" xmlns:svg="http://www.w3.org/2000/svg"
	 xmlns="http://www.w3.org/2000/svg" xmlns:xlink="http://www.w3.org/1999/xlink" x="0px" y="0px" width="100.8px" height="23.76px"
	 viewBox="0 0 100.8 23.76" xml:space="preserve">
<g>
	<g id="breadboard">
		<rect id="middle" y="2.16" fill="#303030" width="100.8" height="19.44"/>
		<rect id="top" y="19.829" fill="#3D3D3D" width="100.8" height="1.771"/>
		<rect id="bottom" y="2.16" width="100.8" height="1.771"/>
		<polygon id="right" fill="#141414" points="0,21.6 0.54,19.829 0.54,3.931 0,2.16 		"/>
		<polygon id="left" fill="#1F1F1F" points="100.8,21.6 100.26,19.829 100.26,3.931 100.8,2.16 		"/>
		<path fill="#383838" d="M100.26,8.244v0.007c-1.719,0.324-3.013,1.825-3.016,3.629h3.153V9.778L100.26,8.244z"/>
		<path fill="#1C1C1C" d="M97.244,11.88c0,0.002-0.001,0.005-0.001,0.007c0,1.798,1.29,3.287,2.991,3.622l0.026,0l0.137-1.527V11.88
			H97.244z"/>
		<path id="slot" fill="#262626" d="M100.397,13.982V9.784c-1.058,0.122-1.886,1.008-1.886,2.102S99.331,13.86,100.397,13.982z"/>
		<circle fill="#212121" cx="96.12" cy="6.862" r="1.483"/>
		<g id="connector0terminal">
		</g>
		<g id="connector27terminal">
		</g>
		<g id="connector13terminal">
		</g>
		<g id="connector14terminal">
		</g>
		<g id="connector26terminal">
		</g>
		<g id="connector25terminal">
		</g>
		<g id="connector24terminal">
		</g>
		<g id="connector23terminal">
		</g>
		<g id="connector22terminal">
		</g>
		<g id="connector21terminal">
		</g>
		<g id="connector20terminal">
		</g>
		<g id="connector19terminal">
		</g>
		<g id="connector18terminal">
		</g>
		<g id="connector17terminal">
		</g>
		<g id="connector16terminal">
		</g>
		<g id="connector15terminal">
		</g>
		<g id="connector1terminal">
		</g>
		<g id="connector2terminal">
		</g>
		<g id="connector3terminal">
		</g>
		<g id="connector4terminal">
		</g>
		<g id="connector5terminal">
		</g>
		<g id="connector6terminal">
		</g>
		<g id="connector7terminal">
		</g>
		<g id="connector8terminal">
		</g>
		<g id="connector9terminal">
		</g>
		<g id="connector10terminal">
		</g>
		<g id="connector11terminal">
		</g>
		<g id="connector12terminal">
		</g>
		<g>
			<polygon fill="#8C8C8C" points="94.68,3.125 94.68,2.347 96.12,1.685 96.12,0 98.28,0 98.28,1.685 98.28,3.125 			"/>
			<polygon fill="#8C8C8C" points="94.68,20.635 94.68,21.413 96.12,22.075 96.12,23.76 98.28,23.76 98.28,22.075 98.28,20.635 			
				"/>
			<polygon fill="#8C8C8C" points="6.12,3.125 6.12,2.347 4.68,1.685 4.68,0 2.52,0 2.52,1.685 2.52,3.125 			"/>
			<polygon fill="#8C8C8C" points="2.52,20.635 2.52,22.075 2.52,23.76 4.68,23.76 4.68,22.075 6.12,21.413 6.12,20.635 			"/>
			<polygon fill="#8C8C8C" points="13.32,20.635 13.32,21.413 11.88,22.075 11.88,23.76 9.72,23.76 9.72,22.075 8.28,21.413 
				8.28,20.635 			"/>
			<polygon fill="#8C8C8C" points="13.32,3.125 13.32,2.347 11.88,1.685 11.88,0 9.72,0 9.72,1.685 8.28,2.347 8.28,3.125 			"/>
			<polygon fill="#8C8C8C" points="20.52,20.635 20.52,21.413 19.08,22.075 19.08,23.76 16.92,23.76 16.92,22.075 15.48,21.413 
				15.48,20.635 			"/>
			<polygon fill="#8C8C8C" points="20.52,3.125 20.52,2.347 19.08,1.685 19.08,0 16.92,0 16.92,1.685 15.48,2.347 15.48,3.125 			
				"/>
			<polygon fill="#8C8C8C" points="27.72,20.635 27.72,21.413 26.28,22.075 26.28,23.76 24.12,23.76 24.12,22.075 22.68,21.413 
				22.68,20.635 			"/>
			<polygon fill="#8C8C8C" points="27.72,3.125 27.72,2.347 26.28,1.685 26.28,0 24.12,0 24.12,1.685 22.68,2.347 22.68,3.125 			
				"/>
			<polygon fill="#8C8C8C" points="34.92,20.635 34.92,21.413 33.48,22.075 33.48,23.76 31.32,23.76 31.32,22.075 29.88,21.413 
				29.88,20.635 			"/>
			<polygon fill="#8C8C8C" points="34.92,3.125 34.92,2.347 33.48,1.685 33.48,0 31.32,0 31.32,1.685 29.88,2.347 29.88,3.125 			
				"/>
			<polygon fill="#8C8C8C" points="42.12,20.635 42.12,21.413 40.68,22.075 40.68,23.76 38.52,23.76 38.52,22.075 37.08,21.413 
				37.08,20.635 			"/>
			<polygon fill="#8C8C8C" points="42.12,3.125 42.12,2.347 40.68,1.685 40.68,0 38.52,0 38.52,1.685 37.08,2.347 37.08,3.125 			
				"/>
			<polygon fill="#8C8C8C" points="49.32,20.635 49.32,21.413 47.88,22.075 47.88,23.76 45.72,23.76 45.72,22.075 44.28,21.413 
				44.28,20.635 			"/>
			<polygon fill="#8C8C8C" points="49.32,3.125 49.32,2.347 47.88,1.685 47.88,0 45.72,0 45.72,1.685 44.28,2.347 44.28,3.125 			
				"/>
			<polygon fill="#8C8C8C" points="56.52,20.635 56.52,21.413 55.08,22.075 55.08,23.76 52.92,23.76 52.92,22.075 51.48,21.413 
				51.48,20.635 			"/>
			<polygon fill="#8C8C8C" points="56.52,3.125 56.52,2.347 55.08,1.685 55.08,0 52.92,0 52.92,1.685 51.48,2.347 51.48,3.125 			
				"/>
			<polygon fill="#8C8C8C" points="63.72,20.635 63.72,21.413 62.28,22.075 62.28,23.76 60.12,23.76 60.12,22.075 58.68,21.413 
				58.68,20.635 			"/>
			<polygon fill="#8C8C8C" points="63.72,3.125 63.72,2.347 62.28,1.685 62.28,0 60.12,0 60.12,1.685 58.68,2.347 58.68,3.125 			
				"/>
			<polygon fill="#8C8C8C" points="70.92,20.635 70.92,21.413 69.48,22.075 69.48,23.76 67.32,23.76 67.32,22.075 65.88,21.413 
				65.88,20.635 			"/>
			<polygon fill="#8C8C8C" points="70.92,3.125 70.92,2.347 69.48,1.685 69.48,0 67.32,0 67.32,1.685 65.88,2.347 65.88,3.125 			
				"/>
			<polygon fill="#8C8C8C" points="78.12,20.635 78.12,21.413 76.68,22.075 76.68,23.76 74.52,23.76 74.52,22.075 73.08,21.413 
				73.08,20.635 			"/>
			<polygon fill="#8C8C8C" points="78.12,3.125 78.12,2.347 76.68,1.685 76.68,0 74.52,0 74.52,1.685 73.08,2.347 73.08,3.125 			
				"/>
			<polygon fill="#8C8C8C" points="85.32,20.635 85.32,21.413 83.88,22.075 83.88,23.76 81.72,23.76 81.72,22.075 80.28,21.413 
				80.28,20.635 			"/>
			<polygon fill="#8C8C8C" points="85.32,3.125 85.32,2.347 83.88,1.685 83.88,0 81.72,0 81.72,1.685 80.28,2.347 80.28,3.125 			
				"/>
			<polygon fill="#8C8C8C" points="92.52,20.635 92.52,21.413 91.08,22.075 91.08,23.76 88.92,23.76 88.92,22.075 87.48,21.413 
				87.48,20.635 			"/>
			<polygon fill="#8C8C8C" points="92.52,3.125 92.52,2.347 91.08,1.685 91.08,0 88.92,0 88.92,1.685 87.48,2.347 87.48,3.125 			
				"/>
		</g>
	</g>
</g>
</svg>
