<?xml version="1.0" encoding="utf-8"?>
<!-- Generator: Adobe Illustrator 20.0.0, SVG Export Plug-In . SVG Version: 6.00 Build 0)  -->
<svg version="1.2" baseProfile="tiny"
	 id="Layer_1" inkscape:version="0.91 r13725" sodipodi:docname="do41-10.svg" xmlns:cc="http://creativecommons.org/ns#" xmlns:dc="http://purl.org/dc/elements/1.1/" xmlns:inkscape="http://www.inkscape.org/namespaces/inkscape" xmlns:rdf="http://www.w3.org/1999/02/22-rdf-syntax-ns#" xmlns:sodipodi="http://sodipodi.sourceforge.net/DTD/sodipodi-0.dtd" xmlns:svg="http://www.w3.org/2000/svg"
	 xmlns="http://www.w3.org/2000/svg" xmlns:xlink="http://www.w3.org/1999/xlink" x="0px" y="0px" width="7.2px" height="29.909px"
	 viewBox="0 0 7.2 29.909" xml:space="preserve">
<path fill="#8C8C8C" d="M3.57,29.909L3.57,29.909c-0.578,0-1.047-0.469-1.047-1.047V1.073c0-0.578,0.469-1.047,1.047-1.047h0
	c0.578,0,1.047,0.469,1.047,1.047v27.789C4.617,29.44,4.148,29.909,3.57,29.909z"/>
<sodipodi:namedview  bordercolor="#666666" borderopacity="1" fit-margin-bottom="0" fit-margin-left="0" fit-margin-right="0" fit-margin-top="0" gridtolerance="10" guidetolerance="10" id="namedview13" inkscape:current-layer="Layer_1" inkscape:cx="0.77106404" inkscape:cy="5.4601483" inkscape:document-units="mm" inkscape:pageopacity="0" inkscape:pageshadow="2" inkscape:window-height="811" inkscape:window-maximized="0" inkscape:window-width="1162" inkscape:window-x="657" inkscape:window-y="147" inkscape:zoom="5.6568543" objecttolerance="10" pagecolor="#ffffff" showgrid="false" units="mm">
	</sodipodi:namedview>
<g id="breadboard" transform="matrix(0,1.2499996,-1.2499996,0,9.0002749,0.01863985)">
	<g id="g9">
		<path id="Body_1_" inkscape:connector-curvature="0" fill="#1A1A1A" d="M7.324,1.44H5.599c-0.38,0-0.314,5.754,0,5.754h1.726
			c0.317,0,8.891,0,9.206,0h1.726c0.412,0,0.446-5.754,0-5.754h-1.726C16.213,1.44,7.639,1.44,7.324,1.44z"/>
		
			<rect id="rect16" x="5.743" y="3.52" transform="matrix(2.535182e-06 1 -1 2.535182e-06 12.9374 -4.303)" fill="#C8C8C8" width="5.754" height="1.594"/>
	</g>
</g>
</svg>
