<?xml version="1.0" encoding="UTF-8" standalone="no"?>
<!-- Generator: Adobe Illustrator 20.0.0, SVG Export Plug-In . SVG Version: 6.00 Build 0)  -->

<svg
   xmlns:dc="http://purl.org/dc/elements/1.1/"
   xmlns:cc="http://creativecommons.org/ns#"
   xmlns:rdf="http://www.w3.org/1999/02/22-rdf-syntax-ns#"
   xmlns:svg="http://www.w3.org/2000/svg"
   xmlns="http://www.w3.org/2000/svg"
   xmlns:sodipodi="http://sodipodi.sourceforge.net/DTD/sodipodi-0.dtd"
   xmlns:inkscape="http://www.inkscape.org/namespaces/inkscape"
   version="1.2"
   id="Layer_1"
   x="0px"
   y="0px"
   width="2.5400777mm"
   height="10.551166mm"
   viewBox="0 0 9.0002758 37.386021"
   xml:space="preserve"
   inkscape:version="0.91 r13725"
   sodipodi:docname="do41-10.svg"><metadata
     id="metadata17"><rdf:RDF><cc:Work
         rdf:about=""><dc:format>image/svg+xml</dc:format><dc:type
           rdf:resource="http://purl.org/dc/dcmitype/StillImage" /><dc:title></dc:title></cc:Work></rdf:RDF></metadata><defs
     id="defs15" /><sodipodi:namedview
     pagecolor="#ffffff"
     bordercolor="#666666"
     borderopacity="1"
     objecttolerance="10"
     gridtolerance="10"
     guidetolerance="10"
     inkscape:pageopacity="0"
     inkscape:pageshadow="2"
     inkscape:window-width="1162"
     inkscape:window-height="811"
     id="namedview13"
     showgrid="false"
     inkscape:document-units="mm"
     units="mm"
     inkscape:zoom="5.6568543"
     inkscape:cx="0.77106404"
     inkscape:cy="5.4601483"
     inkscape:window-x="657"
     inkscape:window-y="147"
     inkscape:window-maximized="0"
     inkscape:current-layer="Layer_1"
     fit-margin-top="0"
     fit-margin-left="0"
     fit-margin-right="0"
     fit-margin-bottom="0" /><g
     transform="matrix(0,1.2499996,-1.2499996,0,9.0002749,0.01863985)"
     id="breadboard"><rect
       style="fill:none"
       id="connector0pin"
       x="0.011"
       y="2.5829999"
       width="1"
       height="1" /><rect
       style="fill:none"
       id="connector1pin"
       x="25.576"
       y="2.5829999"
       width="1"
       height="1" /><line
       style="fill:none;stroke:#8c8c8c;stroke-width:2.0940001;stroke-linecap:round"
       id="connector0leg"
       x1="1.0470001"
       y1="3.6300001"
       x2="2.0940001"
       y2="3.6300001" /><line
       style="fill:none;stroke:#8c8c8c;stroke-width:2.0940001;stroke-linecap:round"
       id="connector1leg"
       x1="27.785"
       y1="3.6300001"
       x2="28.832001"
       y2="3.6300001" /><rect
       style="fill:#8c8c8c"
       id="rect7"
       x="2.0940001"
       y="2.5829999"
       width="25.691"
       height="2.0940001" /><g
       id="g9"><path
         style="fill:#1a1a1a"
         inkscape:connector-curvature="0"
         id="Body_1_"
         d="M 9.159,0 7.002,0 c -0.475,0 -0.393,7.193 0,7.193 l 2.157,0 c 0.396,0 11.114,0 11.508,0 l 2.158,0 C 23.34,7.193 23.383,0 22.825,0 L 20.667,0 C 20.27,0 9.553,0 9.159,0 Z" /><rect
         style="opacity:0.73999999;fill:#ffffff"
         id="rect16"
         x="9.783"
         y="0"
         enable-background="new    "
         width="1.992"
         height="7.1929998" /><path
         style="opacity:0.4;fill:#ffffff"
         inkscape:connector-curvature="0"
         id="Reflex_1_"
         enable-background="new    "
         d="m 7.289,0.358 c 0.726,0 1.145,0 1.866,0 0.719,0 10.786,0 11.508,0 0.021,0 0.229,0 0.479,0 0.563,0 1.066,0 1.311,0 0.354,0 1.146,0.36 -0.354,0.36 -1.08,0 -0.726,0 -1.438,0 -0.717,0 -10.791,0 -11.508,0 -0.723,0 -1.145,0 -1.866,0 -0.356,0.001 -0.714,-0.36 0.002,-0.36 z" /><path
         style="opacity:0.4"
         inkscape:connector-curvature="0"
         id="Shaddow_1_"
         enable-background="new    "
         d="m 22.822,7.194 c -0.727,0.014 -1.438,0 -2.156,0 -0.902,0 -12.942,0 -13.667,0 -0.091,0 -0.202,-0.723 -0.182,-0.723 1.293,0 1.613,0 2.336,0 0.723,0 10.789,0 11.509,0 0.721,0 1.67,0 2.393,0 0.021,0 -0.086,0.721 -0.233,0.723 z" /></g></g></svg>