<?xml version="1.0" encoding="utf-8"?>
<!-- Generator: Adobe Illustrator 20.0.0, SVG Export Plug-In . SVG Version: 6.00 Build 0)  -->
<svg version="1.2" baseProfile="tiny" id="Layer_1" xmlns="http://www.w3.org/2000/svg" xmlns:xlink="http://www.w3.org/1999/xlink"
	 x="0px" y="0px" width="19.843px" height="17.008px" viewBox="0 0 19.843 17.008" xml:space="preserve">
<g>
	<rect x="1.701" fill="#DCDCDC" width="2.268" height="17.008"/>
	<rect x="8.788" fill="#DCDCDC" width="2.268" height="17.008"/>
	<rect x="15.874" fill="#DCDCDC" width="2.268" height="17.008"/>
	<rect x="1.701" y="2.835" fill="#B4B4B4" width="2.268" height="11.339"/>
	<rect x="8.788" y="2.834" fill="#B4B4B4" width="2.268" height="11.339"/>
	<rect x="15.874" y="2.835" fill="#B4B4B4" width="2.268" height="11.339"/>
	<rect y="3.543" width="19.843" height="9.921"/>
	<polygon fill="#DCDCDC" points="18.425,6.377 18.425,3.543 1.417,3.543 1.417,6.377 0,6.377 0,10.629 1.417,10.629 1.417,13.464 
		5.67,13.464 5.67,10.629 14.174,10.629 14.174,13.464 18.425,13.464 18.425,10.629 19.843,10.629 19.843,6.377 	"/>
	<rect x="5.67" y="10.629" fill="#333333" width="4.252" height="2.835"/>
	<circle fill="#B4B4B4" cx="12.047" cy="8.503" r="1.417"/>
	<circle fill="#B4B4B4" cx="7.795" cy="8.503" r="1.417"/>
</g>
</svg>
