<?xml version="1.0" encoding="utf-8"?>
<!-- Generator: Adobe Illustrator 26.2.1, SVG Export Plug-In . SVG Version: 6.00 Build 0)  -->
<svg version="1.1" id="Layer_1" xmlns="http://www.w3.org/2000/svg" xmlns:xlink="http://www.w3.org/1999/xlink" x="0px" y="0px"
	 width="44.4396px" height="57.384px" viewBox="0 0 44.4396 57.384" enable-background="new 0 0 44.4396 57.384"
	 xml:space="preserve">
<rect x="0.1221" y="-0.0003" width="44.3509" height="57.3846"/>
<g id="Traces" transform="matrix(0, 0.277012, -0.293979, 0, -60.1687, 173.082)">
	<path id="path2745" fill="#40383A" d="M-559.3426-354.3763h-2.3441c-0.4648,0.9018-1.3571,1.5375-2.4158,1.5375
		c-1.0616,0-1.9511-0.6357-2.4159-1.5375h-8.269c-0.5624,0-1.0157,0.4702-1.0157,1.0467v15.3753
		c0,0.5796-0.4562,1.0467-1.0157,1.0467l-42.9146-1.5375c-0.5624,0-1.0157,0.4702-1.0157,1.0467v41.2296
		c0,0.5795,0.4562,1.0467,1.0157,1.0467h20.8792v16.7147l-20.8792,0.0004c-0.5624,0-1.0157,0.4701-1.0157,1.0467v21.3068
		c0,0.5795,0.4562,1.0467,1.0157,1.0467h20.8792v16.7147h-20.8792c-0.5624,0-1.0157,0.4701-1.0157,1.0467v20.4729
		c0,0.5795,0.4562,1.0467,1.0157,1.0467h35.8679c0.5624,0,1.0157-0.4701,1.0157-1.0467l0.0001-2.0753
		c0-0.5795-0.4562-1.0467-1.0157-1.0467l-32.8295-0.0005v-14.2101h20.8792c0.5623,0,1.0157-0.4701,1.0157-1.0467v-22.9772
		c0-0.5795-0.4562-1.0467-1.0157-1.0467l-20.8792-0.0003v-15.0413h20.8792c0.5623,0,1.0157-0.4701,1.0157-1.0467v-22.9773
		c0-0.5795-0.4562-1.0467-1.0157-1.0467l-20.8792-0.0002v-14.2073h38.7084v-4.178h-38.7084v-14.0152h57.3524
		c0.5624,0,1.0157-0.4701,1.0157-1.0467v-20.5941C-558.3268-353.9091-558.783-354.3763-559.3426-354.3763L-559.3426-354.3763z"/>
</g>
<rect x="0.5842" y="13.6346" fill="#C4C4C4" width="43.4268" height="43.3757"/>
<path id="path2831" fill="#B7B7B7" d="M21.7892,18.4589c0.0868,0,0.2605,0,0.3473,0c0.2605,0,0.52,0,0.7805,0
	c1.9083,0.0852,3.8158,0.6805,5.3768,1.7869s2.6889,2.5526,3.3826,4.3395c0.52,1.361,0.7805,2.8072,0.6069,4.2543
	c-0.0868,0.0852-0.2605,0.0852-0.3473,0.1703c-0.0868,0-0.1736,0.0852-0.3473,0.0852c-0.6069-1.7869-1.561-3.4886-2.7757-4.9348
	c-1.8215-2.2119-4.2499-3.8284-6.9378-4.8496c-0.0868-0.0852-0.1736-0.1703-0.2605-0.1703l-0.086-0.0852
	C21.7023,18.7986,21.7023,18.6293,21.7892,18.4589 M17.9009,19.5346c0.0868,0,0.0868-0.0852,0.1736-0.0852
	c2.3415,0.2555,4.6831,1.1064,6.6783,2.4674c1.4742,1.0212,2.7757,2.2971,3.8158,3.7432c1.3874,1.8721,2.2547,4.0839,2.5152,6.4662
	c0,0.0852,0.0868,0.2555,0,0.3407c-0.2605,0.5102-0.52,0.936-0.8673,1.361c-0.1736,0.1703-0.2605,0.3407-0.4332,0.5102
	c-0.0868,0-0.1736,0-0.2605,0c-0.4332,0-0.9542,0-1.3874,0c0-0.936-0.0868-1.7869-0.2605-2.7229
	c-0.4332-1.7869-1.2146-3.4886-2.4284-4.8496c-1.2146-1.4462-2.7757-2.6378-4.5094-3.3183
	c-1.4742-0.6805-3.1221-1.0212-4.8568-1.0212c0-0.5102,0-1.1064,0-1.6165c0,0,0-0.0852,0.0868-0.0852
	C16.6863,20.3002,17.294,19.8743,17.9009,19.5346 M14.3393,20.0034C14.4253,20.0034,14.4253,20.0034,14.3393,20.0034
	c0.3473,0.1703,0.52,0.3407,0.6937,0.5953c-0.0868,0.0852-0.1736,0.1703-0.2605,0.2555c-1.3006,1.361-2.1679,3.0627-2.602,4.8496
	c-0.0868,0.6805-0.1736,1.4462-0.2605,2.1267c0,0.1703,0,0.425,0,0.5953c0.0868,1.9572,0.7805,3.9136,1.9952,5.6153
	c1.041,1.4462,2.5152,2.6378,4.163,3.4034c1.3874,0.5953,2.8616,0.936,4.4235,0.936c1.3006,0,2.6889-0.2555,3.9026-0.6805
	c1.3006-0.5102,2.4284-1.1916,3.3826-2.0415c0.0868-0.0852,0.1736-0.1703,0.3473-0.2555c0.1736,0.1703,0.4332,0.425,0.6069,0.5953
	c-1.3874,1.361-3.2089,2.3822-5.1172,2.8924c-1.3006,0.3407-2.602,0.425-3.9026,0.3407c-1.561-0.0852-3.0352-0.5102-4.4235-1.2758
	c-1.561-0.7657-2.8616-1.8721-3.9026-3.2331c-1.3006-1.6165-2.0811-3.6581-2.2547-5.7005c-0.1736-1.5314,0-3.0627,0.52-4.5089
	C12.1705,22.8115,13.1247,21.2801,14.3393,20.0034 M15.8046,23.6509c0.52-0.0852,1.041-0.0852,1.561,0
	c2.0811,0.1703,4.0762,1.0212,5.7241,2.2971c1.4742,1.1916,2.6889,2.8072,3.2957,4.5941c0.6069,1.5314,0.7805,3.2331,0.6069,4.9348
	c-0.0868,0.3407-0.0868,0.7657-0.1736,1.1064c0,0.0852,0,0.0852-0.0868,0.1703c-0.52,0.2555-1.1278,0.425-1.7347,0.5953
	c-0.0868,0-0.1736,0.0852-0.2605,0c-0.4332-0.1703-0.8673-0.3407-1.3006-0.5102c0.2605-0.6805,0.4332-1.361,0.4332-2.0415
	c0.0868-1.0212-0.0868-2.1267-0.4332-3.1479c-0.2605-0.7657-0.6937-1.5314-1.3006-2.2119s-1.3874-1.361-2.1679-1.7869
	c-0.8673-0.5102-1.9083-0.8509-2.9484-0.936c-0.1736,0-0.3473,0-0.6069,0c-0.2605,0-0.52,0.1703-0.52,0.425
	c-0.0868,0.1703,0,0.3407,0.0868,0.5102c0.0868,0.1703,0.2605,0.2555,0.52,0.2555c0.9542,0,1.9083,0.2555,2.7757,0.7657
	c0.7805,0.425,1.4742,1.0212,1.9952,1.7017c0.6069,0.7657,1.041,1.6165,1.2146,2.5526c0.52,1.4462,0.1736,3.2331-0.6937,4.5941
	c-0.6069,0-1.2146-0.1703-1.9083-0.3407c-0.0868,0-0.1736-0.0852-0.2605-0.1703c-0.2605-0.2555-0.52-0.425-0.7805-0.6805v-0.0852
	c0.52-0.5953,0.7805-1.4462,0.7805-2.2119c0-0.936-0.4332-1.8721-1.2146-2.3822c-0.6069-0.5102-1.3006-0.7657-2.0811-0.7657
	s-1.561-0.3407-2.1679-0.8509c-0.7805-0.5953-1.2146-1.5314-1.3006-2.5526c0-0.5102,0.0868-0.936,0.1736-1.4462
	c0.2605-0.7657,0.7805-1.4462,1.4742-1.8721C14.8505,23.9916,15.3714,23.736,15.8046,23.6509 M16.0284,32.4536
	c0.3473-0.0852,0.7805,0,1.041,0.1703c0.3473,0.1703,0.6937,0.5102,0.8673,0.936c0.0868,0.2555,0.0868,0.5102,0.0868,0.8509
	c-0.0868,0.425-0.3473,0.7657-0.6069,1.0212c-0.3473,0.2555-0.6937,0.425-1.041,0.425c-0.52,0-0.9542-0.2555-1.3006-0.5102
	c-0.2605-0.2555-0.4332-0.5102-0.4332-0.8509c-0.0868-0.425,0-0.936,0.3473-1.2758C15.161,32.7934,15.5952,32.5388,16.0284,32.4536"
	/>
<polygon id="polygon2829_00000023276279407461057400000007121247246838037646_" fill="#B3B1AD" points="43.2201,56.3428 
	1.3737,56.3428 0.5846,57.0098 44.0105,57.0098 44.0105,13.6352 0.5846,13.6352 1.3737,14.3021 43.2201,14.3021 "/>
<polygon id="polygon2829" fill="#B3B1AD" points="1.1786,14.3022 43.025,14.3022 43.8141,13.6352 0.3882,13.6352 0.3882,57.0098 
	43.8141,57.0098 43.025,56.3429 1.1786,56.3429 "/>
</svg>
