<?xml version="1.0" encoding="utf-8"?>
<!-- Generator: Adobe Illustrator 27.2.0, SVG Export Plug-In . SVG Version: 6.00 Build 0)  -->
<svg version="1.2" baseProfile="tiny" id="Layer_1" xmlns="http://www.w3.org/2000/svg" xmlns:xlink="http://www.w3.org/1999/xlink"
	 x="0px" y="0px" width="43.6535px" height="56.6929px" viewBox="0 0 43.6535 56.6929" overflow="visible" xml:space="preserve">
<g>
	<rect y="0" width="43.6535" height="56.6929"/>
	<rect x="1.9843" y="16.5394" fill="#686868" width="39.685" height="38.4095"/>
	<rect x="2.5038" y="17.0423" fill="#AAAAAA" width="38.6459" height="37.4037"/>
</g>
<path id="path2831" fill="#B7B7B7" d="M21.9148,25.5775c0.0868,0,0.2605,0,0.3473,0c0.2605,0,0.52,0,0.7805,0
	c1.9083,0.0852,3.8158,0.6805,5.3768,1.7869s2.6889,2.5526,3.3826,4.3395c0.52,1.361,0.7805,2.8072,0.6069,4.2543
	c-0.0868,0.0852-0.2605,0.0852-0.3473,0.1703c-0.0868,0-0.1736,0.0852-0.3473,0.0852c-0.6069-1.7869-1.561-3.4886-2.7757-4.9348
	c-1.8215-2.2119-4.2499-3.8284-6.9378-4.8496c-0.0868-0.0852-0.1736-0.1703-0.2605-0.1703l-0.086-0.0852
	C21.8279,25.9172,21.8279,25.7479,21.9148,25.5775 M18.0265,26.6532c0.0868,0,0.0868-0.0852,0.1736-0.0852
	c2.3415,0.2555,4.6831,1.1064,6.6783,2.4674c1.4742,1.0212,2.7757,2.2971,3.8158,3.7432c1.3874,1.8721,2.2547,4.0839,2.5152,6.4662
	c0,0.0852,0.0868,0.2555,0,0.3407c-0.2605,0.5102-0.52,0.936-0.8673,1.361c-0.1736,0.1703-0.2605,0.3407-0.4332,0.5102
	c-0.0868,0-0.1736,0-0.2605,0c-0.4332,0-0.9542,0-1.3874,0c0-0.936-0.0868-1.7869-0.2605-2.7229
	c-0.4332-1.7869-1.2146-3.4886-2.4284-4.8496c-1.2146-1.4462-2.7757-2.6378-4.5094-3.3183
	c-1.4742-0.6805-3.1221-1.0212-4.8568-1.0212c0-0.5102,0-1.1064,0-1.6165c0,0,0-0.0852,0.0868-0.0852
	C16.8119,27.4188,17.4196,26.9929,18.0265,26.6532 M14.4649,27.122C14.5509,27.122,14.5509,27.122,14.4649,27.122
	c0.3473,0.1703,0.52,0.3407,0.6937,0.5953c-0.0868,0.0852-0.1736,0.1703-0.2605,0.2555c-1.3006,1.361-2.1679,3.0627-2.602,4.8496
	c-0.0868,0.6805-0.1736,1.4462-0.2605,2.1267c0,0.1703,0,0.425,0,0.5953c0.0868,1.9572,0.7805,3.9136,1.9952,5.6153
	c1.041,1.4462,2.5152,2.6378,4.163,3.4034c1.3874,0.5953,2.8616,0.936,4.4235,0.936c1.3006,0,2.6889-0.2555,3.9026-0.6805
	c1.3006-0.5102,2.4284-1.1916,3.3826-2.0415c0.0868-0.0852,0.1736-0.1703,0.3473-0.2555c0.1736,0.1703,0.4332,0.425,0.6069,0.5953
	c-1.3874,1.361-3.2089,2.3822-5.1172,2.8924c-1.3006,0.3407-2.602,0.425-3.9026,0.3407c-1.561-0.0852-3.0352-0.5102-4.4235-1.2758
	c-1.561-0.7657-2.8616-1.8721-3.9026-3.2331c-1.3006-1.6165-2.0811-3.6581-2.2547-5.7005c-0.1736-1.5314,0-3.0627,0.52-4.5089
	C12.2961,29.9301,13.2503,28.3987,14.4649,27.122 M15.9302,30.7695c0.52-0.0852,1.041-0.0852,1.561,0
	c2.0811,0.1703,4.0762,1.0212,5.7241,2.2971c1.4742,1.1916,2.6889,2.8072,3.2957,4.5941c0.6069,1.5314,0.7805,3.2331,0.6069,4.9348
	c-0.0868,0.3407-0.0868,0.7657-0.1736,1.1064c0,0.0852,0,0.0852-0.0868,0.1703c-0.52,0.2555-1.1278,0.425-1.7347,0.5953
	c-0.0868,0-0.1736,0.0852-0.2605,0c-0.4332-0.1703-0.8673-0.3407-1.3006-0.5102c0.2605-0.6805,0.4332-1.361,0.4332-2.0415
	c0.0868-1.0212-0.0868-2.1267-0.4332-3.1479c-0.2605-0.7657-0.6937-1.5314-1.3006-2.2119s-1.3874-1.361-2.1679-1.7869
	c-0.8673-0.5102-1.9083-0.8509-2.9484-0.936c-0.1736,0-0.3473,0-0.6069,0c-0.2605,0-0.52,0.1703-0.52,0.425
	c-0.0868,0.1703,0,0.3407,0.0868,0.5102c0.0868,0.1703,0.2605,0.2555,0.52,0.2555c0.9542,0,1.9083,0.2555,2.7757,0.7657
	c0.7805,0.425,1.4742,1.0212,1.9952,1.7017c0.6069,0.7657,1.041,1.6165,1.2146,2.5526c0.52,1.4462,0.1736,3.2331-0.6937,4.5941
	c-0.6069,0-1.2146-0.1703-1.9083-0.3407c-0.0868,0-0.1736-0.0852-0.2605-0.1703c-0.2605-0.2555-0.52-0.425-0.7805-0.6805v-0.0852
	c0.52-0.5953,0.7805-1.4462,0.7805-2.2119c0-0.936-0.4332-1.8721-1.2146-2.3822c-0.6069-0.5102-1.3006-0.7657-2.0811-0.7657
	s-1.561-0.3407-2.1679-0.8509c-0.7805-0.5953-1.2146-1.5314-1.3006-2.5526c0-0.5102,0.0868-0.936,0.1736-1.4462
	c0.2605-0.7657,0.7805-1.4462,1.4742-1.8721C14.9761,31.1102,15.497,30.8546,15.9302,30.7695 M16.154,39.5722
	c0.3473-0.0852,0.7805,0,1.041,0.1703c0.3473,0.1703,0.6937,0.5102,0.8673,0.936c0.0868,0.2555,0.0868,0.5102,0.0868,0.8509
	c-0.0868,0.425-0.3473,0.7657-0.6069,1.0212c-0.3473,0.2555-0.6937,0.425-1.041,0.425c-0.52,0-0.9542-0.2555-1.3006-0.5102
	c-0.2605-0.2555-0.4332-0.5102-0.4332-0.8509c-0.0868-0.425,0-0.936,0.3473-1.2758C15.2866,39.912,15.7208,39.6574,16.154,39.5722"
	/>
<path id="path2745" fill="#40383A" d="M3.2547,14.6705L3.2583,2.8021h4.6423v11.8837h1.3839V2.8021h4.706l0.0001,6.41
	c0,0.1718,0.1548,0.3118,0.3467,0.3118h7.6109c0.191,0,0.3467-0.1392,0.3467-0.3118v-6.41h4.9822l0.0001,6.41
	c0,0.1718,0.1548,0.3118,0.3467,0.3118h7.6109c0.191,0,0.3467-0.1392,0.3467-0.3118v-6.41h4.7069l0.0002,10.0789
	c0.2572,0.0033,1.1596-0.0026,1.3808,0V1.8693c0-0.1718-0.1548-0.3118-0.3467-0.3118h-6.7814c-0.191,0-0.3467,0.1392-0.3467,0.3118
	v6.41H28.658v-6.41c0-0.1718-0.1548-0.3118-0.3467-0.3118h-7.0576c-0.191,0-0.3467,0.1392-0.3467,0.3118l-0.0001,6.41h-5.5365v-6.41
	c0-0.1718-0.1548-0.3118-0.3467-0.3118H2.4541c-0.1909,0-0.4698,0.2787-0.4698,0.4513v12.6706
	C2.1394,14.6765,2.9836,14.6742,3.2547,14.6705z"/>
</svg>
