<?xml version="1.0" encoding="UTF-8" standalone="no"?>
<svg
   xmlns:dc="http://purl.org/dc/elements/1.1/"
   xmlns:cc="http://creativecommons.org/ns#"
   xmlns:rdf="http://www.w3.org/1999/02/22-rdf-syntax-ns#"
   xmlns:svg="http://www.w3.org/2000/svg"
   xmlns="http://www.w3.org/2000/svg"
   xmlns:sodipodi="http://sodipodi.sourceforge.net/DTD/sodipodi-0.dtd"
   xmlns:inkscape="http://www.inkscape.org/namespaces/inkscape"
   version="1.1"
   id="Layer_1"
   x="0px"
   y="0px"
   width="49.889595"
   height="61.564079"
   viewBox="0 0 49.889593 61.56408"
   enable-background="new 0 0 44.4396 57.384"
   xml:space="preserve"
   sodipodi:docname="esp32-pico-mini.svg"
   inkscape:version="1.0 (4035a4fb49, 2020-05-01)"><metadata
   id="metadata20"><rdf:RDF><cc:Work
       rdf:about=""><dc:format>image/svg+xml</dc:format><dc:type
         rdf:resource="http://purl.org/dc/dcmitype/StillImage" /><dc:title></dc:title></cc:Work></rdf:RDF></metadata><defs
   id="defs18" /><sodipodi:namedview
   fit-margin-bottom="0"
   fit-margin-right="0"
   fit-margin-left="0"
   fit-margin-top="0"
   inkscape:document-rotation="0"
   pagecolor="#ffffff"
   bordercolor="#666666"
   borderopacity="1"
   objecttolerance="10"
   gridtolerance="10"
   guidetolerance="10"
   inkscape:pageopacity="0"
   inkscape:pageshadow="2"
   inkscape:window-width="1805"
   inkscape:window-height="774"
   id="namedview16"
   showgrid="false"
   inkscape:zoom="7.5630839"
   inkscape:cx="24.944797"
   inkscape:cy="30.78204"
   inkscape:window-x="99"
   inkscape:window-y="207"
   inkscape:window-maximized="0"
   inkscape:current-layer="Layer_1" />

<g
   transform="matrix(1.4060694,0,0,1.341055,-0.04926871,-8.0818126e-5)"
   id="g2566"><rect
     transform="rotate(-90,17.77587,22.95363)"
     x="-5.1777601"
     width="45.9072"
     id="rect2"
     height="35.481602"
     y="5.2128" /><g
     transform="matrix(0,0.3783733,-0.293979,0,-48.633333,189.5211)"
     id="Traces"><path
       d="m -447.474,-283.501 h -1.87528 c -0.37184,0.72144 -1.08568,1.23 -1.93264,1.23 -0.84928,0 -1.56088,-0.50856 -1.93272,-1.23 h -6.6152 c -0.44992,0 -0.81256,0.37616 -0.81256,0.83736 v 12.3003 c 0,0.46368 -0.36496,0.83736 -0.81257,0.83736 l -34.3317,-1.23 c -0.44992,0 -0.81256,0.37616 -0.81256,0.83736 v 32.9837 c 0,0.4636 0.36496,0.83736 0.81256,0.83736 h 16.7034 v 13.3718 l -16.7034,3.2e-4 c -0.44992,0 -0.81256,0.37608 -0.81256,0.83736 v 17.0454 c 0,0.4636 0.36496,0.83736 0.81256,0.83736 h 16.7034 v 13.3718 h -16.7034 c -0.44992,0 -0.81256,0.37608 -0.81256,0.83736 v 16.3783 c 0,0.4636 0.36496,0.83736 0.81256,0.83736 h 28.6943 c 0.44992,0 0.81257,-0.37608 0.81257,-0.83736 l 8e-5,-1.66024 c 0,-0.4636 -0.36496,-0.83736 -0.81257,-0.83736 l -26.2636,-4e-4 v -11.3681 h 16.7034 c 0.44984,0 0.81257,-0.37608 0.81257,-0.83736 v -18.3817 c 0,-0.4636 -0.36496,-0.83736 -0.81257,-0.83736 l -16.7034,-2.4e-4 v -12.0331 h 16.7034 c 0.44984,0 0.81257,-0.37608 0.81257,-0.83736 v -18.3818 c 0,-0.4636 -0.36496,-0.83736 -0.81257,-0.83736 l -16.7034,-1.6e-4 v -11.3658 h 30.9667 v -3.3424 h -30.9667 v -11.2121 h 45.8819 c 0.44992,0 0.81257,-0.37608 0.81257,-0.83736 v -16.4753 c 0,-0.46368 -0.36496,-0.83744 -0.81265,-0.83744 z"
       fill="#40383a"
       id="path2745" /></g><g
     id="g11"><rect
       style="stroke-width:0.937204"
       transform="rotate(-90)"
       x="-45.60812"
       width="30.479153"
       fill="#c4c4c4"
       id="rect1042"
       height="34.740601"
       y="0.40550008" /><path
       d="m 17.188457,22.493008 c 0.06944,0 0.2084,0 0.27784,0 0.2084,0 0.416,0 0.6244,0 1.52664,0.06816 3.05264,0.5444 4.30144,1.42952 1.2488,0.885118 2.15112,2.04208 2.70608,3.4716 0.416,1.0888 0.6244,2.24576 0.48552,3.40344 -0.06944,0.06816 -0.2084,0.06816 -0.27784,0.13624 -0.06944,0 -0.13888,0.06816 -0.27784,0.06816 -0.48552,-1.42952 -1.2488,-2.79088 -2.22056,-3.94784 -1.4572,-1.76952 -3.39992,-3.06272 -5.55024,-3.87968 -0.06944,-0.06816 -0.13888,-0.13624 -0.2084,-0.13624 l -0.0688,-0.06816 c 0.13888,-0.20528 0.13888,-0.34072 0.2084,-0.47704 m -3.11064,0.860558 c 0.06944,0 0.06944,-0.06816 0.13888,-0.06816 1.8732,0.2044 3.74648,0.885118 5.34264,1.97392 1.17936,0.816962 2.22056,1.83768 3.05264,2.99456 1.10992,1.49768 1.80376,3.26712 2.01216,5.17296 0,0.06816 0.06944,0.2044 0,0.27256 -0.2084,0.40816 -0.416,0.7488 -0.69384,1.0888 -0.13888,0.13624 -0.2084,0.27256 -0.34656,0.40816 -0.06944,0 -0.13888,0 -0.2084,0 -0.34656,0 -0.763358,0 -1.10992,0 0,-0.7488 -0.06944,-1.42952 -0.2084,-2.17832 -0.34656,-1.42952 -0.971683,-2.79088 -1.94272,-3.87968 -0.971683,-1.15696 -2.22056,-2.11024 -3.60752,-2.65464 -1.17936,-0.5444 -2.49768,-0.816962 -3.88544,-0.816962 0,-0.40816 0,-0.885118 0,-1.2932 0,0 0,-0.06816 0.06944,-0.06816 0.41536,-0.33936 0.901519,-0.68008 1.38704,-0.95184 m -2.84928,0.37504 c 0.0688,0 0.0688,0 0,0 0.27784,0.13624 0.416,0.27256 0.55496,0.47624 -0.06944,0.06816 -0.13888,0.13624 -0.2084,0.2044 -1.04048,1.0888 -1.7343199,2.45016 -2.0815999,3.87968 -0.06944,0.5444 -0.13888,1.15696 -0.2084,1.70136 0,0.13624 0,0.34 0,0.47624 0.06944,1.56576 0.6244,3.13088 1.5961599,4.49224 0.832802,1.15696 2.01216,2.11024 3.3304,2.72272 1.10992,0.47624 2.28928,0.7488 3.5388,0.7488 1.04048,0 2.15112,-0.2044 3.12208,-0.5444 1.04048,-0.40816 1.94272,-0.95328 2.70608,-1.6332 0.06944,-0.06816 0.13888,-0.13624 0.27784,-0.2044 0.13888,0.13624 0.34656,0.34 0.48552,0.47624 -1.10992,1.0888 -2.56712,1.90576 -4.09376,2.31392 -1.04048,0.27256 -2.0816,0.34 -3.12208,0.27256 -1.2488,-0.06816 -2.42816,-0.40816 -3.5388,-1.02064 -1.2488,-0.61256 -2.28928,-1.49768 -3.12208,-2.58648 -1.0404799,-1.2932 -1.6648799,-2.92648 -1.8037599,-4.5604 -0.13888,-1.22512 0,-2.45016 0.416,-3.60712 0.416,-1.36128 1.1793599,-2.5864 2.1510399,-3.60776 m 1.17224,2.918 c 0.416,-0.06816 0.832802,-0.06816 1.2488,0 1.66488,0.13624 3.26096,0.816962 4.57928,1.83768 1.17936,0.95328 2.15112,2.24576 2.63656,3.67528 0.48552,1.22512 0.6244,2.58648 0.48552,3.94784 -0.06944,0.27256 -0.06944,0.61256 -0.13888,0.885118 0,0.06816 0,0.06816 -0.06944,0.13624 -0.416,0.2044 -0.902239,0.34 -1.38776,0.47624 -0.06944,0 -0.13888,0.06816 -0.2084,0 -0.34656,-0.13624 -0.69384,-0.27256 -1.04048,-0.40816 0.2084,-0.5444 0.34656,-1.0888 0.34656,-1.6332 0.06944,-0.816962 -0.06944,-1.70136 -0.34656,-2.51832 -0.2084,-0.61256 -0.55496,-1.22512 -1.04048,-1.76952 -0.48552,-0.5444 -1.10992,-1.0888 -1.73432,-1.42952 -0.69384,-0.40816 -1.52664,-0.68072 -2.35872,-0.7488 -0.13888,0 -0.27784,0 -0.48552,0 -0.2084,0 -0.416,0.13624 -0.416,0.34 -0.06944,0.13624 0,0.27256 0.06944,0.40816 0.06944,0.13624 0.2084,0.2044 0.416,0.2044 0.763358,0 1.52664,0.2044 2.22056,0.61256 0.6244,0.34 1.17936,0.816962 1.59616,1.36136 0.48552,0.61256 0.832802,1.2932 0.971683,2.04208 0.416,1.15696 0.13888,2.58648 -0.55496,3.67528 -0.48552,0 -0.971683,-0.13624 -1.52664,-0.27256 -0.06944,0 -0.13888,-0.06816 -0.2084,-0.13624 -0.2084,-0.2044 -0.416,-0.34 -0.6244,-0.5444 v -0.06816 c 0.416,-0.47624 0.6244,-1.15696 0.6244,-1.76952 0,-0.7488 -0.34656,-1.49768 -0.971683,-1.90576 -0.48552,-0.40816 -1.04048,-0.61256 -1.66488,-0.61256 -0.6244,0 -1.2488,-0.27256 -1.73432,-0.68072 -0.6244,-0.47624 -0.971683,-1.22512 -1.04048,-2.04208 0,-0.40816 0.06944,-0.7488 0.13888,-1.15696 0.2084,-0.61256 0.6244,-1.15696 1.17936,-1.49768 0.27584,-0.13552 0.69256,-0.34 1.03912,-0.40808 m 0.17904,7.04216 c 0.27784,-0.06816 0.6244,0 0.832802,0.13624 0.27784,0.13624 0.55496,0.40816 0.69384,0.7488 0.06944,0.2044 0.06944,0.40816 0.06944,0.68072 -0.06944,0.34 -0.27784,0.61256 -0.48552,0.816962 -0.27784,0.2044 -0.55496,0.34 -0.832802,0.34 -0.416,0 -0.763358,-0.2044 -1.04048,-0.40816 -0.2084,-0.2044 -0.34656,-0.40816 -0.34656,-0.68072 -0.06944,-0.34 0,-0.7488 0.27784,-1.02064 0.13752,-0.34136 0.48488,-0.54504 0.831442,-0.6132"
       fill="#b7b7b7"
       id="path2831" /><polygon
       transform="matrix(1,0,0,0.87281952,0,5.8004218)"
       points="35.2084,10.9081 0.46768,10.9081 1.09896,11.4417 34.5761,11.4417 34.5761,45.0742 1.09896,45.0742 0.46768,45.6078 35.2084,45.6078 "
       fill="#b3b1ad"
       id="polygon2829_00000023276279407461057400000007121247246838037646_" /><polygon
       transform="matrix(1,0,0,0.87428639,0,5.733521)"
       points="0.31056,45.6078 35.0513,45.6078 34.42,45.0743 0.942883,45.0743 0.942883,11.4417 34.42,11.4417 35.0513,10.9081 0.31056,10.9081 "
       fill="#b3b1ad"
       id="polygon2829" /></g></g></svg>
