<?xml version="1.0" encoding="utf-8"?>
<!-- Generator: Adobe Illustrator 20.0.0, SVG Export Plug-In . SVG Version: 6.00 Build 0)  -->
<svg version="1.2" baseProfile="tiny" id="Layer_1" xmlns="http://www.w3.org/2000/svg" xmlns:xlink="http://www.w3.org/1999/xlink"
	 x="0px" y="0px" width="144px" height="64.8px" viewBox="0 0 144 64.8" xml:space="preserve">
<path fill="#014CB1" d="M136.8,64.8H7.2c-3.976,0-7.2-3.224-7.2-7.2V7.2C0,3.224,3.224,0,7.2,0h129.6c3.976,0,7.2,3.224,7.2,7.2
	v50.4C144,61.576,140.776,64.8,136.8,64.8z M0,0 M16.031,61.2c0,1.087,0.881,1.969,1.969,1.969s1.969-0.881,1.969-1.969
	S19.087,59.231,18,59.231S16.031,60.113,16.031,61.2z M23.231,61.2c0,1.087,0.881,1.969,1.969,1.969s1.969-0.881,1.969-1.969
	s-0.881-1.969-1.969-1.969S23.231,60.113,23.231,61.2z M30.431,61.2c0,1.087,0.881,1.969,1.969,1.969s1.969-0.881,1.969-1.969
	s-0.881-1.969-1.969-1.969S30.431,60.113,30.431,61.2z M37.631,61.2c0,1.087,0.881,1.969,1.969,1.969s1.969-0.881,1.969-1.969
	s-0.881-1.969-1.969-1.969S37.631,60.113,37.631,61.2z M44.831,61.2c0,1.087,0.881,1.969,1.969,1.969s1.969-0.881,1.969-1.969
	s-0.881-1.969-1.969-1.969S44.831,60.113,44.831,61.2z M52.031,61.2c0,1.087,0.881,1.969,1.969,1.969s1.969-0.881,1.969-1.969
	S55.087,59.231,54,59.231S52.031,60.113,52.031,61.2z M59.231,61.2c0,1.087,0.881,1.969,1.969,1.969s1.969-0.881,1.969-1.969
	s-0.881-1.969-1.969-1.969S59.231,60.113,59.231,61.2z M66.431,61.2c0,1.087,0.881,1.969,1.969,1.969s1.969-0.881,1.969-1.969
	s-0.881-1.969-1.969-1.969S66.431,60.113,66.431,61.2z M73.631,61.2c0,1.087,0.881,1.969,1.969,1.969s1.969-0.881,1.969-1.969
	s-0.881-1.969-1.969-1.969S73.631,60.113,73.631,61.2z M80.831,61.2c0,1.087,0.881,1.969,1.969,1.969s1.969-0.881,1.969-1.969
	s-0.881-1.969-1.969-1.969S80.831,60.113,80.831,61.2z M88.031,61.2c0,1.087,0.881,1.969,1.969,1.969s1.969-0.881,1.969-1.969
	S91.087,59.231,90,59.231S88.031,60.113,88.031,61.2z M95.231,61.2c0,1.087,0.881,1.969,1.969,1.969s1.969-0.881,1.969-1.969
	s-0.881-1.969-1.969-1.969S95.231,60.113,95.231,61.2z M102.431,61.2c0,1.087,0.881,1.969,1.969,1.969s1.969-0.881,1.969-1.969
	s-0.881-1.969-1.969-1.969S102.431,60.113,102.431,61.2z M109.631,61.2c0,1.087,0.881,1.969,1.969,1.969s1.969-0.881,1.969-1.969
	s-0.881-1.969-1.969-1.969S109.631,60.113,109.631,61.2z M116.831,61.2c0,1.087,0.881,1.969,1.969,1.969s1.969-0.881,1.969-1.969
	s-0.881-1.969-1.969-1.969S116.831,60.113,116.831,61.2z M124.031,61.2c0,1.087,0.881,1.969,1.969,1.969s1.969-0.881,1.969-1.969
	s-0.881-1.969-1.969-1.969S124.031,60.113,124.031,61.2z M124.031,3.6c0,1.087,0.881,1.969,1.969,1.969s1.969-0.881,1.969-1.969
	S127.087,1.631,126,1.631S124.031,2.513,124.031,3.6z M116.831,3.6c0,1.087,0.881,1.969,1.969,1.969s1.969-0.881,1.969-1.969
	s-0.881-1.969-1.969-1.969S116.831,2.513,116.831,3.6z M109.631,3.6c0,1.087,0.881,1.969,1.969,1.969s1.969-0.881,1.969-1.969
	s-0.881-1.969-1.969-1.969S109.631,2.513,109.631,3.6z M102.431,3.6c0,1.087,0.881,1.969,1.969,1.969s1.969-0.881,1.969-1.969
	s-0.881-1.969-1.969-1.969S102.431,2.513,102.431,3.6z M95.231,3.6c0,1.087,0.881,1.969,1.969,1.969s1.969-0.881,1.969-1.969
	S98.287,1.631,97.2,1.631S95.231,2.513,95.231,3.6z M88.031,3.6c0,1.087,0.881,1.969,1.969,1.969s1.969-0.881,1.969-1.969
	S91.087,1.631,90,1.631S88.031,2.513,88.031,3.6z M80.831,3.6c0,1.087,0.881,1.969,1.969,1.969s1.969-0.881,1.969-1.969
	S83.887,1.631,82.8,1.631S80.831,2.513,80.831,3.6z M73.631,3.6c0,1.087,0.881,1.969,1.969,1.969s1.969-0.881,1.969-1.969
	S76.687,1.631,75.6,1.631S73.631,2.513,73.631,3.6z M66.431,3.6c0,1.087,0.881,1.969,1.969,1.969s1.969-0.881,1.969-1.969
	S69.487,1.631,68.4,1.631S66.431,2.513,66.431,3.6z M59.231,3.6c0,1.087,0.881,1.969,1.969,1.969s1.969-0.881,1.969-1.969
	S62.287,1.631,61.2,1.631S59.231,2.513,59.231,3.6z M52.031,3.6c0,1.087,0.881,1.969,1.969,1.969s1.969-0.881,1.969-1.969
	S55.087,1.631,54,1.631S52.031,2.513,52.031,3.6z M44.831,3.6c0,1.087,0.881,1.969,1.969,1.969s1.969-0.881,1.969-1.969
	S47.887,1.631,46.8,1.631S44.831,2.513,44.831,3.6z M2.728,7.2c0,2.47,2.002,4.472,4.472,4.472S11.672,9.67,11.672,7.2
	S9.67,2.728,7.2,2.728S2.728,4.73,2.728,7.2z M2.728,57.6c0,2.47,2.002,4.472,4.472,4.472s4.472-2.002,4.472-4.472
	S9.67,53.128,7.2,53.128S2.728,55.13,2.728,57.6z"/>
</svg>
