<?xml version="1.0" encoding="utf-8"?>
<!-- Generator: Adobe Illustrator 26.0.3, SVG Export Plug-In . SVG Version: 6.00 Build 0)  -->
<svg version="1.1" id="Layer_1" xmlns="http://www.w3.org/2000/svg" xmlns:xlink="http://www.w3.org/1999/xlink" x="0px" y="0px"
	 width="28.4287px" height="26.9808px" viewBox="0 0 28.4287 26.9808" enable-background="new 0 0 28.4287 26.9808"
	 xml:space="preserve">
<g>
	<rect id="rect26827" x="16.552" y="0" fill="#CCCCCC" width="2.4931" height="17.8546"/>
	<rect id="rect26825" x="9.4658" y="0" fill="#CCCCCC" width="2.4931" height="17.8546"/>
	<rect id="rect8215" x="0.0154" y="6.9408" fill="#DECD87" width="28.4133" height="20.0401"/>
	<rect id="rect8217" x="1.2252" y="8.1427" fill="#C8AB37" width="25.7771" height="17.3656"/>
	<rect id="rect8219" x="6.1476" y="20.2201" fill="#C8AB37" width="16.149" height="6.7607"/>
	
		<rect id="rect8219_00000077317447133964769220000004406965173711754907_" x="0" y="19.6553" fill="#C8AB37" width="28.4287" height="5.9023"/>
	<rect id="rect17275" x="27.0184" y="18.5746" fill="#CCCCCC" width="0.7052" height="8.0639"/>
	
		<rect id="rect17275_00000052090383639761018740000011750553123838576038_" x="0.52" y="18.5746" fill="#CCCCCC" width="0.7052" height="8.0639"/>
	<g>
		
			<rect id="rect26683_00000050628623783689348540000004371015761246437008_" x="8.5265" y="18.8425" fill="#AA8800" width="4.3717" height="4.3717"/>
		
			<rect id="rect26685_00000140699164144353811650000012100135010145392302_" x="9.3896" y="19.7055" fill="#8C8663" width="2.6456" height="2.6456"/>
		
			<rect id="rect26687_00000049182001193043084590000003693508783982791594_" x="9.3896" y="19.7055" fill="#B8AF82" width="0.6421" height="2.6456"/>
		
			<rect id="rect26689_00000057142240974093060270000001894900379678916000_" x="11.393" y="19.7055" fill="#5E5B43" width="0.6421" height="2.6456"/>
		<path id="path26691_00000154392835625335002990000011095939941501456003_" fill="#9A916C" d="M9.3896,22.3511h2.6456
			L11.393,21.709h-1.3613L9.3896,22.3511z"/>
		<path id="path26693_00000148625151903481025960000015367974179400123551_" fill="#9A916C" d="M9.3896,19.7056h2.6456
			l-0.6421,0.6421h-1.3613L9.3896,19.7056z"/>
	</g>
	<g>
		
			<rect id="rect26683_00000080914214023635925130000012114909727013944222_" x="15.6127" y="18.8425" fill="#AA8800" width="4.3717" height="4.3717"/>
		
			<rect id="rect26685_00000055669111391367871470000012865844406202557322_" x="16.4758" y="19.7055" fill="#8C8663" width="2.6456" height="2.6456"/>
		
			<rect id="rect26687_00000134936500748119452310000011323065968181593261_" x="16.4758" y="19.7055" fill="#B8AF82" width="0.6421" height="2.6456"/>
		
			<rect id="rect26689_00000070825041952224577210000000563977413131434382_" x="18.4792" y="19.7055" fill="#5E5B43" width="0.6421" height="2.6456"/>
		<path id="path26691_00000151541625678214210570000012293384139709822639_" fill="#9A916C" d="M16.4758,22.3511h2.6456
			l-0.6421-0.6421h-1.3613L16.4758,22.3511z"/>
		<path id="path26693_00000066484092451927438460000003125134281216484763_" fill="#9A916C" d="M16.4758,19.7056h2.6456
			l-0.6421,0.6421h-1.3613L16.4758,19.7056z"/>
	</g>
</g>
</svg>
