<?xml version="1.0" encoding="utf-8"?>
<!-- Generator: Adobe Illustrator 25.4.1, SVG Export Plug-In . SVG Version: 6.00 Build 0)  -->
<svg version="1.1" id="Layer_1" xmlns="http://www.w3.org/2000/svg" xmlns:xlink="http://www.w3.org/1999/xlink" x="0px" y="0px"
	 width="11.2471px" height="16.8984px" viewBox="0 0 11.2471 16.8984" enable-background="new 0 0 11.2471 16.8984"
	 xml:space="preserve">
<g>
	<g id="g36" transform="matrix(1.05061, 0, 0, -0.860038, 11.8053, 12.7594)">
		<path id="polygon5" fill="#666666" d="M-2.3631-3.1696l0.0132,16.4015l-1.109,0.0022l0.0013,1.6399l-7.7632,0.0158
			l-0.0158-19.6808l7.7632-0.0158l0.0013,1.6393L-2.3631-3.1696z"/>
		<polygon id="rect7" points="-7.861,12.4335 -7.8685,10.7937 -4.4817,10.7564 -4.4743,12.3963 		"/>
		<polygon id="rect9" points="-7.9209,-0.6834 -7.9284,-2.3233 -4.5416,-2.3605 -4.5341,-0.7207 		"/>
		<polygon id="rect11" fill="#333333" points="-4.4742,12.3963 -4.4817,10.7564 -3.3527,10.744 -3.3452,12.3839 		"/>
		<polygon id="rect13" fill="#333333" points="-4.5341,-0.7207 -4.5416,-2.3605 -3.4126,-2.3729 -3.4051,-0.7331 		"/>
		<polygon id="rect19" fill="#DCDCDC" points="-3.3538,10.4982 -3.359,9.3506 -0.5366,9.3196 -0.5314,10.4672 		"/>
		<polygon id="rect21" fill="#DCDCDC" points="-3.3688,7.2192 -3.374,6.0716 -0.5516,6.0406 -0.5463,7.1882 		"/>
		<polygon id="rect4164" fill="#DCDCDC" points="-3.3688,7.2192 -3.374,6.0716 -0.5516,6.0406 -0.5463,7.1882 		"/>
		<polygon id="rect4188" fill="#DCDCDC" points="-3.3837,3.9399 -3.389,2.7923 -0.5665,2.7612 -0.5613,3.9088 		"/>
		<polygon id="rect4143" fill="#DCDCDC" points="-3.3987,0.6606 -3.4039,-0.487 -0.5815,-0.518 -0.5763,0.6296 		"/>
		<path id="path594" d="M-7.4506-4.7906c2.081-0.0001,3.8259-0.005,3.8775-0.011l0.0939-0.0109v0.8263v0.8263h0.5577h0.5577v1.3221
			v1.3221l-0.2646,0.0112c-0.1456,0.0061-0.3812,0.0112-0.5236,0.0112l-0.2589,0l0,0.259c0,0.1425,0.0034,0.4023,0.0075,0.5775
			l0.0075,0.3185h0.5161h0.5161v1.0504v1.0504L-2.543,2.7737c-0.0986,0.0061-0.3291,0.0111-0.5122,0.0112l-0.3329,0.0001l0,0.5775
			V3.94h0.5122h0.5122v1.0531v1.0531l-0.0854,0.0021c-0.047,0.0012-0.0905,0.0041-0.0967,0.0064
			C-2.5521,6.057-2.7417,6.0598-2.9671,6.061L-3.377,6.0632l0.003,0.5789l0.003,0.5789l0.5037-0.002l0.5037-0.002v1.0519
			c0,0.9435-0.0019,1.053-0.018,1.0622C-2.3916,9.3366-2.617,9.3413-2.8826,9.3413h-0.4828v0.354
			c0,0.1947,0.0033,0.4565,0.0073,0.5817l0.0073,0.2277l0.4992-0.0051l0.4992-0.0051v1.3681v1.3681h-0.5577h-0.5577v0.8125v0.8125
			l-1.2824,0.0113c-0.7053,0.0062-2.4494,0.0113-3.8756,0.0113h-2.5933l0-3.758c0-2.0669-0.0034-6.4924-0.0076-9.8345
			l-0.0076-6.0765L-7.4506-4.7906z M-7.6934-0.68c0.4222,0.0002,3.2957-0.0334,3.8032-0.0444l0.4938-0.0107l-0.0083-0.8175
			c-0.0046-0.4496-0.0097-0.8196-0.0113-0.8222c-0.004-0.0064-3.3055,0.0273-3.9757,0.0405l-0.5378,0.0106v0.8218v0.8218
			L-7.6934-0.68L-7.6934-0.68z M-7.8576,12.4268c0.009,0.0134,4.2515-0.0238,4.4105-0.0387l0.1061-0.0099l-0.0036-0.8122
			c-0.002-0.4467-0.0062-0.8159-0.0093-0.8204c-0.0054-0.0078-1.4612,0.0052-3.5841,0.0318l-0.9377,0.0117l0.0052,0.8131
			C-7.8677,12.0493-7.8618,12.4204-7.8576,12.4268z"/>
		<path id="path596" d="M-4.4694-2.368c0.0407-0.0057,0.2924-0.0105,0.5593-0.0105l0.4853-0.0001l0.0055,0.0637
			c0.0073,0.0851,0.013,0.5545,0.0136,1.1183l0.0005,0.4601L-3.8093-0.726c-0.2222,0.0058-0.477,0.0059-0.5661,0.0002l-0.162-0.0104
			l-0.0031-0.8106l-0.0031-0.8106L-4.4694-2.368z"/>
		<path id="path598" d="M-4.3254,10.7621c0.0855-0.0061,0.339-0.0111,0.5634-0.0111l0.408,0.0001l0.0027,0.1231
			c0.0015,0.0677,0.0027,0.4346,0.0028,0.8152l0.0002,0.6921l-0.074,0.0019c-0.0407,0.001-0.2955,0.003-0.5663,0.0043
			l-0.4923,0.0025l0-0.8084l0-0.8084L-4.3254,10.7621z"/>
	</g>
	<circle fill="#FFFF00" cx="2.7379" cy="2.0464" r="1.9151"/>
	<circle fill="#FF0000" cx="2.7379" cy="10.4865" r="1.9151"/>
	<circle fill="#0019FF" cx="2.7379" cy="6.2665" r="1.9151"/>
	<circle fill="#494949" cx="2.7379" cy="14.6789" r="1.9151"/>
</g>
</svg>
