<?xml version="1.0" encoding="utf-8"?>
<!-- Generator: Adobe Illustrator 25.0.1, SVG Export Plug-In . SVG Version: 6.00 Build 0)  -->
<svg version="1.2" baseProfile="tiny"
	 id="Layer_1" inkscape:version="0.92.3 (2405546, 2018-03-11)" sodipodi:docname="jst_sh4.svg" xmlns:cc="http://creativecommons.org/ns#" xmlns:dc="http://purl.org/dc/elements/1.1/" xmlns:inkscape="http://www.inkscape.org/namespaces/inkscape" xmlns:rdf="http://www.w3.org/1999/02/22-rdf-syntax-ns#" xmlns:sodipodi="http://sodipodi.sourceforge.net/DTD/sodipodi-0.dtd" xmlns:svg="http://www.w3.org/2000/svg"
	 xmlns="http://www.w3.org/2000/svg" xmlns:xlink="http://www.w3.org/1999/xlink" x="0px" y="0px" width="17.6031px"
	 height="22.7326px" viewBox="0 0 17.6031 22.7326" overflow="visible" xml:space="preserve">
<sodipodi:namedview  bordercolor="#666666" borderopacity="1" fit-margin-bottom="0" fit-margin-left="0" fit-margin-right="0" fit-margin-top="0" gridtolerance="10" guidetolerance="10" id="namedview23" inkscape:current-layer="Layer_1" inkscape:cx="15.825879" inkscape:cy="1.9241449" inkscape:document-units="mm" inkscape:pageopacity="0" inkscape:pageshadow="2" inkscape:window-height="878" inkscape:window-maximized="0" inkscape:window-width="1823" inkscape:window-x="49" inkscape:window-y="60" inkscape:zoom="13.612616" objecttolerance="10" pagecolor="#ffffff" showgrid="false" showguides="false">
	</sodipodi:namedview>
<g>
	<ellipse cx="2" cy="20.7326" rx="2" ry="2"/>
	<ellipse fill="#FF0000" cx="6.5354" cy="20.7326" rx="2" ry="2"/>
	<ellipse fill="#0000FF" cx="11.0709" cy="20.7326" rx="2" ry="2"/>
	<ellipse fill="#FFFF00" cx="15.6031" cy="20.7326" rx="2" ry="2"/>
	<path d="M17.2016,8.3326v9.9h-16.8v-9.9h1.4173v-1.4h13.9653v1.4H17.2016z"/>
	<path fill="#3F3F3F" d="M2.5276,9.0413h1.4v5.0913h-1.4L2.5276,9.0413z"/>
	<path fill="#3F3F3F" d="M13.6756,9.0413h1.4v5.0913h-1.4V9.0413z"/>
	<path fill="#DCDCDC" d="M6.872,4.5361h1.0245v3.5932H6.872V4.5361z"/>
	<path fill="#DCDCDC" d="M4.0374,4.5361h1.0245v3.5932H4.0374V4.5361z"/>
	<path fill="#DCDCDC" d="M9.7067,4.5361h1.0245v3.5932H9.7067V4.5361z"/>
	<path fill="#DCDCDC" d="M12.5413,4.5361h1.0245v3.5932h-1.0245V4.5361z"/>
</g>
</svg>
