<?xml version="1.0" encoding="utf-8"?>
<!-- Generator: Adobe Illustrator 25.4.1, SVG Export Plug-In . SVG Version: 6.00 Build 0)  -->
<svg version="1.1"
	 id="Layer_1" inkscape:version="0.92.3 (2405546, 2018-03-11)" sodipodi:docname="jst_sh4.svg" xmlns:cc="http://creativecommons.org/ns#" xmlns:dc="http://purl.org/dc/elements/1.1/" xmlns:inkscape="http://www.inkscape.org/namespaces/inkscape" xmlns:rdf="http://www.w3.org/1999/02/22-rdf-syntax-ns#" xmlns:sodipodi="http://sodipodi.sourceforge.net/DTD/sodipodi-0.dtd" xmlns:svg="http://www.w3.org/2000/svg"
	 xmlns="http://www.w3.org/2000/svg" xmlns:xlink="http://www.w3.org/1999/xlink" x="0px" y="0px" width="17.2px" height="13.8px"
	 viewBox="0 0 17.2 13.8" style="enable-background:new 0 0 17.2 13.8;" xml:space="preserve">
<style type="text/css">
	.st0{fill:#666666;}
	.st1{fill:#333333;}
	.st2{fill:#DCDCDC;}
	.st3{fill:#FF0000;}
	.st4{fill:#0000FF;}
	.st5{fill:#FFFF00;}
</style>
<sodipodi:namedview  bordercolor="#666666" borderopacity="1" fit-margin-bottom="0" fit-margin-left="0" fit-margin-right="0" fit-margin-top="0" gridtolerance="10" guidetolerance="10" id="namedview23" inkscape:current-layer="Layer_1" inkscape:cx="15.825879" inkscape:cy="1.9241449" inkscape:document-units="mm" inkscape:pageopacity="0" inkscape:pageshadow="2" inkscape:window-height="878" inkscape:window-maximized="0" inkscape:window-width="1823" inkscape:window-x="49" inkscape:window-y="60" inkscape:zoom="13.612616" objecttolerance="10" pagecolor="#ffffff" showgrid="false" showguides="false">
	</sodipodi:namedview>
<path id="polygon5" inkscape:connector-curvature="0" sodipodi:nodetypes="ccccccccc" class="st0" d="M1.6,2.4l14.2,0l0,1.4l1.4,0
	l0,10l-17,0l0-10l1.4,0L1.6,2.4z"/>
<rect id="rect7" x="13.6" y="5.1" transform="matrix(1 -6.799843e-03 6.799843e-03 1 -4.923597e-02 9.773637e-02)" width="1.4" height="4.4"/>
<rect id="rect9" x="2.3" y="5.2" transform="matrix(1 -6.799843e-03 6.799843e-03 1 -5.002330e-02 2.048792e-02)" width="1.4" height="4.4"/>
<rect id="rect11" x="13.6" y="3.6" transform="matrix(1 -6.799843e-03 6.799843e-03 1 -2.939251e-02 9.752247e-02)" class="st1" width="1.4" height="1.5"/>
<rect id="rect13" x="2.3" y="3.7" transform="matrix(1 -6.799843e-03 6.799843e-03 1 -3.018044e-02 2.027463e-02)" class="st1" width="1.4" height="1.5"/>
<rect id="rect19" x="12.4" y="0" transform="matrix(1 -6.799843e-03 6.799843e-03 1 -1.212739e-02 8.768000e-02)" class="st2" width="1" height="3.6"/>
<rect id="rect21" x="9.6" y="0" transform="matrix(1 -6.799843e-03 6.799843e-03 1 -1.232436e-02 6.836925e-02)" class="st2" width="1" height="3.6"/>
<rect id="rect4164" x="9.6" y="0" transform="matrix(1 -6.799843e-03 6.799843e-03 1 -1.232436e-02 6.836925e-02)" class="st2" width="1" height="3.6"/>
<rect id="rect4188" x="6.7" y="0" transform="matrix(1 -6.799843e-03 6.799843e-03 1 -1.252136e-02 4.905669e-02)" class="st2" width="1" height="3.6"/>
<rect id="rect4143" x="3.9" y="0.1" transform="matrix(1 -6.799843e-03 6.799843e-03 1 -1.271894e-02 2.974473e-02)" class="st2" width="1" height="3.6"/>
<path id="path594" inkscape:connector-curvature="0" d="M0.2,8.9c0-2.7,0-4.9,0-5l0-0.1h0.7h0.7V3.1V2.4h1.1h1.1l0,0.3
	c0,0.2,0,0.5,0,0.7v0.3h0.2c0.1,0,0.3,0,0.5,0l0.3,0V3V2.4h0.9h0.9l0,0.2c0,0.1,0,0.4,0,0.7l0,0.4h0.5h0.5V3V2.4h0.9h0.9l0,0.1
	c0,0.1,0,0.1,0,0.1c0,0,0,0.3,0,0.5l0,0.5l0.5,0l0.5,0l0-0.7l0-0.7h0.9c0.8,0,0.9,0,0.9,0c0,0,0,0.3,0,0.6v0.6h0.3
	c0.2,0,0.4,0,0.5,0l0.2,0l0-0.6l0-0.6h1.2h1.2v0.7v0.7h0.7h0.7l0,1.7c0,0.9,0,3.2,0,5v3.4h-3.3c-1.8,0-5.6,0-8.5,0l-5.3,0L0.2,8.9z
	 M3.7,9.3c0-0.5,0-4.3,0-4.9l0-0.6L3,3.7c-0.4,0-0.7,0-0.7,0c0,0,0,4.3,0,5.1l0,0.7H3h0.7C3.7,9.6,3.7,9.3,3.7,9.3z M15.1,9.5
	c0,0,0-5.5,0-5.7l0-0.1l-0.7,0c-0.4,0-0.7,0-0.7,0c0,0,0,1.9,0,4.6l0,1.2l0.7,0C14.7,9.5,15.1,9.5,15.1,9.5z"/>
<path id="path596" inkscape:connector-curvature="0" d="M2.3,5.1c0-0.1,0-0.4,0-0.7l0-0.6l0.1,0c0.1,0,0.5,0,1,0l0.4,0l0,0.5
	c0,0.3,0,0.6,0,0.7l0,0.2L3,5.2L2.3,5.1L2.3,5.1z"/>
<path id="path598" inkscape:connector-curvature="0" d="M13.6,4.9c0-0.1,0-0.4,0-0.7V3.6l0.1,0c0.1,0,0.4,0,0.7,0l0.6,0l0,0.1
	c0,0.1,0,0.4,0,0.7l0,0.6h-0.7h-0.7L13.6,4.9z"/>
<ellipse id="path21" cx="2" cy="16.2" rx="2" ry="2"/>
<ellipse id="ellipse4553" class="st3" cx="6.5" cy="16.2" rx="2" ry="2"/>
<ellipse id="ellipse4555" class="st4" cx="11.1" cy="16.2" rx="2" ry="2"/>
<ellipse id="ellipse4557" class="st5" cx="15.6" cy="16.2" rx="2" ry="2"/>
</svg>
