<?xml version="1.0" encoding="utf-8"?>
<!-- Generator: Adobe Illustrator 27.7.0, SVG Export Plug-In . SVG Version: 6.00 Build 0)  -->
<svg version="1.1" id="Layer_1" xmlns="http://www.w3.org/2000/svg" xmlns:xlink="http://www.w3.org/1999/xlink" x="0px" y="0px"
	 width="14.7286px" height="14.577px" viewBox="0 0 14.7286 14.577" enable-background="new 0 0 14.7286 14.577"
	 xml:space="preserve">
<g>
	
		<rect x="11.0671" y="9.6271" transform="matrix(4.480422e-11 -1 1 4.480422e-11 3.548 23.2551)" fill="#A9A8A9" width="4.6689" height="0.4529"/>
	
		<rect x="-0.9968" y="9.6271" transform="matrix(4.480422e-11 -1 1 4.480422e-11 -8.5159 11.1912)" fill="#A9A8A9" width="4.6689" height="0.4529"/>
	
		<rect x="1.1696" y="10.9753" transform="matrix(4.488149e-11 -1 1 4.488149e-11 -6.7201 15.7465)" fill="#A9A8A9" width="6.6873" height="0.516"/>
	
		<rect x="4.026" y="10.9753" transform="matrix(4.488149e-11 -1 1 4.488149e-11 -3.8637 18.6029)" fill="#A9A8A9" width="6.6873" height="0.516"/>
	
		<rect x="6.8824" y="10.9753" transform="matrix(4.488149e-11 -1 1 4.488149e-11 -1.0073 21.4594)" fill="#A9A8A9" width="6.6873" height="0.516"/>
	<path fill="#EAD5B7" d="M4.2552,10.8497v0.7346c-0.2358,0.2358-0.368,0.368-0.6038,0.6038H1.5718
		c-0.0042,0-0.0077-0.0034-0.0077-0.0077v-1.3307c0-0.0042,0.0034-0.0077,0.0077-0.0077h2.6757
		C4.2517,10.842,4.2552,10.8454,4.2552,10.8497z"/>
	<path fill="#EAD5B7" d="M13.1751,10.842v1.346h-2.0873c-0.2358-0.2358-0.368-0.368-0.6038-0.6038V10.842H13.1751z"/>
	<path fill="#EAD5B7" d="M7.1116,10.842v0.7409c-0.2363,0.2363-0.3688,0.3688-0.6051,0.6051H5.3763
		c-0.2363-0.2363-0.3688-0.3688-0.6051-0.6051V10.842H7.1116z"/>
	<path fill="#EAD5B7" d="M9.968,10.842v0.7409c-0.2363,0.2363-0.3688,0.3688-0.6051,0.6051H8.2327
		c-0.2363-0.2363-0.3688-0.3688-0.6051-0.6051V10.842H9.968z"/>
	
		<rect x="1.9433" y="-1.9433" transform="matrix(4.479534e-11 -1 1 4.479534e-11 1.9433 12.7853)" fill="#F4DFBD" width="10.842" height="14.7286"/>
</g>
</svg>
