<?xml version="1.0" encoding="utf-8"?>
<!-- Generator: Adobe Illustrator 25.4.1, SVG Export Plug-In . SVG Version: 6.00 Build 0)  -->
<svg version="1.1" id="Layer_1" xmlns="http://www.w3.org/2000/svg" xmlns:xlink="http://www.w3.org/1999/xlink" x="0px" y="0px"
	 width="16.9309px" height="11.247px" viewBox="0 0 16.9309 11.247" enable-background="new 0 0 16.9309 11.247"
	 xml:space="preserve">
<g>
	<g id="g36" transform="matrix(1.05061, 0, 0, -0.860038, 11.8053, 12.7594)">
		<path id="polygon5" fill="#666666" d="M3.5338,12.5983l-13.4264,0.0161l-0.0018-1.3547l-1.3424,0.0016l-0.0129-9.4834
			L4.8611,1.7585L4.874,11.242L3.532,11.2435L3.5338,12.5983z"/>
		<polygon id="rect7" points="-9.2391,5.8821 -7.8967,5.873 -7.8662,10.0102 -9.2086,10.0193 		"/>
		<polygon id="rect9" points="1.4985,5.809 2.841,5.7998 2.8714,9.9371 1.5291,9.9462 		"/>
		<polygon id="rect11" fill="#333333" points="-9.2086,10.0194 -7.8662,10.0102 -7.856,11.3894 -9.1985,11.3986 		"/>
		<polygon id="rect13" fill="#333333" points="1.5291,9.9462 2.8714,9.9371 2.8816,11.3162 1.5392,11.3254 		"/>
		<polygon id="rect19" fill="#DCDCDC" points="-7.6548,11.3881 -6.7154,11.3817 -6.69,14.8295 -7.6294,14.8359 		"/>
		<polygon id="rect21" fill="#DCDCDC" points="-4.9706,11.3697 -4.0312,11.3634 -4.0058,14.8112 -4.9452,14.8177 		"/>
		<polygon id="rect4164" fill="#DCDCDC" points="-4.9706,11.3697 -4.0312,11.3634 -4.0058,14.8112 -4.9452,14.8177 		"/>
		<polygon id="rect4188" fill="#DCDCDC" points="-2.2861,11.3515 -1.3467,11.3451 -1.3212,14.793 -2.2607,14.7993 		"/>
		<polygon id="rect4143" fill="#DCDCDC" points="0.3983,11.3332 1.3378,11.3269 1.3631,14.7747 0.4237,14.781 		"/>
		<path id="path594" d="M4.8607,6.3835c0.0001,2.5421,0.0041,4.6737,0.009,4.7367l0.0089,0.1147H4.2022H3.5258v0.6813v0.6813H2.4435
			H1.3613l-0.0092-0.3232c-0.005-0.1779-0.0092-0.4657-0.0092-0.6396v-0.3163h-0.212c-0.1167,0-0.3293,0.0042-0.4727,0.0092
			l-0.2607,0.0092v0.6305v0.6305h-0.8599h-0.8599l-0.0092-0.219c-0.005-0.1204-0.0091-0.402-0.0092-0.6257l-0.0001-0.4067h-0.4727
			h-0.4727v0.6257v0.6257h-0.8621h-0.8621l-0.0017-0.1043c-0.001-0.0574-0.0034-0.1106-0.0052-0.1181
			c-0.0019-0.0077-0.0042-0.2393-0.0052-0.5147l-0.0018-0.5007l-0.4739,0.0037l-0.4739,0.0037l0.0016,0.6153l0.0016,0.6153h-0.8611
			c-0.7724,0-0.862-0.0023-0.8695-0.022c-0.0045-0.0122-0.0083-0.2876-0.0083-0.612v-0.5898h-0.2898
			c-0.1594,0-0.3737,0.004-0.4762,0.0089l-0.1864,0.0089l0.0042,0.6098l0.0042,0.6098h-1.1199h-1.1199v-0.6813v-0.6813h-0.6651
			h-0.6651l-0.0093-1.5666c-0.0051-0.8616-0.0093-2.9922-0.0093-4.7344V1.7799h3.0763c1.692,0,5.3147-0.0042,8.0506-0.0093
			l4.9743-0.0093L4.8607,6.3835z M1.4958,6.0869c-0.0002,0.5158,0.0273,4.026,0.0363,4.6459l0.0088,0.6032l0.6692-0.0101
			c0.368-0.0056,0.6709-0.0118,0.6731-0.0138c0.0052-0.0049-0.0223-4.038-0.0332-4.8567l-0.0087-0.657H2.1686H1.4958L1.4958,6.0869
			L1.4958,6.0869z M-9.2336,5.8863c-0.011,0.011,0.0195,5.1936,0.0317,5.3878l0.0081,0.1296l0.6649-0.0044
			c0.3657-0.0024,0.6679-0.0076,0.6716-0.0114c0.0064-0.0066-0.0043-1.785-0.026-4.3783l-0.0096-1.1455l-0.6656,0.0064
			C-8.9245,5.8739-9.2283,5.8811-9.2336,5.8863z"/>
		<path id="path596" d="M2.8776,10.0253c0.0047,0.0497,0.0086,0.3572,0.0086,0.6832l0.0001,0.5928L2.8341,11.308
			c-0.0697,0.0089-0.4539,0.0159-0.9154,0.0166L1.542,11.3253l-0.0086-0.4936c-0.0047-0.2714-0.0048-0.5827-0.0002-0.6915
			l0.0085-0.1979l0.6636-0.0038l0.6636-0.0038L2.8776,10.0253z"/>
		<path id="path598" d="M-7.8708,10.2012c0.005,0.1044,0.0091,0.4141,0.0091,0.6882l-0.0001,0.4984l-0.1008,0.0033
			c-0.0554,0.0018-0.3558,0.0033-0.6673,0.0034l-0.5666,0.0002l-0.0016-0.0904c-0.0008-0.0497-0.0025-0.361-0.0035-0.6918
			l-0.002-0.6014h0.6618h0.6618L-7.8708,10.2012z"/>
	</g>
	<circle fill="#FFFF00" cx="2.0789" cy="8.5091" r="1.9151"/>
	<circle fill="#FF0000" cx="10.519" cy="8.5091" r="1.9151"/>
	<circle fill="#0019FF" cx="6.299" cy="8.5091" r="1.9151"/>
	<circle fill="#494949" cx="14.7114" cy="8.5091" r="1.9151"/>
</g>
</svg>
