<?xml version="1.0" encoding="UTF-8" standalone="no"?>
<!-- Generator: Adobe Illustrator 19.2.1, SVG Export Plug-In . SVG Version: 6.00 Build 0)  -->

<svg
   xmlns:dc="http://purl.org/dc/elements/1.1/"
   xmlns:cc="http://creativecommons.org/ns#"
   xmlns:rdf="http://www.w3.org/1999/02/22-rdf-syntax-ns#"
   xmlns:svg="http://www.w3.org/2000/svg"
   xmlns="http://www.w3.org/2000/svg"
   xmlns:sodipodi="http://sodipodi.sourceforge.net/DTD/sodipodi-0.dtd"
   xmlns:inkscape="http://www.inkscape.org/namespaces/inkscape"
   version="1.2"
   id="Layer_1"
   x="0px"
   y="0px"
   width="21.344501"
   height="15.528353"
   viewBox="0 0 21.344501 15.528354"
   xml:space="preserve"
   inkscape:version="0.92.2 5c3e80d, 2017-08-06"
   sodipodi:docname="jst_sh4.svg"><metadata
     id="metadata27"><rdf:RDF><cc:Work
         rdf:about=""><dc:format>image/svg+xml</dc:format><dc:type
           rdf:resource="http://purl.org/dc/dcmitype/StillImage" /><dc:title /></cc:Work></rdf:RDF></metadata><defs
     id="defs25" /><sodipodi:namedview
     pagecolor="#ffffff"
     bordercolor="#666666"
     borderopacity="1"
     objecttolerance="10"
     gridtolerance="10"
     guidetolerance="10"
     inkscape:pageopacity="0"
     inkscape:pageshadow="2"
     inkscape:window-width="1823"
     inkscape:window-height="1644"
     id="namedview23"
     showgrid="false"
     inkscape:zoom="54.450462"
     inkscape:cx="11.624414"
     inkscape:cy="9.5121279"
     inkscape:window-x="2738"
     inkscape:window-y="54"
     inkscape:window-maximized="0"
     inkscape:current-layer="Layer_1"
     inkscape:document-units="mm"
     fit-margin-top="0"
     fit-margin-left="0"
     fit-margin-right="0"
     fit-margin-bottom="0"
     showguides="false" /><path
     style="fill:#666666;stroke-width:0.58043808"
     d="m 1.8178808,2.9555383 17.7340922,-0.021278 0.0024,1.7894276 1.7731,-0.00216 0.01703,12.5259911 L 0.06483654,17.273053 0.0478036,4.7470625 1.8202787,4.7448993 Z"
     id="polygon5"
     inkscape:connector-curvature="0"
     sodipodi:nodetypes="ccccccccc" /><rect
     id="rect7"
     height="5.4647388"
     width="1.7730939"
     y="-11.953542"
     x="-18.601067"
     transform="matrix(-0.99997679,0.0068132,-0.0073672,-0.99997286,0,0)"
     style="stroke-width:0.50716871" /><rect
     id="rect9"
     height="5.4647388"
     width="1.7730939"
     y="-11.953542"
     x="-4.4181042"
     transform="matrix(-0.99997679,0.0068132,-0.0073672,-0.99997286,0,0)"
     style="stroke-width:0.50716871" /><rect
     style="fill:#333333;stroke-width:0.50716871"
     id="rect11"
     height="1.8217942"
     width="1.7730939"
     y="-6.4888015"
     x="-18.601067"
     transform="matrix(-0.99997679,0.0068132,-0.0073672,-0.99997286,0,0)" /><rect
     style="fill:#333333;stroke-width:0.50716871"
     id="rect13"
     height="1.8217942"
     width="1.7730939"
     y="-6.4888015"
     x="-4.4181042"
     transform="matrix(-0.99997679,0.0068132,-0.0073672,-0.99997286,0,0)" /><rect
     style="fill:#dcdcdc;stroke-width:0.50716871"
     id="rect19"
     height="4.5541635"
     width="1.2408531"
     y="-4.6670079"
     x="-16.562166"
     transform="matrix(-0.99997679,0.0068132,-0.0073672,-0.99997286,0,0)" /><rect
     style="fill:#dcdcdc;stroke-width:0.50716871"
     id="rect21"
     height="4.5541635"
     width="1.2408531"
     y="-4.6670079"
     x="-13.016603"
     transform="matrix(-0.99997679,0.0068132,-0.0073672,-0.99997286,0,0)" /><rect
     x="-13.016603"
     y="-4.6670079"
     width="1.2408531"
     height="4.5541635"
     id="rect4164"
     style="fill:#dcdcdc;stroke-width:0.50716871"
     transform="matrix(-0.99997679,0.0068132,-0.0073672,-0.99997286,0,0)" /><rect
     style="fill:#dcdcdc;stroke-width:0.50716871"
     id="rect4188"
     height="4.5541635"
     width="1.2408531"
     y="-4.6670079"
     x="-9.4707937"
     transform="matrix(-0.99997679,0.0068132,-0.0073672,-0.99997286,0,0)" /><rect
     x="-5.9250479"
     y="-4.6670079"
     width="1.2408531"
     height="4.5541635"
     id="rect4143"
     style="fill:#dcdcdc;stroke-width:0.50716871"
     transform="matrix(-0.99997679,0.0068132,-0.0073672,-0.99997286,0,0)" /><path
     style="fill:#000000;fill-opacity:1;stroke-width:0.01836532"
     d="M 0.06517335,11.164321 C 0.06511281,7.8066098 0.05975569,4.9912106 0.05326863,4.907878 L 0.04147399,4.7563641 H 0.93491394 1.8283539 V 3.8564635 2.956563 h 1.4295614 1.4295616 l 0.012073,0.4269936 c 0.00664,0.2348465 0.012093,0.6150086 0.012116,0.8448046 l 4.22e-5,0.417811 0.2800711,-5.14e-5 C 5.1458183,4.6460914 5.4268077,4.6406508 5.6162,4.6340338 L 5.9605502,4.6219993 V 3.7892812 2.956563 H 7.0963246 8.232099 L 8.244096,3.2458168 C 8.250696,3.4049063 8.25612,3.776804 8.256154,4.072256 l 6.11e-5,0.5371855 H 8.8806356 9.5050564 V 3.7830023 2.956563 h 1.1386496 1.13865 l 0.0023,0.1377399 c 0.0013,0.075757 0.0044,0.1460043 0.0069,0.1561052 0.0025,0.010101 0.0056,0.3159919 0.0069,0.6797578 l 0.0023,0.6613925 0.625897,-0.00483 0.625898,-0.00483 -0.0022,-0.8126653 -0.0022,-0.8126653 h 1.137382 c 1.020203,0 1.138532,0.00299 1.148531,0.02905 0.0061,0.015978 0.01115,0.3796108 0.01115,0.808074 v 0.7790239 h 0.382768 c 0.210523,0 0.493578,-0.00531 0.629012,-0.0118 l 0.246244,-0.0118 -0.0055,-0.8054563 -0.0055,-0.8054563 h 1.479304 1.479304 v 0.8999005 0.8999006 h 0.878501 0.878501 l 0.01222,2.0691407 c 0.0067,1.1380275 0.01222,3.9520531 0.01222,6.2533901 v 4.18425 l -4.063327,2e-6 c -2.234829,2e-6 -7.019913,0.0055 -10.6335184,0.01224 L 0.06528343,17.26925 Z M 4.5097923,11.556123 C 4.5099759,10.874818 4.4736991,6.2384141 4.46178,5.4196565 L 4.4501812,4.6229062 3.5662611,4.6363721 c -0.4861561,0.00741 -0.8862037,0.015613 -0.8889949,0.018238 -0.00691,0.0065 0.029489,5.3335249 0.043831,6.4148319 l 0.011509,0.867761 H 3.621148 4.5096902 l 1.102e-4,-0.38108 z m 14.1717467,0.264822 c 0.01448,-0.01448 -0.02575,-6.8598106 -0.04182,-7.1163455 l -0.01072,-0.1711391 -0.878214,0.00585 c -0.483017,0.00322 -0.882207,0.00998 -0.887089,0.015034 -0.0084,0.00864 0.0056,2.3576962 0.03437,5.7829206 l 0.0127,1.512985 0.879129,-0.0084 c 0.483521,-0.0046 0.884756,-0.01403 0.891634,-0.02091 z"
     id="path594"
     inkscape:connector-curvature="0" /><path
     style="fill:#000000;fill-opacity:1;stroke-width:0.01836532"
     d="M 2.6846939,6.3541467 C 2.678493,6.2884907 2.6733608,5.8823735 2.673289,5.4516641 l -1.305e-4,-0.783108 0.06887,-0.00884 c 0.091989,-0.011811 0.5995229,-0.021029 1.2091384,-0.021963 l 0.4974824,-7.616e-4 0.011423,0.6519688 c 0.00628,0.3585828 0.00636,0.7695814 1.652e-4,0.9133302 l -0.011258,0.2613614 -0.8765057,0.00494 -0.8765058,0.00494 z"
     id="path596"
     inkscape:connector-curvature="0" /><path
     style="fill:#000000;fill-opacity:1;stroke-width:0.01836532"
     d="m 16.881578,6.1216764 c -0.0066,-0.1379595 -0.01203,-0.547047 -0.01203,-0.9090832 V 4.5543456 l 0.133148,-0.00428 c 0.07323,-0.00235 0.469883,-0.00442 0.881446,-0.00459 l 0.748298,-3.101e-4 0.002,0.1193746 c 0.0011,0.065656 0.0032,0.4768019 0.0047,0.9136575 l 0.0027,0.794283 -0.874097,1.69e-5 -0.874097,1.71e-5 z"
     id="path598"
     inkscape:connector-curvature="0" /></svg>