<?xml version="1.0" encoding="utf-8"?>
<!-- Generator: Adobe Illustrator 26.5.0, SVG Export Plug-In . SVG Version: 6.00 Build 0)  -->
<svg version="1.1" id="Layer_1" xmlns="http://www.w3.org/2000/svg" xmlns:xlink="http://www.w3.org/1999/xlink" x="0px" y="0px"
	 width="5.4877px" height="5.5054px" viewBox="0 0 5.4877 5.5054" enable-background="new 0 0 5.4877 5.5054" xml:space="preserve">
<g>
	<rect width="5.4877" height="5.5054"/>
	<rect y="0.4993" fill="#FFC200" width="2.9335" height="0.4838"/>
	<path fill="#FFC200" d="M0.492,0.1591H0.3029c-0.0688,0-0.1245,0.0558-0.1245,0.1245v0.3533c0,0.0688,0.0558,0.1245,0.1245,0.1245
		H0.492c0.0688,0,0.1245-0.0558,0.1245-0.1245V0.2837C0.6166,0.2149,0.5608,0.1591,0.492,0.1591z"/>
	<rect y="1.7845" fill="#FFC200" width="2.9335" height="0.4838"/>
	<rect y="3.0696" fill="#FFC200" width="2.9335" height="0.4838"/>
	<rect y="4.3548" fill="#FFC200" width="2.9335" height="0.4838"/>
	<rect x="0.6166" y="0.5391" fill="#FFC200" width="0.7722" height="0.7009"/>
	<rect x="0.6166" y="1.6759" fill="#FFC200" width="0.7722" height="0.7009"/>
	<rect x="0.6248" y="2.9611" fill="#FFC200" width="0.7722" height="0.7009"/>
	<rect x="0.6248" y="4.2462" fill="#FFC200" width="0.7722" height="0.7009"/>
	<rect x="1.5796" fill="#025608" width="3.9082" height="5.5054"/>
	<g>
		<rect x="2.0218" y="0.8249" fill="#4C3410" width="2.9535" height="3.8555"/>
		<rect x="2.1226" y="0.9111" fill="#FFC200" width="0.235" height="0.2133"/>
		<rect x="2.1226" y="2.5623" fill="#FFC200" width="0.235" height="0.2133"/>
		<rect x="2.1226" y="3.7818" fill="#FFC200" width="0.235" height="0.2133"/>
		<rect x="2.1226" y="4.3801" fill="#FFC200" width="0.235" height="0.2133"/>
		
			<line fill="#FFC200" stroke="#CE9D00" stroke-width="0.05" stroke-linecap="round" stroke-miterlimit="10" x1="1.0027" y1="0.9111" x2="2.2401" y2="1.0178"/>
	</g>
	<rect x="2.654" y="2.8374" fill="#93601D" width="2.248" height="1.7593"/>
	
		<line fill="#FFC200" stroke="#CE9D00" stroke-width="0.05" stroke-linecap="round" stroke-miterlimit="10" x1="1.011" y1="2.0264" x2="2.2401" y2="2.669"/>
	
		<line fill="#FFC200" stroke="#CE9D00" stroke-width="0.05" stroke-linecap="round" stroke-miterlimit="10" x1="1.011" y1="3.3115" x2="2.2401" y2="3.8884"/>
	
		<line fill="#FFC200" stroke="#CE9D00" stroke-width="0.05" stroke-linecap="round" stroke-miterlimit="10" x1="1.011" y1="4.5967" x2="2.2401" y2="4.4867"/>
</g>
</svg>
