<?xml version="1.0" encoding="utf-8"?>
<!-- Generator: Adobe Illustrator 24.3.0, SVG Export Plug-In . SVG Version: 6.00 Build 0)  -->
<svg version="1.2" baseProfile="tiny" id="Layer_1" xmlns="http://www.w3.org/2000/svg" xmlns:xlink="http://www.w3.org/1999/xlink"
	 x="0px" y="0px" width="87.874px" height="51.0236px" viewBox="0 0 87.874 51.0236" overflow="visible" xml:space="preserve">
<g>
	<path fill="#231F20" d="M85.0394,0.7087c-0.3914,0-0.7087-0.3173-0.7087-0.7087l-2.8346,0c0,0.3914-0.3173,0.7087-0.7087,0.7087
		S80.0787,0.3914,80.0787,0l-2.8347,0c0,0.3914-0.3173,0.7087-0.7086,0.7087c-0.3914,0-0.7087-0.3173-0.7087-0.7087l-2.8347,0
		c0,0.3914-0.3173,0.7087-0.7087,0.7087c-0.3914,0-0.7086-0.3173-0.7086-0.7087l-2.8347,0c0,0.3914-0.3173,0.7087-0.7087,0.7087
		c-0.3914,0-0.7087-0.3173-0.7087-0.7087l-2.8346,0c0,0.3914-0.3173,0.7087-0.7087,0.7087S63.0709,0.3914,63.0709,0l-2.8347,0
		c0,0.3914-0.3173,0.7087-0.7086,0.7087c-0.3914,0-0.7087-0.3173-0.7087-0.7087l-2.8347,0c0,0.3914-0.3173,0.7087-0.7087,0.7087
		c-0.3914,0-0.7086-0.3173-0.7086-0.7087l-2.8347,0c0,0.3914-0.3173,0.7087-0.7087,0.7087c-0.3914,0-0.7087-0.3173-0.7087-0.7087
		l-2.8346,0c0,0.3914-0.3173,0.7087-0.7087,0.7087S46.063,0.3914,46.063,0l-2.8347,0c0,0.3914-0.3173,0.7087-0.7086,0.7087
		c-0.3914,0-0.7087-0.3173-0.7087-0.7087l-2.8347,0c0,0.3914-0.3173,0.7087-0.7087,0.7087c-0.3914,0-0.7086-0.3173-0.7086-0.7087
		l-2.8347,0c0,0.3914-0.3173,0.7087-0.7087,0.7087c-0.3914,0-0.7087-0.3173-0.7087-0.7087l-2.8346,0
		c0,0.3914-0.3173,0.7087-0.7087,0.7087S29.0551,0.3914,29.0551,0l-2.8347,0c0,0.3914-0.3173,0.7087-0.7086,0.7087
		c-0.3914,0-0.7087-0.3173-0.7087-0.7087l-2.8347,0c0,0.3914-0.3173,0.7087-0.7087,0.7087c-0.3914,0-0.7086-0.3173-0.7086-0.7087
		L0,0l0,51.0236h20.5512c0-0.3914,0.3173-0.7087,0.7086-0.7087c0.3914,0,0.7087,0.3173,0.7087,0.7087h2.8347
		c0-0.3914,0.3173-0.7087,0.7087-0.7087c0.3914,0,0.7086,0.3173,0.7086,0.7087h2.8347c0-0.3914,0.3173-0.7087,0.7087-0.7087
		s0.7087,0.3173,0.7087,0.7087h2.8346c0-0.3914,0.3173-0.7087,0.7087-0.7087c0.3914,0,0.7087,0.3173,0.7087,0.7087h2.8347
		c0-0.3914,0.3173-0.7087,0.7086-0.7087c0.3914,0,0.7087,0.3173,0.7087,0.7087h2.8347c0-0.3914,0.3173-0.7087,0.7087-0.7087
		c0.3914,0,0.7086,0.3173,0.7086,0.7087h2.8347c0-0.3914,0.3173-0.7087,0.7087-0.7087s0.7087,0.3173,0.7087,0.7087h2.8346
		c0-0.3914,0.3173-0.7087,0.7087-0.7087c0.3914,0,0.7087,0.3173,0.7087,0.7087h2.8347c0-0.3914,0.3173-0.7087,0.7086-0.7087
		c0.3914,0,0.7087,0.3173,0.7087,0.7087h2.8347c0-0.3914,0.3173-0.7087,0.7087-0.7087c0.3914,0,0.7086,0.3173,0.7086,0.7087h2.8347
		c0-0.3914,0.3173-0.7087,0.7087-0.7087s0.7087,0.3173,0.7087,0.7087h2.8346c0-0.3914,0.3173-0.7087,0.7087-0.7087
		c0.3914,0,0.7087,0.3173,0.7087,0.7087h2.8347c0-0.3914,0.3173-0.7087,0.7086-0.7087c0.3914,0,0.7087,0.3173,0.7087,0.7087h2.8347
		c0-0.3914,0.3173-0.7087,0.7087-0.7087c0.3914,0,0.7086,0.3173,0.7086,0.7087h2.8347c0-0.3914,0.3173-0.7087,0.7087-0.7087
		s0.7087,0.3173,0.7087,0.7087h2.8346c0-0.3914,0.3173-0.7087,0.7087-0.7087c0.3914,0,0.7087,0.3173,0.7087,0.7087h2.126v-5.6693
		c-0.3914,0-0.7087-0.3173-0.7087-0.7086c0-0.3914,0.3173-0.7087,0.7087-0.7087v-2.8347c-0.3914,0-0.7087-0.3173-0.7087-0.7087
		c0-0.3914,0.3173-0.7086,0.7087-0.7086v-2.8347c-0.3914,0-0.7087-0.3173-0.7087-0.7087c0-0.3914,0.3173-0.7087,0.7087-0.7087
		v-2.8346c-0.3914,0-0.7087-0.3173-0.7087-0.7087s0.3173-0.7087,0.7087-0.7087v-2.8347c-0.3914,0-0.7087-0.3173-0.7087-0.7086
		c0-0.3914,0.3173-0.7087,0.7087-0.7087v-2.8347c-0.3914,0-0.7087-0.3173-0.7087-0.7087c0-0.3914,0.3173-0.7086,0.7087-0.7086
		v-2.8347c-0.3914,0-0.7087-0.3173-0.7087-0.7087c0-0.3914,0.3173-0.7087,0.7087-0.7087v-2.8346
		c-0.3914,0-0.7087-0.3173-0.7087-0.7087c0-0.3914,0.3173-0.7087,0.7087-0.7087v-2.8347c-0.3914,0-0.7087-0.3173-0.7087-0.7086
		c0-0.3914,0.3173-0.7087,0.7087-0.7087V7.0866c-0.3914,0-0.7087-0.3173-0.7087-0.7087c0-0.3914,0.3173-0.7086,0.7087-0.7086V0
		l-2.126,0C85.748,0.3914,85.4308,0.7087,85.0394,0.7087z"/>
	<g>
		<path fill="#DBC067" d="M79.5118,49.6063v1.4173h0.5669c0-0.3914,0.3173-0.7087,0.7087-0.7087s0.7087,0.3173,0.7087,0.7087h0.5669
			v-1.4173H79.5118z"/>
		<path fill="#DBC067" d="M75.2598,49.6063v1.4173h0.567c0-0.3914,0.3173-0.7087,0.7087-0.7087
			c0.3914,0,0.7086,0.3173,0.7086,0.7087h0.567v-1.4173H75.2598z"/>
		<path fill="#DBC067" d="M66.7559,49.6063v1.4173h0.5669c0-0.3914,0.3173-0.7087,0.7087-0.7087
			c0.3914,0,0.7087,0.3173,0.7087,0.7087h0.5669v-1.4173H66.7559z"/>
		<path fill="#DBC067" d="M71.0079,49.6063v1.4173h0.567c0-0.3914,0.3173-0.7087,0.7086-0.7087
			c0.3914,0,0.7087,0.3173,0.7087,0.7087h0.567v-1.4173H71.0079z"/>
		<path fill="#DBC067" d="M86.4567,41.6693h1.4173v-0.567c-0.3914,0-0.7087-0.3173-0.7087-0.7087
			c0-0.3914,0.3173-0.7086,0.7087-0.7086v-0.567h-1.4173V41.6693z"/>
		<path fill="#DBC067" d="M86.4567,37.4173h1.4173v-0.5669c-0.3914,0-0.7087-0.3173-0.7087-0.7087
			c0-0.3914,0.3173-0.7087,0.7087-0.7087v-0.5669h-1.4173V37.4173z"/>
		<path fill="#DBC067" d="M86.4567,33.1653h1.4173v-0.5669c-0.3914,0-0.7087-0.3173-0.7087-0.7087s0.3173-0.7087,0.7087-0.7087
			v-0.5669h-1.4173V33.1653z"/>
		<path fill="#DBC067" d="M86.4567,45.9213h1.4173v-0.567c-0.3914,0-0.7087-0.3173-0.7087-0.7086
			c0-0.3914,0.3173-0.7087,0.7087-0.7087v-0.567h-1.4173V45.9213z"/>
		<path fill="#DBC067" d="M83.7638,49.6063v1.4173h0.5669c0-0.3914,0.3173-0.7087,0.7087-0.7087
			c0.3914,0,0.7087,0.3173,0.7087,0.7087h0.5669v-1.4173H83.7638z"/>
		<path fill="#DBC067" d="M19.9843,49.6063v1.4173h0.567c0-0.3914,0.3173-0.7087,0.7086-0.7087
			c0.3914,0,0.7087,0.3173,0.7087,0.7087h0.567v-1.4173H19.9843z"/>
		<path fill="#DBC067" d="M36.9921,49.6063v1.4173h0.567c0-0.3914,0.3173-0.7087,0.7086-0.7087
			c0.3914,0,0.7087,0.3173,0.7087,0.7087h0.567v-1.4173H36.9921z"/>
		<path fill="#DBC067" d="M28.4882,49.6063v1.4173h0.5669c0-0.3914,0.3173-0.7087,0.7087-0.7087s0.7087,0.3173,0.7087,0.7087h0.5669
			v-1.4173H28.4882z"/>
		<path fill="#DBC067" d="M32.7402,49.6063v1.4173h0.5669c0-0.3914,0.3173-0.7087,0.7087-0.7087
			c0.3914,0,0.7087,0.3173,0.7087,0.7087h0.5669v-1.4173H32.7402z"/>
		<path fill="#DBC067" d="M58.252,49.6063v1.4173h0.567c0-0.3914,0.3173-0.7087,0.7087-0.7087c0.3914,0,0.7086,0.3173,0.7086,0.7087
			h0.567v-1.4173H58.252z"/>
		<path fill="#DBC067" d="M24.2362,49.6063v1.4173h0.567c0-0.3914,0.3173-0.7087,0.7087-0.7087
			c0.3914,0,0.7086,0.3173,0.7086,0.7087h0.567v-1.4173H24.2362z"/>
		<path fill="#DBC067" d="M86.4567,28.9134h1.4173v-0.567c-0.3914,0-0.7087-0.3173-0.7087-0.7086
			c0-0.3914,0.3173-0.7087,0.7087-0.7087v-0.567h-1.4173V28.9134z"/>
		<path fill="#DBC067" d="M49.748,49.6063v1.4173h0.5669c0-0.3914,0.3173-0.7087,0.7087-0.7087
			c0.3914,0,0.7087,0.3173,0.7087,0.7087h0.5669v-1.4173H49.748z"/>
		<path fill="#DBC067" d="M54,49.6063v1.4173h0.567c0-0.3914,0.3173-0.7087,0.7086-0.7087c0.3914,0,0.7087,0.3173,0.7087,0.7087
			h0.567v-1.4173H54z"/>
		<path fill="#DBC067" d="M45.4961,49.6063v1.4173h0.5669c0-0.3914,0.3173-0.7087,0.7087-0.7087s0.7087,0.3173,0.7087,0.7087h0.5669
			v-1.4173H45.4961z"/>
		<path fill="#DBC067" d="M41.2441,49.6063v1.4173h0.567c0-0.3914,0.3173-0.7087,0.7087-0.7087
			c0.3914,0,0.7086,0.3173,0.7086,0.7087h0.567v-1.4173H41.2441z"/>
		<path fill="#DBC067" d="M62.504,49.6063v1.4173h0.5669c0-0.3914,0.3173-0.7087,0.7087-0.7087s0.7087,0.3173,0.7087,0.7087h0.5669
			v-1.4173H62.504z"/>
		<path fill="#DBC067" d="M48.0472,1.4173V0l-0.5669,0c0,0.3914-0.3173,0.7087-0.7087,0.7087S46.063,0.3914,46.063,0l-0.5669,0
			v1.4173H48.0472z"/>
		<path fill="#DBC067" d="M43.7953,1.4173V0l-0.567,0c0,0.3914-0.3173,0.7087-0.7086,0.7087c-0.3914,0-0.7087-0.3173-0.7087-0.7087
			l-0.567,0v1.4173H43.7953z"/>
		<path fill="#DBC067" d="M56.5512,1.4173V0l-0.567,0c0,0.3914-0.3173,0.7087-0.7087,0.7087c-0.3914,0-0.7086-0.3173-0.7086-0.7087
			L54,0v1.4173H56.5512z"/>
		<path fill="#DBC067" d="M39.5433,1.4173V0l-0.567,0c0,0.3914-0.3173,0.7087-0.7087,0.7087c-0.3914,0-0.7086-0.3173-0.7086-0.7087
			l-0.567,0v1.4173H39.5433z"/>
		<path fill="#DBC067" d="M60.8032,1.4173V0l-0.567,0c0,0.3914-0.3173,0.7087-0.7086,0.7087c-0.3914,0-0.7087-0.3173-0.7087-0.7087
			l-0.567,0v1.4173H60.8032z"/>
		<path fill="#DBC067" d="M52.2992,1.4173V0l-0.5669,0c0,0.3914-0.3173,0.7087-0.7087,0.7087c-0.3914,0-0.7087-0.3173-0.7087-0.7087
			L49.748,0v1.4173H52.2992z"/>
		<path fill="#DBC067" d="M86.4567,24.6614h1.4173v-0.567c-0.3914,0-0.7087-0.3173-0.7087-0.7087
			c0-0.3914,0.3173-0.7086,0.7087-0.7086v-0.567h-1.4173V24.6614z"/>
		<path fill="#DBC067" d="M22.5355,1.4173V0l-0.567,0c0,0.3914-0.3173,0.7087-0.7087,0.7087c-0.3914,0-0.7086-0.3173-0.7086-0.7087
			l-0.567,0v1.4173H22.5355z"/>
		<path fill="#DBC067" d="M26.7874,1.4173V0l-0.567,0c0,0.3914-0.3173,0.7087-0.7086,0.7087c-0.3914,0-0.7087-0.3173-0.7087-0.7087
			l-0.567,0v1.4173H26.7874z"/>
		<path fill="#DBC067" d="M31.0394,1.4173V0l-0.5669,0c0,0.3914-0.3173,0.7087-0.7087,0.7087S29.0551,0.3914,29.0551,0l-0.5669,0
			v1.4173H31.0394z"/>
		<path fill="#DBC067" d="M35.2913,1.4173V0l-0.5669,0c0,0.3914-0.3173,0.7087-0.7087,0.7087c-0.3914,0-0.7087-0.3173-0.7087-0.7087
			l-0.5669,0v1.4173H35.2913z"/>
		<path fill="#DBC067" d="M86.4567,11.9055h1.4173v-0.567c-0.3914,0-0.7087-0.3173-0.7087-0.7086
			c0-0.3914,0.3173-0.7087,0.7087-0.7087v-0.567h-1.4173V11.9055z"/>
		<path fill="#DBC067" d="M86.4567,7.6536h1.4173v-0.567c-0.3914,0-0.7087-0.3173-0.7087-0.7087
			c0-0.3914,0.3173-0.7086,0.7087-0.7086v-0.567h-1.4173V7.6536z"/>
		<path fill="#DBC067" d="M86.4567,16.1575h1.4173v-0.5669c-0.3914,0-0.7087-0.3173-0.7087-0.7087
			c0-0.3914,0.3173-0.7087,0.7087-0.7087v-0.5669h-1.4173V16.1575z"/>
		<path fill="#DBC067" d="M86.4567,20.4094h1.4173v-0.5669c-0.3914,0-0.7087-0.3173-0.7087-0.7087
			c0-0.3914,0.3173-0.7087,0.7087-0.7087v-0.5669h-1.4173V20.4094z"/>
		<path fill="#DBC067" d="M86.3149,1.4173V0L85.748,0c0,0.3914-0.3173,0.7087-0.7087,0.7087c-0.3914,0-0.7087-0.3173-0.7087-0.7087
			l-0.5669,0v1.4173H86.3149z"/>
		<path fill="#DBC067" d="M82.063,1.4173V0l-0.5669,0c0,0.3914-0.3173,0.7087-0.7087,0.7087S80.0787,0.3914,80.0787,0l-0.5669,0
			v1.4173H82.063z"/>
		<path fill="#DBC067" d="M69.3071,1.4173V0l-0.5669,0c0,0.3914-0.3173,0.7087-0.7087,0.7087c-0.3914,0-0.7087-0.3173-0.7087-0.7087
			l-0.5669,0v1.4173H69.3071z"/>
		<path fill="#DBC067" d="M73.5591,1.4173V0l-0.567,0c0,0.3914-0.3173,0.7087-0.7087,0.7087c-0.3914,0-0.7086-0.3173-0.7086-0.7087
			l-0.567,0v1.4173H73.5591z"/>
		<path fill="#DBC067" d="M77.811,1.4173V0l-0.567,0c0,0.3914-0.3173,0.7087-0.7086,0.7087c-0.3914,0-0.7087-0.3173-0.7087-0.7087
			l-0.567,0v1.4173H77.811z"/>
		<path fill="#DBC067" d="M65.0551,1.4173V0l-0.5669,0c0,0.3914-0.3173,0.7087-0.7087,0.7087S63.0709,0.3914,63.0709,0L62.504,0
			v1.4173H65.0551z"/>
	</g>
	<polygon fill="#40383A" points="2.9948,8.1506 2.9948,12.8894 16.8698,12.8894 16.8698,14.2921 2.9948,14.2921 2.9948,18.7654 
		10.6526,18.7654 10.6526,27.2951 2.9948,27.2951 2.9948,32.413 10.6526,32.413 10.6526,40.9048 2.9948,40.9048 2.9948,45.7194 
		13.2684,45.7194 13.2684,47.122 1.5543,47.122 1.5543,39.4642 9.212,39.4642 9.212,33.8157 1.5543,33.8157 1.5543,25.8925 
		9.212,25.8925 9.212,20.1681 1.5543,20.1681 1.5543,6.3689 16.8698,6.3689 16.8698,8.1506 	"/>
	<polygon fill="#B3B1AD" points="19.5591,18.3685 19.5591,47.9622 85.0394,47.9622 85.0394,3.0614 30.3307,3.0614 30.3307,18.3685 	
		"/>
	<polygon fill="#D9D7D2" points="84.3308,47.2536 20.2678,47.2536 20.2678,19.0768 31.0393,19.0768 31.0393,3.7697 84.3308,3.7697 	
		"/>
	
		<rect x="17.1496" y="4.9606" transform="matrix(4.491880e-11 -1 1 4.491880e-11 13.6063 26.3622)" fill="#D9D7D2" width="5.6693" height="2.8346"/>
	
		<rect x="24.5197" y="4.9606" transform="matrix(4.491880e-11 -1 1 4.491880e-11 20.9764 33.7323)" fill="#D9D7D2" width="5.6693" height="2.8346"/>
	
		<rect x="22.9606" y="8.6457" transform="matrix(4.491880e-11 -1 1 4.491880e-11 13.6063 33.7323)" fill="#D9D7D2" width="1.4173" height="2.8346"/>
	
		<rect x="21.4016" y="14.0466" transform="matrix(-0.7071 -0.7071 0.7071 -0.7071 27.6653 41.6785)" fill="none" stroke="#FFFFFF" stroke-width="0.2835" stroke-linecap="round" stroke-linejoin="round" stroke-miterlimit="10" width="2.126" height="2.126"/>
	
		<rect x="23.406" y="12.0422" transform="matrix(-0.7071 -0.7071 0.7071 -0.7071 32.5044 39.6741)" fill="none" stroke="#FFFFFF" stroke-width="0.2835" stroke-linecap="round" stroke-linejoin="round" stroke-miterlimit="10" width="2.126" height="2.126"/>
	
		<rect x="19.3972" y="12.0422" transform="matrix(-0.7071 -0.7071 0.7071 -0.7071 25.6609 36.8395)" fill="none" stroke="#FFFFFF" stroke-width="0.2835" stroke-linecap="round" stroke-linejoin="round" stroke-miterlimit="10" width="2.126" height="2.126"/>
</g>
</svg>
