<?xml version="1.0" encoding="utf-8"?>
<!-- Generator: Adobe Illustrator 25.4.1, SVG Export Plug-In . SVG Version: 6.00 Build 0)  -->
<svg version="1.1" id="Layer_1" xmlns="http://www.w3.org/2000/svg" xmlns:xlink="http://www.w3.org/1999/xlink" x="0px" y="0px"
	 width="73.7007px" height="90.4097px" viewBox="0 0 73.7007 90.4097" enable-background="new 0 0 73.7007 90.4097"
	 xml:space="preserve">
<g>
	<path fill="#E6AA50" d="M20.2677,84.3688v0.8044l0.1316,0.2873l0.2632,0.1724c1.309,0.3888,1.3786,1.8952,0,2.2984l-0.2632,0.2011
		l-0.1316,0.2873v1.9899h33.1324v-1.9899l-0.0987-0.2873l-0.2961-0.2011l-0.4606-0.2011l-0.329-0.316l-0.1645-0.4022v-0.4597
		l0.1645-0.3735l0.329-0.3448l0.4606-0.2011l0.2961-0.1724l0.0987-0.2873v-0.8044v-0.8906H20.2677V84.3688"/>
	<rect fill="#15181C" stroke="#0000FF" stroke-width="0.0318" stroke-miterlimit="10" width="73.7007" height="84.6497"/>
	<rect x="0.4776" y="0.5145" fill="#140A14" width="72.5026" height="73.3318"/>
	<rect x="4.3826" y="2.5381" fill="#333333" width="64.9355" height="64.4645"/>
	<polygon points="51.0641,90.4097 51.0641,85.046 51.1957,84.57 51.4918,84.1534 51.9524,83.8856 52.4789,83.7666 56.1639,83.7666 
		56.6903,83.6773 57.118,83.4096 57.4471,82.993 57.5458,82.5467 57.5458,76.0602 57.4471,75.5544 57.118,75.1378 56.6903,74.8998 
		56.1639,74.7808 17.5039,74.7808 17.0104,74.8998 16.5498,75.1378 16.2536,75.5544 16.122,76.0602 16.122,82.5467 16.2536,82.993 
		16.5498,83.4096 17.0104,83.6773 17.5039,83.7666 21.2219,83.7666 21.7483,83.8856 22.176,84.1534 22.505,84.57 22.6037,85.046 
		22.6037,90.4097 	"/>
</g>
</svg>
