<?xml version="1.0" encoding="utf-8"?>
<!-- Generator: Adobe Illustrator 27.6.1, SVG Export Plug-In . SVG Version: 6.00 Build 0)  -->
<svg version="1.1" id="Layer_1" xmlns="http://www.w3.org/2000/svg" xmlns:xlink="http://www.w3.org/1999/xlink" x="0px" y="0px"
	 width="17.5039px" height="17.5039px" viewBox="0 0 17.5039 17.5039" enable-background="new 0 0 17.5039 17.5039"
	 xml:space="preserve">
<g>
	<path fill="#3A3A3A" d="M16.047,17.5039H1.457C0.888,16.935,0.569,16.6159,0,16.047V1.457C0.569,0.888,0.888,0.569,1.457,0h14.59
		c0.569,0.569,0.888,0.888,1.457,1.457v14.59C16.935,16.6159,16.6159,16.935,16.047,17.5039z"/>
	<path d="M15.7459,16.6163H1.7991c-0.3479-0.3479-0.543-0.543-0.8909-0.8909V1.7786c0.3479-0.3479,0.543-0.543,0.8909-0.8909
		h13.9468c0.3479,0.3479,0.543,0.543,0.8909,0.8909v13.9468C16.2889,16.0733,16.0938,16.2683,15.7459,16.6163z"/>
	<path fill="#3A3A3A" d="M15.558,16.2046H1.9459c-0.2444-0.2444-0.3815-0.3815-0.6259-0.6259V1.9666
		c0.2444-0.2444,0.3815-0.3815,0.6259-0.6259H15.558c0.2444,0.2444,0.3815,0.3815,0.6259,0.6259v13.6121
		C15.9395,15.8231,15.8025,15.9602,15.558,16.2046z"/>
	<circle fill="#444545" cx="8.752" cy="8.7726" r="7.432"/>
</g>
</svg>
