<?xml version="1.0" encoding="UTF-8" standalone="no"?>
<!-- Created with Inkscape (http://www.inkscape.org/) -->

<svg
   xmlns:dc="http://purl.org/dc/elements/1.1/"
   xmlns:cc="http://creativecommons.org/ns#"
   xmlns:rdf="http://www.w3.org/1999/02/22-rdf-syntax-ns#"
   xmlns:svg="http://www.w3.org/2000/svg"
   xmlns="http://www.w3.org/2000/svg"
   xmlns:sodipodi="http://sodipodi.sourceforge.net/DTD/sodipodi-0.dtd"
   xmlns:inkscape="http://www.inkscape.org/namespaces/inkscape"
   width="5mm"
   height="5.999599mm"
   viewBox="0 0 17.716535 21.258421"
   id="svg8424"
   version="1.1"
   inkscape:version="0.91 r13725"
   sodipodi:docname="soic8.svg">
  <defs
     id="defs8426" />
  <sodipodi:namedview
     id="base"
     pagecolor="#ffffff"
     bordercolor="#666666"
     borderopacity="1.0"
     inkscape:pageopacity="0.0"
     inkscape:pageshadow="2"
     inkscape:zoom="15.839192"
     inkscape:cx="-4.0930924"
     inkscape:cy="10.717902"
     inkscape:document-units="mm"
     inkscape:current-layer="layer1"
     showgrid="false"
     fit-margin-top="0"
     fit-margin-left="0"
     fit-margin-right="0"
     fit-margin-bottom="0"
     inkscape:window-width="1463"
     inkscape:window-height="764"
     inkscape:window-x="533"
     inkscape:window-y="46"
     inkscape:window-maximized="0" />
  <metadata
     id="metadata8429">
    <rdf:RDF>
      <cc:Work
         rdf:about="">
        <dc:format>image/svg+xml</dc:format>
        <dc:type
           rdf:resource="http://purl.org/dc/dcmitype/StillImage" />
        <dc:title></dc:title>
      </cc:Work>
    </rdf:RDF>
  </metadata>
  <g
     inkscape:label="Layer 1"
     inkscape:groupmode="layer"
     id="layer1"
     transform="translate(-372.58632,-519.46721)">
    <g
       id="g13095"
       transform="matrix(0,-1,1,0,-148.65184,911.54101)">
      <g
         id="g13076">
        <g
           id="g12969"
           transform="matrix(2.1075844,0,0,2.1168521,-408.89885,-596.8356)">
          <rect
             transform="matrix(0,1,-1,0,0,0)"
             style="fill:#303030;stroke:none;stroke-width:0"
             id="rect30"
             height="6.3886251"
             y="-378.19431"
             x="528.17755"
             width="8.3692503" />
          <polygon
             transform="matrix(0,0.625,-0.625,0,381.5925,528.04221)"
             style="fill:#1f1f1f;stroke-width:0"
             id="polygon32"
             points="12.8874,6.15713 0.936569,6.15713 0.216567,5.43713 13.6074,5.43713 " />
          <polygon
             transform="matrix(0,0.625,-0.625,0,381.5925,528.04221)"
             style="fill:#1f1f1f;stroke-width:0"
             id="polygon34"
             points="12.8874,14.9388 0.936569,14.9388 0.216567,15.6588 13.6074,15.6588 " />
          <polygon
             transform="matrix(0,0.625,-0.625,0,381.5925,528.04221)"
             style="fill:#000000;stroke-width:0"
             id="polygon36"
             points="0.936569,14.9388 0.936569,6.15713 0.216567,5.43713 0.216567,15.6588 " />
          <polygon
             transform="matrix(0,0.625,-0.625,0,381.5925,528.04221)"
             style="fill:#3d3d3d;stroke-width:0"
             id="polygon38"
             points="12.8874,14.9388 12.8874,6.15713 13.6074,5.43713 13.6074,15.6588 " />
          <circle
             transform="matrix(0,1,-1,0,0,0)"
             style="fill:#1f1f1f;stroke:none;stroke-width:0"
             id="circle40"
             r="0.45000002"
             cy="-373.15576"
             cx="529.52759" />
        </g>
        <g
           id="g13034"
           transform="translate(0,-1.3392857)">
          <rect
             transform="matrix(0,1,-1,0,0,0)"
             style="fill:#8c8c8c;stroke:none;stroke-width:0"
             id="rect14-8"
             height="3.8976378"
             y="-374.71301"
             x="537.53735"
             width="1.4173229" />
          <rect
             width="1.4173229"
             x="533.03735"
             y="-374.71301"
             height="3.8976378"
             id="rect13010"
             style="fill:#8c8c8c;stroke:none;stroke-width:0"
             transform="matrix(0,1,-1,0,0,0)" />
          <rect
             width="1.4173229"
             x="528.53735"
             y="-374.71301"
             height="3.8976378"
             id="rect13030"
             style="fill:#8c8c8c;stroke:none;stroke-width:0"
             transform="matrix(0,1,-1,0,0,0)" />
          <rect
             transform="matrix(0,1,-1,0,0,0)"
             style="fill:#8c8c8c;stroke:none;stroke-width:0"
             id="rect13032"
             height="3.8976378"
             y="-374.71301"
             x="524.03735"
             width="1.4173229" />
        </g>
        <g
           transform="translate(17.360784,-1.3464376)"
           id="g13066">
          <rect
             width="1.4173229"
             x="537.53735"
             y="-374.71301"
             height="3.8976378"
             id="rect13068"
             style="fill:#8c8c8c;stroke:none;stroke-width:0"
             transform="matrix(0,1,-1,0,0,0)" />
          <rect
             transform="matrix(0,1,-1,0,0,0)"
             style="fill:#8c8c8c;stroke:none;stroke-width:0"
             id="rect13070"
             height="3.8976378"
             y="-374.71301"
             x="533.03735"
             width="1.4173229" />
          <rect
             transform="matrix(0,1,-1,0,0,0)"
             style="fill:#8c8c8c;stroke:none;stroke-width:0"
             id="rect13072"
             height="3.8976378"
             y="-374.71301"
             x="528.53735"
             width="1.4173229" />
          <rect
             width="1.4173229"
             x="524.03735"
             y="-374.71301"
             height="3.8976378"
             id="rect13074"
             style="fill:#8c8c8c;stroke:none;stroke-width:0"
             transform="matrix(0,1,-1,0,0,0)" />
        </g>
      </g>
    </g>
  </g>
</svg>
