<?xml version="1.0" encoding="utf-8"?>
<!-- Generator: Adobe Illustrator 20.0.0, SVG Export Plug-In . SVG Version: 6.00 Build 0)  -->
<svg version="1.2" baseProfile="tiny" id="Layer_1" xmlns="http://www.w3.org/2000/svg" xmlns:xlink="http://www.w3.org/1999/xlink"
	 x="0px" y="0px" width="22.11px" height="19.843px" viewBox="0 0 22.11 19.843" xml:space="preserve">
<rect x="18.709" y="12.189" fill="#0A3764" width="2.268" height="5.102"/>
<rect x="19.843" y="1.134" fill="#0A3764" width="2.268" height="2.268"/>
<polygon fill="#285096" points="20.976,13.606 20.976,0 1.134,0 1.134,13.606 0,13.606 0,15.874 1.134,15.874 1.134,18.425 
	20.976,18.425 20.976,15.874 19.843,15.874 19.843,13.606 "/>
<circle fill="#B4B4B4" cx="6.095" cy="9.921" r="3.685"/>
<circle fill="#B4B4B4" cx="16.016" cy="9.921" r="3.685"/>
<rect x="2.551" y="1.417" fill="#0A3764" width="7.37" height="2.835"/>
<rect x="11.339" y="1.417" fill="#0A3764" width="7.37" height="2.835"/>
<polygon fill="#0A3764" points="1.134,17.008 1.134,19.843 4.677,19.843 4.677,18.089 7.512,18.089 7.512,19.843 14.598,19.843 
	14.598,18.089 17.433,18.089 17.433,19.843 20.976,19.843 20.976,17.008 "/>
<rect x="1.843" y="17.805" fill="#8C8C8C" width="8.504" height="1.701"/>
<rect x="11.764" y="17.805" fill="#8C8C8C" width="8.504" height="1.701"/>
<path fill="#646464" d="M6.182,6.963l-1.643,0.44L5.053,9.32L2.42,10.026c0.008,0.282,0.039,0.565,0.115,0.849
	s0.191,0.545,0.325,0.793l2.633-0.706l0.514,1.917l1.643-0.44l-0.514-1.917l2.633-0.706C9.761,9.535,9.73,9.251,9.654,8.968
	S9.463,8.422,9.329,8.174L6.696,8.88L6.182,6.963z"/>
<path fill="#646464" d="M13.498,8.366l-0.44,1.643l1.917,0.514l-0.706,2.633c0.248,0.134,0.509,0.249,0.793,0.325
	c0.284,0.076,0.568,0.107,0.849,0.115l0.706-2.633l1.917,0.514l0.44-1.643L17.057,9.32l0.706-2.633
	c-0.248-0.134-0.509-0.249-0.793-0.325c-0.284-0.076-0.568-0.107-0.849-0.115L15.414,8.88L13.498,8.366z"/>
</svg>
