<?xml version="1.0" encoding="utf-8"?>
<!-- Generator: Adobe Illustrator 27.5.0, SVG Export Plug-In . SVG Version: 6.00 Build 0)  -->
<svg version="1.1" id="Layer_1" xmlns="http://www.w3.org/2000/svg" xmlns:xlink="http://www.w3.org/1999/xlink" x="0px" y="0px"
	 viewBox="0 0 23.5517 39.1546" enable-background="new 0 0 23.5517 39.1546" xml:space="preserve">
<g>
	<rect y="19.2289" fill="#CEB36E" width="6.2036" height="2.9645"/>
	<rect x="17.3481" y="36.147" fill="#CEB36E" width="6.2036" height="2.9645"/>
	<rect x="17.3481" y="29.9978" fill="#CEB36E" width="6.2036" height="2.9645"/>
	<rect y="34.8167" fill="#CEB36E" width="6.2036" height="2.9645"/>
	<rect x="4.7263" fill="#0C0C0C" width="14.1732" height="5.1389"/>
	<rect x="2.8842" y="5.1389" fill="#0C0C0C" width="17.8583" height="34.0157"/>
	<g>
		<path fill="#EBD092" d="M16.0054,9.2696v1.2902c0,0.3088-0.2448,0.5591-0.5469,0.5591h0c-0.2678,0-0.4961-0.1982-0.5396-0.4683
			L13.8153,3.793c-0.1613-1.0021-1.0086-1.7375-2.0021-1.7375h0c-0.9935,0-1.8408,0.7354-2.0021,1.7375l-1.1036,6.8576
			c-0.0435,0.2701-0.2718,0.4683-0.5396,0.4683h0c-0.302,0-0.5469-0.2503-0.5469-0.5591V9.2696
			c0-0.3088-0.2448-0.5591-0.5469-0.5591h-4.19v7.1212h17.8581V8.7106h-4.19C16.2502,8.7106,16.0054,8.9609,16.0054,9.2696z"/>
		<polygon fill="#FFF8EA" points="8.9738,9.5299 9.8752,3.9293 13.7507,3.9293 14.6521,9.5299 		"/>
		<rect x="19.5984" y="8.7977" fill="#FFF8EA" width="0.6152" height="6.9474"/>
		<path fill="#665329" d="M13.6916,3.3502c-0.3047-0.7681-1.0385-1.2948-1.8784-1.2948s-1.5737,0.5267-1.8784,1.2948H13.6916z"/>
	</g>
</g>
</svg>
