<?xml version="1.0" encoding="utf-8"?>
<!-- Generator: Adobe Illustrator 19.2.1, SVG Export Plug-In . SVG Version: 6.00 Build 0)  -->
<svg version="1.2" baseProfile="tiny" id="Layer_1" xmlns="http://www.w3.org/2000/svg" xmlns:xlink="http://www.w3.org/1999/xlink"
	 x="0px" y="0px" width="41.953px" height="42.236px" viewBox="0 0 41.953 42.236" xml:space="preserve">
<g>
	<path fill="#EBEBEB" d="M3.118,2.835h-0.85V2.268c0-0.783-0.635-1.417-1.417-1.417H0V0h0.85c1.252,0,2.268,1.015,2.268,2.268V2.835
		z"/>
	<path fill="#EBEBEB" d="M38.835,2.835h0.85V2.268c0-0.783,0.635-1.417,1.417-1.417h0.85V0l-0.85,0
		c-1.252,0-2.268,1.015-2.268,2.268V2.835z"/>
	<rect x="5.102" y="0" fill="#C8C8C8" width="31.748" height="2.126"/>
	<rect x="2.268" y="1.843" fill="#DCDCDC" width="37.417" height="38.693"/>
	<rect x="22.394" y="37.701" width="12.189" height="1.417"/>
	<rect x="7.37" y="37.701" width="12.189" height="1.417"/>
	<path fill="#FFFFFF" d="M15.307,19.134H9.071c-0.783,0-1.417-0.635-1.417-1.417V3.543c0-0.783,0.635-1.417,1.417-1.417h6.236
		c0.783,0,1.417,0.635,1.417,1.417v14.173C16.724,18.499,16.09,19.134,15.307,19.134z"/>
	<polygon fill="#EBEBEB" points="9.741,7.087 8.646,19.134 15.732,19.134 14.637,7.087 	"/>
	<path fill="#C8C8C8" d="M14.766,8.504l-0.334-3.672c-0.066-0.73-0.678-1.289-1.412-1.289h-1.663c-0.733,0-1.345,0.559-1.412,1.289
		L9.612,8.504H14.766z"/>
	<path fill="#FFFFFF" d="M32.882,19.134h-6.236c-0.783,0-1.417-0.635-1.417-1.417V3.543c0-0.783,0.635-1.417,1.417-1.417h6.236
		c0.783,0,1.417,0.635,1.417,1.417v14.173C34.299,18.499,33.665,19.134,32.882,19.134z"/>
	<polygon fill="#EBEBEB" points="27.316,7.087 26.22,19.134 33.307,19.134 32.212,7.087 	"/>
	<path fill="#C8C8C8" d="M32.341,8.504l-0.334-3.672c-0.066-0.73-0.678-1.289-1.412-1.289h-1.663c-0.733,0-1.345,0.559-1.412,1.289
		l-0.334,3.672H32.341z"/>
	<rect x="5.102" y="0" fill="#EBEBEB" width="31.748" height="0.85"/>
</g>
</svg>
